G04 #@! TF.GenerationSoftware,KiCad,Pcbnew,8.0.5*
G04 #@! TF.CreationDate,2024-10-14T11:26:22+05:00*
G04 #@! TF.ProjectId,2floor_for_orange_pi,32666c6f-6f72-45f6-966f-725f6f72616e,rev?*
G04 #@! TF.SameCoordinates,Original*
G04 #@! TF.FileFunction,Other,User*
%FSLAX46Y46*%
G04 Gerber Fmt 4.6, Leading zero omitted, Abs format (unit mm)*
G04 Created by KiCad (PCBNEW 8.0.5) date 2024-10-14 11:26:22*
%MOMM*%
%LPD*%
G01*
G04 APERTURE LIST*
%ADD10C,0.050000*%
G04 APERTURE END LIST*
D10*
G04 #@! TO.C,J16*
X61430000Y-17870000D02*
X61430000Y-31620000D01*
X61430000Y-31620000D02*
X65030000Y-31620000D01*
X65030000Y-17870000D02*
X61430000Y-17870000D01*
X65030000Y-31620000D02*
X65030000Y-17870000D01*
G04 #@! TO.C,J7*
X47110000Y-37390000D02*
X47110000Y-46040000D01*
X47110000Y-46040000D02*
X50710000Y-46040000D01*
X50710000Y-37390000D02*
X47110000Y-37390000D01*
X50710000Y-46040000D02*
X50710000Y-37390000D01*
G04 #@! TO.C,J9*
X68940000Y-37540000D02*
X68940000Y-46190000D01*
X68940000Y-46190000D02*
X72540000Y-46190000D01*
X72540000Y-37540000D02*
X68940000Y-37540000D01*
X72540000Y-46190000D02*
X72540000Y-37540000D01*
G04 #@! TO.C,J17*
X23630000Y-17630000D02*
X23630000Y-21230000D01*
X23630000Y-21230000D02*
X32280000Y-21230000D01*
X32280000Y-17630000D02*
X23630000Y-17630000D01*
X32280000Y-21230000D02*
X32280000Y-17630000D01*
G04 #@! TO.C,U1*
X27870000Y-23060000D02*
X45370000Y-23060000D01*
X27870000Y-73020000D02*
X27870000Y-23060000D01*
X45370000Y-23060000D02*
X45370000Y-73020000D01*
X45370000Y-73020000D02*
X27870000Y-73020000D01*
G04 #@! TO.C,J3*
X72810000Y-66860000D02*
X76360000Y-66860000D01*
X72810000Y-85660000D02*
X72810000Y-66860000D01*
X76360000Y-66860000D02*
X76360000Y-85660000D01*
X76360000Y-85660000D02*
X72810000Y-85660000D01*
G04 #@! TO.C,J14*
X54180000Y-17880000D02*
X54180000Y-31630000D01*
X54180000Y-31630000D02*
X57780000Y-31630000D01*
X57780000Y-17880000D02*
X54180000Y-17880000D01*
X57780000Y-31630000D02*
X57780000Y-17880000D01*
G04 #@! TO.C,J2*
X72820000Y-48040000D02*
X76370000Y-48040000D01*
X72820000Y-66840000D02*
X72820000Y-48040000D01*
X76370000Y-48040000D02*
X76370000Y-66840000D01*
X76370000Y-66840000D02*
X72820000Y-66840000D01*
G04 #@! TO.C,J6*
X65480000Y-20400000D02*
X65480000Y-29050000D01*
X65480000Y-29050000D02*
X69080000Y-29050000D01*
X69080000Y-20400000D02*
X65480000Y-20400000D01*
X69080000Y-29050000D02*
X69080000Y-20400000D01*
G04 #@! TO.C,J13*
X50540000Y-17880000D02*
X50540000Y-31630000D01*
X50540000Y-31630000D02*
X54140000Y-31630000D01*
X54140000Y-17880000D02*
X50540000Y-17880000D01*
X54140000Y-31630000D02*
X54140000Y-17880000D01*
G04 #@! TO.C,J5*
X69080000Y-20400000D02*
X69080000Y-29050000D01*
X69080000Y-29050000D02*
X72680000Y-29050000D01*
X72680000Y-20400000D02*
X69080000Y-20400000D01*
X72680000Y-29050000D02*
X72680000Y-20400000D01*
G04 #@! TO.C,J4*
X72720000Y-20400000D02*
X72720000Y-29050000D01*
X72720000Y-29050000D02*
X76320000Y-29050000D01*
X76320000Y-20400000D02*
X72720000Y-20400000D01*
X76320000Y-29050000D02*
X76320000Y-20400000D01*
G04 #@! TO.C,J11*
X47890000Y-61320000D02*
X47890000Y-72520000D01*
X47890000Y-72520000D02*
X51490000Y-72520000D01*
X51490000Y-61320000D02*
X47890000Y-61320000D01*
X51490000Y-72520000D02*
X51490000Y-61320000D01*
G04 #@! TO.C,J15*
X57810000Y-17890000D02*
X57810000Y-31640000D01*
X57810000Y-31640000D02*
X61410000Y-31640000D01*
X61410000Y-17890000D02*
X57810000Y-17890000D01*
X61410000Y-31640000D02*
X61410000Y-17890000D01*
G04 #@! TO.C,J12*
X46860000Y-20450000D02*
X46860000Y-34200000D01*
X46860000Y-34200000D02*
X50460000Y-34200000D01*
X50460000Y-20450000D02*
X46860000Y-20450000D01*
X50460000Y-34200000D02*
X50460000Y-20450000D01*
G04 #@! TD*
M02*
