G04 #@! TF.GenerationSoftware,KiCad,Pcbnew,8.0.5*
G04 #@! TF.CreationDate,2024-10-14T11:26:21+05:00*
G04 #@! TF.ProjectId,2floor_for_orange_pi,32666c6f-6f72-45f6-966f-725f6f72616e,rev?*
G04 #@! TF.SameCoordinates,Original*
G04 #@! TF.FileFunction,Soldermask,Bot*
G04 #@! TF.FilePolarity,Negative*
%FSLAX46Y46*%
G04 Gerber Fmt 4.6, Leading zero omitted, Abs format (unit mm)*
G04 Created by KiCad (PCBNEW 8.0.5) date 2024-10-14 11:26:22*
%MOMM*%
%LPD*%
G01*
G04 APERTURE LIST*
%ADD10R,1.700000X1.700000*%
%ADD11O,1.700000X1.700000*%
%ADD12R,2.000000X1.200000*%
%ADD13O,2.000000X1.200000*%
G04 APERTURE END LIST*
D10*
G04 #@! TO.C,J8*
X74500000Y-39320000D03*
D11*
X74500000Y-41860000D03*
X74500000Y-44400000D03*
G04 #@! TD*
D10*
G04 #@! TO.C,J1*
X25430000Y-23930000D03*
D11*
X22890000Y-23930000D03*
X25430000Y-26470000D03*
X22890000Y-26470000D03*
X25430000Y-29010000D03*
X22890000Y-29010000D03*
X25430000Y-31550000D03*
X22890000Y-31550000D03*
X25430000Y-34090000D03*
X22890000Y-34090000D03*
X25430000Y-36630000D03*
X22890000Y-36630000D03*
X25430000Y-39170000D03*
X22890000Y-39170000D03*
X25430000Y-41710000D03*
X22890000Y-41710000D03*
X25430000Y-44250000D03*
X22890000Y-44250000D03*
X25430000Y-46790000D03*
X22890000Y-46790000D03*
X25430000Y-49330000D03*
X22890000Y-49330000D03*
X25430000Y-51870000D03*
X22890000Y-51870000D03*
X25430000Y-54410000D03*
X22890000Y-54410000D03*
X25430000Y-56950000D03*
X22890000Y-56950000D03*
X25430000Y-59490000D03*
X22890000Y-59490000D03*
X25430000Y-62030000D03*
X22890000Y-62030000D03*
X25430000Y-64570000D03*
X22890000Y-64570000D03*
X25430000Y-67110000D03*
X22890000Y-67110000D03*
X25430000Y-69650000D03*
X22890000Y-69650000D03*
X25430000Y-72190000D03*
X22890000Y-72190000D03*
G04 #@! TD*
D10*
G04 #@! TO.C,J16*
X63230000Y-19670000D03*
D11*
X63230000Y-22210000D03*
X63230000Y-24750000D03*
X63230000Y-27290000D03*
X63230000Y-29830000D03*
G04 #@! TD*
D10*
G04 #@! TO.C,J7*
X48910000Y-39190000D03*
D11*
X48910000Y-41730000D03*
X48910000Y-44270000D03*
G04 #@! TD*
D10*
G04 #@! TO.C,J9*
X70740000Y-39340000D03*
D11*
X70740000Y-41880000D03*
X70740000Y-44420000D03*
G04 #@! TD*
D10*
G04 #@! TO.C,J17*
X30480000Y-19430000D03*
D11*
X27940000Y-19430000D03*
X25400000Y-19430000D03*
G04 #@! TD*
D12*
G04 #@! TO.C,U1*
X44120000Y-23910000D03*
D13*
X44120000Y-26450000D03*
X44120000Y-28990000D03*
X44120000Y-31530000D03*
X44120000Y-34070000D03*
X44120000Y-36610000D03*
X44120000Y-39150000D03*
X44120000Y-41690000D03*
X44120000Y-44230000D03*
X44120000Y-46770000D03*
X44120000Y-49310000D03*
X44120000Y-51850000D03*
X44120000Y-54390000D03*
X44120000Y-56930000D03*
X44120000Y-59470000D03*
X44120000Y-62010000D03*
X44120000Y-64550000D03*
X44120000Y-67090000D03*
X44120000Y-69630000D03*
X44120000Y-72170000D03*
X29120000Y-72170000D03*
X29120000Y-69630000D03*
X29120000Y-67090000D03*
X29120000Y-64550000D03*
X29120000Y-62010000D03*
X29120000Y-59470000D03*
X29120000Y-56930000D03*
X29120000Y-54390000D03*
X29120000Y-51850000D03*
X29120000Y-49310000D03*
X29120000Y-46770000D03*
X29120000Y-44230000D03*
X29120000Y-41690000D03*
X29120000Y-39150000D03*
X29120000Y-36610000D03*
X29120000Y-34070000D03*
X29120000Y-31530000D03*
X29120000Y-28990000D03*
X29120000Y-26450000D03*
X29120000Y-23910000D03*
G04 #@! TD*
D10*
G04 #@! TO.C,J3*
X74560000Y-68660000D03*
D11*
X74560000Y-71200000D03*
X74560000Y-73740000D03*
X74560000Y-76280000D03*
X74560000Y-78820000D03*
X74560000Y-81360000D03*
X74560000Y-83900000D03*
G04 #@! TD*
D10*
G04 #@! TO.C,J14*
X55980000Y-19680000D03*
D11*
X55980000Y-22220000D03*
X55980000Y-24760000D03*
X55980000Y-27300000D03*
X55980000Y-29840000D03*
G04 #@! TD*
D10*
G04 #@! TO.C,J2*
X74570000Y-49840000D03*
D11*
X74570000Y-52380000D03*
X74570000Y-54920000D03*
X74570000Y-57460000D03*
X74570000Y-60000000D03*
X74570000Y-62540000D03*
X74570000Y-65080000D03*
G04 #@! TD*
D10*
G04 #@! TO.C,J6*
X67280000Y-22200000D03*
D11*
X67280000Y-24740000D03*
X67280000Y-27280000D03*
G04 #@! TD*
D10*
G04 #@! TO.C,J13*
X52340000Y-19680000D03*
D11*
X52340000Y-22220000D03*
X52340000Y-24760000D03*
X52340000Y-27300000D03*
X52340000Y-29840000D03*
G04 #@! TD*
D10*
G04 #@! TO.C,J5*
X70880000Y-22200000D03*
D11*
X70880000Y-24740000D03*
X70880000Y-27280000D03*
G04 #@! TD*
D10*
G04 #@! TO.C,J4*
X74520000Y-22200000D03*
D11*
X74520000Y-24740000D03*
X74520000Y-27280000D03*
G04 #@! TD*
D10*
G04 #@! TO.C,J11*
X49690000Y-63120000D03*
D11*
X49690000Y-65660000D03*
X49690000Y-68200000D03*
X49690000Y-70740000D03*
G04 #@! TD*
D10*
G04 #@! TO.C,J15*
X59610000Y-19690000D03*
D11*
X59610000Y-22230000D03*
X59610000Y-24770000D03*
X59610000Y-27310000D03*
X59610000Y-29850000D03*
G04 #@! TD*
D10*
G04 #@! TO.C,J12*
X48660000Y-22250000D03*
D11*
X48660000Y-24790000D03*
X48660000Y-27330000D03*
X48660000Y-29870000D03*
X48660000Y-32410000D03*
G04 #@! TD*
M02*
