%TF.GenerationSoftware,KiCad,Pcbnew,8.0.5*%
%TF.CreationDate,2024-10-14T11:26:22+05:00*%
%TF.ProjectId,2floor_for_orange_pi,32666c6f-6f72-45f6-966f-725f6f72616e,rev?*%
%TF.SameCoordinates,Original*%
%TF.FileFunction,Drillmap*%
%TF.FilePolarity,Positive*%
%FSLAX45Y45*%
G04 Gerber Fmt 4.5, Leading zero omitted, Abs format (unit mm)*
G04 Created by KiCad (PCBNEW 8.0.5) date 2024-10-14 11:26:22*
%MOMM*%
%LPD*%
G01*
G04 APERTURE LIST*
%ADD10C,0.050000*%
%ADD11C,0.200000*%
%ADD12C,0.100000*%
G04 APERTURE END LIST*
D10*
X7252000Y-8595000D02*
X7654000Y-8595000D01*
X7654000Y-8595000D02*
X7664000Y-1602000D01*
X6850000Y-8055000D02*
X7245000Y-8398000D01*
X7664000Y-1602000D02*
X2018000Y-1602000D01*
X2015000Y-8054000D02*
X6850000Y-8055000D01*
X7245000Y-8398000D02*
X7252000Y-8595000D01*
X2018000Y-1602000D02*
X2015000Y-8054000D01*
D11*
D12*
X2120000Y-4662000D02*
X2150000Y-4692000D01*
X2150000Y-4662000D02*
X2120000Y-4692000D01*
X2135000Y-5934000D02*
X2165000Y-5964000D01*
X2165000Y-5934000D02*
X2135000Y-5964000D01*
X2141000Y-6442000D02*
X2171000Y-6472000D01*
X2171000Y-6442000D02*
X2141000Y-6472000D01*
X2147000Y-2886000D02*
X2177000Y-2916000D01*
X2177000Y-2886000D02*
X2147000Y-2916000D01*
X2150000Y-3902000D02*
X2180000Y-3932000D01*
X2180000Y-3902000D02*
X2150000Y-3932000D01*
X2521000Y-7525000D02*
X2551000Y-7555000D01*
X2551000Y-7525000D02*
X2521000Y-7555000D01*
X2662000Y-5841000D02*
X2692000Y-5871000D01*
X2692000Y-5841000D02*
X2662000Y-5871000D01*
X2663000Y-4917000D02*
X2693000Y-4947000D01*
X2693000Y-4917000D02*
X2663000Y-4947000D01*
X2663000Y-5329000D02*
X2693000Y-5359000D01*
X2693000Y-5329000D02*
X2663000Y-5359000D01*
X3025000Y-4290000D02*
X3055000Y-4320000D01*
X3055000Y-4290000D02*
X3025000Y-4320000D01*
X3108000Y-4846000D02*
X3138000Y-4876000D01*
X3138000Y-4846000D02*
X3108000Y-4876000D01*
X3122000Y-2580000D02*
X3152000Y-2610000D01*
X3152000Y-2580000D02*
X3122000Y-2610000D01*
X3141000Y-3556000D02*
X3171000Y-3586000D01*
X3171000Y-3556000D02*
X3141000Y-3586000D01*
X3205000Y-5678000D02*
X3235000Y-5708000D01*
X3235000Y-5678000D02*
X3205000Y-5708000D01*
X3247000Y-4794000D02*
X3277000Y-4824000D01*
X3277000Y-4794000D02*
X3247000Y-4824000D01*
X3259000Y-4296000D02*
X3289000Y-4326000D01*
X3289000Y-4296000D02*
X3259000Y-4326000D01*
X3273000Y-5779000D02*
X3303000Y-5809000D01*
X3303000Y-5779000D02*
X3273000Y-5809000D01*
X3281000Y-5932000D02*
X3311000Y-5962000D01*
X3311000Y-5932000D02*
X3281000Y-5962000D01*
X3295000Y-5370000D02*
X3325000Y-5400000D01*
X3325000Y-5370000D02*
X3295000Y-5400000D01*
X3316000Y-4944000D02*
X3346000Y-4974000D01*
X3346000Y-4944000D02*
X3316000Y-4974000D01*
X3351000Y-5433000D02*
X3381000Y-5463000D01*
X3381000Y-5433000D02*
X3351000Y-5463000D01*
X3402000Y-5072000D02*
X3432000Y-5102000D01*
X3432000Y-5072000D02*
X3402000Y-5102000D01*
X3435000Y-5496000D02*
X3465000Y-5526000D01*
X3465000Y-5496000D02*
X3435000Y-5526000D01*
X3481000Y-5169000D02*
X3511000Y-5199000D01*
X3511000Y-5169000D02*
X3481000Y-5199000D01*
X3496000Y-3557000D02*
X3526000Y-3587000D01*
X3526000Y-3557000D02*
X3496000Y-3587000D01*
X3522000Y-4184000D02*
X3552000Y-4214000D01*
X3552000Y-4184000D02*
X3522000Y-4214000D01*
X3600000Y-4077000D02*
X3630000Y-4107000D01*
X3630000Y-4077000D02*
X3600000Y-4107000D01*
X3613000Y-4355000D02*
X3643000Y-4385000D01*
X3643000Y-4355000D02*
X3613000Y-4385000D01*
X3635000Y-5487000D02*
X3665000Y-5517000D01*
X3665000Y-5487000D02*
X3635000Y-5517000D01*
X3636000Y-7783000D02*
X3666000Y-7813000D01*
X3666000Y-7783000D02*
X3636000Y-7813000D01*
X3651000Y-3996000D02*
X3681000Y-4026000D01*
X3681000Y-3996000D02*
X3651000Y-4026000D01*
X3677000Y-3317000D02*
X3707000Y-3347000D01*
X3707000Y-3317000D02*
X3677000Y-3347000D01*
X3684000Y-6262000D02*
X3714000Y-6292000D01*
X3714000Y-6262000D02*
X3684000Y-6292000D01*
X3698000Y-7646000D02*
X3728000Y-7676000D01*
X3728000Y-7646000D02*
X3698000Y-7676000D01*
X3706500Y-2988500D02*
X3736500Y-3018500D01*
X3736500Y-2988500D02*
X3706500Y-3018500D01*
X3877000Y-4124000D02*
X3907000Y-4154000D01*
X3907000Y-4124000D02*
X3877000Y-4154000D01*
X3880000Y-5803000D02*
X3910000Y-5833000D01*
X3910000Y-5803000D02*
X3880000Y-5833000D01*
X3886000Y-6073000D02*
X3916000Y-6103000D01*
X3916000Y-6073000D02*
X3886000Y-6103000D01*
X3937000Y-6000000D02*
X3967000Y-6030000D01*
X3967000Y-6000000D02*
X3937000Y-6030000D01*
X3954000Y-3165000D02*
X3984000Y-3195000D01*
X3984000Y-3165000D02*
X3954000Y-3195000D01*
X4028000Y-5995000D02*
X4058000Y-6025000D01*
X4058000Y-5995000D02*
X4028000Y-6025000D01*
X4034000Y-4118000D02*
X4064000Y-4148000D01*
X4064000Y-4118000D02*
X4034000Y-4148000D01*
X4036000Y-3798000D02*
X4066000Y-3828000D01*
X4066000Y-3798000D02*
X4036000Y-3828000D01*
X4095000Y-2761000D02*
X4125000Y-2791000D01*
X4125000Y-2761000D02*
X4095000Y-2791000D01*
X4098000Y-6260000D02*
X4128000Y-6290000D01*
X4128000Y-6260000D02*
X4098000Y-6290000D01*
X4161000Y-6374000D02*
X4191000Y-6404000D01*
X4191000Y-6374000D02*
X4161000Y-6404000D01*
X4276000Y-1979000D02*
X4306000Y-2009000D01*
X4306000Y-1979000D02*
X4276000Y-2009000D01*
X4859000Y-3520000D02*
X4889000Y-3550000D01*
X4889000Y-3520000D02*
X4859000Y-3550000D01*
X4970000Y-5574000D02*
X5000000Y-5604000D01*
X5000000Y-5574000D02*
X4970000Y-5604000D01*
X5217000Y-5578000D02*
X5247000Y-5608000D01*
X5247000Y-5578000D02*
X5217000Y-5608000D01*
X5222000Y-4517000D02*
X5252000Y-4547000D01*
X5252000Y-4517000D02*
X5222000Y-4547000D01*
X5285000Y-3175000D02*
X5315000Y-3205000D01*
X5315000Y-3175000D02*
X5285000Y-3205000D01*
X5342000Y-5645000D02*
X5372000Y-5675000D01*
X5372000Y-5645000D02*
X5342000Y-5675000D01*
X5343000Y-5810000D02*
X5373000Y-5840000D01*
X5373000Y-5810000D02*
X5343000Y-5840000D01*
X5405000Y-3540000D02*
X5435000Y-3570000D01*
X5435000Y-3540000D02*
X5405000Y-3570000D01*
X5477000Y-5035000D02*
X5507000Y-5065000D01*
X5507000Y-5035000D02*
X5477000Y-5065000D01*
X5548000Y-3393000D02*
X5578000Y-3423000D01*
X5578000Y-3393000D02*
X5548000Y-3423000D01*
X5693000Y-4517000D02*
X5723000Y-4547000D01*
X5723000Y-4517000D02*
X5693000Y-4547000D01*
X5763000Y-2595000D02*
X5793000Y-2625000D01*
X5793000Y-2595000D02*
X5763000Y-2625000D01*
X5766000Y-4447000D02*
X5796000Y-4477000D01*
X5796000Y-4447000D02*
X5766000Y-4477000D01*
X5815000Y-4914000D02*
X5845000Y-4944000D01*
X5845000Y-4914000D02*
X5815000Y-4944000D01*
X5934000Y-3182000D02*
X5964000Y-3212000D01*
X5964000Y-3182000D02*
X5934000Y-3212000D01*
X5935000Y-4455000D02*
X5965000Y-4485000D01*
X5965000Y-4455000D02*
X5935000Y-4485000D01*
X6200000Y-7891000D02*
X6230000Y-7921000D01*
X6230000Y-7891000D02*
X6200000Y-7921000D01*
X6284500Y-3718500D02*
X6314500Y-3748500D01*
X6314500Y-3718500D02*
X6284500Y-3748500D01*
X6307000Y-3146000D02*
X6337000Y-3176000D01*
X6337000Y-3146000D02*
X6307000Y-3176000D01*
X6333000Y-3393000D02*
X6363000Y-3423000D01*
X6363000Y-3393000D02*
X6333000Y-3423000D01*
X6368000Y-7202000D02*
X6398000Y-7232000D01*
X6398000Y-7202000D02*
X6368000Y-7232000D01*
X6415000Y-6829000D02*
X6445000Y-6859000D01*
X6445000Y-6829000D02*
X6415000Y-6859000D01*
X6482000Y-4122000D02*
X6512000Y-4152000D01*
X6512000Y-4122000D02*
X6482000Y-4152000D01*
X6656000Y-5202000D02*
X6686000Y-5232000D01*
X6686000Y-5202000D02*
X6656000Y-5232000D01*
X6662000Y-7786000D02*
X6692000Y-7816000D01*
X6692000Y-7786000D02*
X6662000Y-7816000D01*
X6712000Y-7567000D02*
X6742000Y-7597000D01*
X6742000Y-7567000D02*
X6712000Y-7597000D01*
X6713000Y-7313000D02*
X6743000Y-7343000D01*
X6743000Y-7313000D02*
X6713000Y-7343000D01*
X6788000Y-4608000D02*
X6818000Y-4638000D01*
X6818000Y-4608000D02*
X6788000Y-4638000D01*
X6796000Y-6937000D02*
X6826000Y-6967000D01*
X6826000Y-6937000D02*
X6796000Y-6967000D01*
X6800500Y-6439500D02*
X6830500Y-6469500D01*
X6830500Y-6439500D02*
X6800500Y-6469500D01*
X6818500Y-3877500D02*
X6848500Y-3907500D01*
X6848500Y-3877500D02*
X6818500Y-3907500D01*
X6840000Y-4455000D02*
X6870000Y-4485000D01*
X6870000Y-4455000D02*
X6840000Y-4485000D01*
X6845000Y-4969000D02*
X6875000Y-4999000D01*
X6875000Y-4969000D02*
X6845000Y-4999000D01*
X6851000Y-5081000D02*
X6881000Y-5111000D01*
X6881000Y-5081000D02*
X6851000Y-5111000D01*
X6936000Y-3570000D02*
X6966000Y-3600000D01*
X6966000Y-3570000D02*
X6936000Y-3600000D01*
X6948000Y-5357000D02*
X6978000Y-5387000D01*
X6978000Y-5357000D02*
X6948000Y-5387000D01*
X7013000Y-6019000D02*
X7043000Y-6049000D01*
X7043000Y-6019000D02*
X7013000Y-6049000D01*
X7047000Y-7815000D02*
X7077000Y-7845000D01*
X7077000Y-7815000D02*
X7047000Y-7845000D01*
X7115000Y-6125000D02*
X7145000Y-6155000D01*
X7145000Y-6125000D02*
X7115000Y-6155000D01*
X7214000Y-4810000D02*
X7244000Y-4840000D01*
X7244000Y-4810000D02*
X7214000Y-4840000D01*
X7262500Y-3647500D02*
X7292500Y-3677500D01*
X7292500Y-3647500D02*
X7262500Y-3677500D01*
X2952000Y-2391000D02*
G75*
G02*
X2872000Y-2391000I-40000J0D01*
G01*
X2872000Y-2391000D02*
G75*
G02*
X2952000Y-2391000I40000J0D01*
G01*
X2952000Y-2645000D02*
G75*
G02*
X2872000Y-2645000I-40000J0D01*
G01*
X2872000Y-2645000D02*
G75*
G02*
X2952000Y-2645000I40000J0D01*
G01*
X2952000Y-2899000D02*
G75*
G02*
X2872000Y-2899000I-40000J0D01*
G01*
X2872000Y-2899000D02*
G75*
G02*
X2952000Y-2899000I40000J0D01*
G01*
X2952000Y-3153000D02*
G75*
G02*
X2872000Y-3153000I-40000J0D01*
G01*
X2872000Y-3153000D02*
G75*
G02*
X2952000Y-3153000I40000J0D01*
G01*
X2952000Y-3407000D02*
G75*
G02*
X2872000Y-3407000I-40000J0D01*
G01*
X2872000Y-3407000D02*
G75*
G02*
X2952000Y-3407000I40000J0D01*
G01*
X2952000Y-3661000D02*
G75*
G02*
X2872000Y-3661000I-40000J0D01*
G01*
X2872000Y-3661000D02*
G75*
G02*
X2952000Y-3661000I40000J0D01*
G01*
X2952000Y-3915000D02*
G75*
G02*
X2872000Y-3915000I-40000J0D01*
G01*
X2872000Y-3915000D02*
G75*
G02*
X2952000Y-3915000I40000J0D01*
G01*
X2952000Y-4169000D02*
G75*
G02*
X2872000Y-4169000I-40000J0D01*
G01*
X2872000Y-4169000D02*
G75*
G02*
X2952000Y-4169000I40000J0D01*
G01*
X2952000Y-4423000D02*
G75*
G02*
X2872000Y-4423000I-40000J0D01*
G01*
X2872000Y-4423000D02*
G75*
G02*
X2952000Y-4423000I40000J0D01*
G01*
X2952000Y-4677000D02*
G75*
G02*
X2872000Y-4677000I-40000J0D01*
G01*
X2872000Y-4677000D02*
G75*
G02*
X2952000Y-4677000I40000J0D01*
G01*
X2952000Y-4931000D02*
G75*
G02*
X2872000Y-4931000I-40000J0D01*
G01*
X2872000Y-4931000D02*
G75*
G02*
X2952000Y-4931000I40000J0D01*
G01*
X2952000Y-5185000D02*
G75*
G02*
X2872000Y-5185000I-40000J0D01*
G01*
X2872000Y-5185000D02*
G75*
G02*
X2952000Y-5185000I40000J0D01*
G01*
X2952000Y-5439000D02*
G75*
G02*
X2872000Y-5439000I-40000J0D01*
G01*
X2872000Y-5439000D02*
G75*
G02*
X2952000Y-5439000I40000J0D01*
G01*
X2952000Y-5693000D02*
G75*
G02*
X2872000Y-5693000I-40000J0D01*
G01*
X2872000Y-5693000D02*
G75*
G02*
X2952000Y-5693000I40000J0D01*
G01*
X2952000Y-5947000D02*
G75*
G02*
X2872000Y-5947000I-40000J0D01*
G01*
X2872000Y-5947000D02*
G75*
G02*
X2952000Y-5947000I40000J0D01*
G01*
X2952000Y-6201000D02*
G75*
G02*
X2872000Y-6201000I-40000J0D01*
G01*
X2872000Y-6201000D02*
G75*
G02*
X2952000Y-6201000I40000J0D01*
G01*
X2952000Y-6455000D02*
G75*
G02*
X2872000Y-6455000I-40000J0D01*
G01*
X2872000Y-6455000D02*
G75*
G02*
X2952000Y-6455000I40000J0D01*
G01*
X2952000Y-6709000D02*
G75*
G02*
X2872000Y-6709000I-40000J0D01*
G01*
X2872000Y-6709000D02*
G75*
G02*
X2952000Y-6709000I40000J0D01*
G01*
X2952000Y-6963000D02*
G75*
G02*
X2872000Y-6963000I-40000J0D01*
G01*
X2872000Y-6963000D02*
G75*
G02*
X2952000Y-6963000I40000J0D01*
G01*
X2952000Y-7217000D02*
G75*
G02*
X2872000Y-7217000I-40000J0D01*
G01*
X2872000Y-7217000D02*
G75*
G02*
X2952000Y-7217000I40000J0D01*
G01*
X4452000Y-2391000D02*
G75*
G02*
X4372000Y-2391000I-40000J0D01*
G01*
X4372000Y-2391000D02*
G75*
G02*
X4452000Y-2391000I40000J0D01*
G01*
X4452000Y-2645000D02*
G75*
G02*
X4372000Y-2645000I-40000J0D01*
G01*
X4372000Y-2645000D02*
G75*
G02*
X4452000Y-2645000I40000J0D01*
G01*
X4452000Y-2899000D02*
G75*
G02*
X4372000Y-2899000I-40000J0D01*
G01*
X4372000Y-2899000D02*
G75*
G02*
X4452000Y-2899000I40000J0D01*
G01*
X4452000Y-3153000D02*
G75*
G02*
X4372000Y-3153000I-40000J0D01*
G01*
X4372000Y-3153000D02*
G75*
G02*
X4452000Y-3153000I40000J0D01*
G01*
X4452000Y-3407000D02*
G75*
G02*
X4372000Y-3407000I-40000J0D01*
G01*
X4372000Y-3407000D02*
G75*
G02*
X4452000Y-3407000I40000J0D01*
G01*
X4452000Y-3661000D02*
G75*
G02*
X4372000Y-3661000I-40000J0D01*
G01*
X4372000Y-3661000D02*
G75*
G02*
X4452000Y-3661000I40000J0D01*
G01*
X4452000Y-3915000D02*
G75*
G02*
X4372000Y-3915000I-40000J0D01*
G01*
X4372000Y-3915000D02*
G75*
G02*
X4452000Y-3915000I40000J0D01*
G01*
X4452000Y-4169000D02*
G75*
G02*
X4372000Y-4169000I-40000J0D01*
G01*
X4372000Y-4169000D02*
G75*
G02*
X4452000Y-4169000I40000J0D01*
G01*
X4452000Y-4423000D02*
G75*
G02*
X4372000Y-4423000I-40000J0D01*
G01*
X4372000Y-4423000D02*
G75*
G02*
X4452000Y-4423000I40000J0D01*
G01*
X4452000Y-4677000D02*
G75*
G02*
X4372000Y-4677000I-40000J0D01*
G01*
X4372000Y-4677000D02*
G75*
G02*
X4452000Y-4677000I40000J0D01*
G01*
X4452000Y-4931000D02*
G75*
G02*
X4372000Y-4931000I-40000J0D01*
G01*
X4372000Y-4931000D02*
G75*
G02*
X4452000Y-4931000I40000J0D01*
G01*
X4452000Y-5185000D02*
G75*
G02*
X4372000Y-5185000I-40000J0D01*
G01*
X4372000Y-5185000D02*
G75*
G02*
X4452000Y-5185000I40000J0D01*
G01*
X4452000Y-5439000D02*
G75*
G02*
X4372000Y-5439000I-40000J0D01*
G01*
X4372000Y-5439000D02*
G75*
G02*
X4452000Y-5439000I40000J0D01*
G01*
X4452000Y-5693000D02*
G75*
G02*
X4372000Y-5693000I-40000J0D01*
G01*
X4372000Y-5693000D02*
G75*
G02*
X4452000Y-5693000I40000J0D01*
G01*
X4452000Y-5947000D02*
G75*
G02*
X4372000Y-5947000I-40000J0D01*
G01*
X4372000Y-5947000D02*
G75*
G02*
X4452000Y-5947000I40000J0D01*
G01*
X4452000Y-6201000D02*
G75*
G02*
X4372000Y-6201000I-40000J0D01*
G01*
X4372000Y-6201000D02*
G75*
G02*
X4452000Y-6201000I40000J0D01*
G01*
X4452000Y-6455000D02*
G75*
G02*
X4372000Y-6455000I-40000J0D01*
G01*
X4372000Y-6455000D02*
G75*
G02*
X4452000Y-6455000I40000J0D01*
G01*
X4452000Y-6709000D02*
G75*
G02*
X4372000Y-6709000I-40000J0D01*
G01*
X4372000Y-6709000D02*
G75*
G02*
X4452000Y-6709000I40000J0D01*
G01*
X4452000Y-6963000D02*
G75*
G02*
X4372000Y-6963000I-40000J0D01*
G01*
X4372000Y-6963000D02*
G75*
G02*
X4452000Y-6963000I40000J0D01*
G01*
X4452000Y-7217000D02*
G75*
G02*
X4372000Y-7217000I-40000J0D01*
G01*
X4372000Y-7217000D02*
G75*
G02*
X4452000Y-7217000I40000J0D01*
G01*
X2289000Y-2343000D02*
X2289000Y-2443000D01*
X2239000Y-2393000D02*
X2339000Y-2393000D01*
X2289000Y-2597000D02*
X2289000Y-2697000D01*
X2239000Y-2647000D02*
X2339000Y-2647000D01*
X2289000Y-2851000D02*
X2289000Y-2951000D01*
X2239000Y-2901000D02*
X2339000Y-2901000D01*
X2289000Y-3105000D02*
X2289000Y-3205000D01*
X2239000Y-3155000D02*
X2339000Y-3155000D01*
X2289000Y-3359000D02*
X2289000Y-3459000D01*
X2239000Y-3409000D02*
X2339000Y-3409000D01*
X2289000Y-3613000D02*
X2289000Y-3713000D01*
X2239000Y-3663000D02*
X2339000Y-3663000D01*
X2289000Y-3867000D02*
X2289000Y-3967000D01*
X2239000Y-3917000D02*
X2339000Y-3917000D01*
X2289000Y-4121000D02*
X2289000Y-4221000D01*
X2239000Y-4171000D02*
X2339000Y-4171000D01*
X2289000Y-4375000D02*
X2289000Y-4475000D01*
X2239000Y-4425000D02*
X2339000Y-4425000D01*
X2289000Y-4629000D02*
X2289000Y-4729000D01*
X2239000Y-4679000D02*
X2339000Y-4679000D01*
X2289000Y-4883000D02*
X2289000Y-4983000D01*
X2239000Y-4933000D02*
X2339000Y-4933000D01*
X2289000Y-5137000D02*
X2289000Y-5237000D01*
X2239000Y-5187000D02*
X2339000Y-5187000D01*
X2289000Y-5391000D02*
X2289000Y-5491000D01*
X2239000Y-5441000D02*
X2339000Y-5441000D01*
X2289000Y-5645000D02*
X2289000Y-5745000D01*
X2239000Y-5695000D02*
X2339000Y-5695000D01*
X2289000Y-5899000D02*
X2289000Y-5999000D01*
X2239000Y-5949000D02*
X2339000Y-5949000D01*
X2289000Y-6153000D02*
X2289000Y-6253000D01*
X2239000Y-6203000D02*
X2339000Y-6203000D01*
X2289000Y-6407000D02*
X2289000Y-6507000D01*
X2239000Y-6457000D02*
X2339000Y-6457000D01*
X2289000Y-6661000D02*
X2289000Y-6761000D01*
X2239000Y-6711000D02*
X2339000Y-6711000D01*
X2289000Y-6915000D02*
X2289000Y-7015000D01*
X2239000Y-6965000D02*
X2339000Y-6965000D01*
X2289000Y-7169000D02*
X2289000Y-7269000D01*
X2239000Y-7219000D02*
X2339000Y-7219000D01*
X2540000Y-1893000D02*
X2540000Y-1993000D01*
X2490000Y-1943000D02*
X2590000Y-1943000D01*
X2543000Y-2343000D02*
X2543000Y-2443000D01*
X2493000Y-2393000D02*
X2593000Y-2393000D01*
X2543000Y-2597000D02*
X2543000Y-2697000D01*
X2493000Y-2647000D02*
X2593000Y-2647000D01*
X2543000Y-2851000D02*
X2543000Y-2951000D01*
X2493000Y-2901000D02*
X2593000Y-2901000D01*
X2543000Y-3105000D02*
X2543000Y-3205000D01*
X2493000Y-3155000D02*
X2593000Y-3155000D01*
X2543000Y-3359000D02*
X2543000Y-3459000D01*
X2493000Y-3409000D02*
X2593000Y-3409000D01*
X2543000Y-3613000D02*
X2543000Y-3713000D01*
X2493000Y-3663000D02*
X2593000Y-3663000D01*
X2543000Y-3867000D02*
X2543000Y-3967000D01*
X2493000Y-3917000D02*
X2593000Y-3917000D01*
X2543000Y-4121000D02*
X2543000Y-4221000D01*
X2493000Y-4171000D02*
X2593000Y-4171000D01*
X2543000Y-4375000D02*
X2543000Y-4475000D01*
X2493000Y-4425000D02*
X2593000Y-4425000D01*
X2543000Y-4629000D02*
X2543000Y-4729000D01*
X2493000Y-4679000D02*
X2593000Y-4679000D01*
X2543000Y-4883000D02*
X2543000Y-4983000D01*
X2493000Y-4933000D02*
X2593000Y-4933000D01*
X2543000Y-5137000D02*
X2543000Y-5237000D01*
X2493000Y-5187000D02*
X2593000Y-5187000D01*
X2543000Y-5391000D02*
X2543000Y-5491000D01*
X2493000Y-5441000D02*
X2593000Y-5441000D01*
X2543000Y-5645000D02*
X2543000Y-5745000D01*
X2493000Y-5695000D02*
X2593000Y-5695000D01*
X2543000Y-5899000D02*
X2543000Y-5999000D01*
X2493000Y-5949000D02*
X2593000Y-5949000D01*
X2543000Y-6153000D02*
X2543000Y-6253000D01*
X2493000Y-6203000D02*
X2593000Y-6203000D01*
X2543000Y-6407000D02*
X2543000Y-6507000D01*
X2493000Y-6457000D02*
X2593000Y-6457000D01*
X2543000Y-6661000D02*
X2543000Y-6761000D01*
X2493000Y-6711000D02*
X2593000Y-6711000D01*
X2543000Y-6915000D02*
X2543000Y-7015000D01*
X2493000Y-6965000D02*
X2593000Y-6965000D01*
X2543000Y-7169000D02*
X2543000Y-7269000D01*
X2493000Y-7219000D02*
X2593000Y-7219000D01*
X2794000Y-1893000D02*
X2794000Y-1993000D01*
X2744000Y-1943000D02*
X2844000Y-1943000D01*
X3048000Y-1893000D02*
X3048000Y-1993000D01*
X2998000Y-1943000D02*
X3098000Y-1943000D01*
X4866000Y-2175000D02*
X4866000Y-2275000D01*
X4816000Y-2225000D02*
X4916000Y-2225000D01*
X4866000Y-2429000D02*
X4866000Y-2529000D01*
X4816000Y-2479000D02*
X4916000Y-2479000D01*
X4866000Y-2683000D02*
X4866000Y-2783000D01*
X4816000Y-2733000D02*
X4916000Y-2733000D01*
X4866000Y-2937000D02*
X4866000Y-3037000D01*
X4816000Y-2987000D02*
X4916000Y-2987000D01*
X4866000Y-3191000D02*
X4866000Y-3291000D01*
X4816000Y-3241000D02*
X4916000Y-3241000D01*
X4891000Y-3869000D02*
X4891000Y-3969000D01*
X4841000Y-3919000D02*
X4941000Y-3919000D01*
X4891000Y-4123000D02*
X4891000Y-4223000D01*
X4841000Y-4173000D02*
X4941000Y-4173000D01*
X4891000Y-4377000D02*
X4891000Y-4477000D01*
X4841000Y-4427000D02*
X4941000Y-4427000D01*
X4969000Y-6262000D02*
X4969000Y-6362000D01*
X4919000Y-6312000D02*
X5019000Y-6312000D01*
X4969000Y-6516000D02*
X4969000Y-6616000D01*
X4919000Y-6566000D02*
X5019000Y-6566000D01*
X4969000Y-6770000D02*
X4969000Y-6870000D01*
X4919000Y-6820000D02*
X5019000Y-6820000D01*
X4969000Y-7024000D02*
X4969000Y-7124000D01*
X4919000Y-7074000D02*
X5019000Y-7074000D01*
X5234000Y-1918000D02*
X5234000Y-2018000D01*
X5184000Y-1968000D02*
X5284000Y-1968000D01*
X5234000Y-2172000D02*
X5234000Y-2272000D01*
X5184000Y-2222000D02*
X5284000Y-2222000D01*
X5234000Y-2426000D02*
X5234000Y-2526000D01*
X5184000Y-2476000D02*
X5284000Y-2476000D01*
X5234000Y-2680000D02*
X5234000Y-2780000D01*
X5184000Y-2730000D02*
X5284000Y-2730000D01*
X5234000Y-2934000D02*
X5234000Y-3034000D01*
X5184000Y-2984000D02*
X5284000Y-2984000D01*
X5598000Y-1918000D02*
X5598000Y-2018000D01*
X5548000Y-1968000D02*
X5648000Y-1968000D01*
X5598000Y-2172000D02*
X5598000Y-2272000D01*
X5548000Y-2222000D02*
X5648000Y-2222000D01*
X5598000Y-2426000D02*
X5598000Y-2526000D01*
X5548000Y-2476000D02*
X5648000Y-2476000D01*
X5598000Y-2680000D02*
X5598000Y-2780000D01*
X5548000Y-2730000D02*
X5648000Y-2730000D01*
X5598000Y-2934000D02*
X5598000Y-3034000D01*
X5548000Y-2984000D02*
X5648000Y-2984000D01*
X5961000Y-1919000D02*
X5961000Y-2019000D01*
X5911000Y-1969000D02*
X6011000Y-1969000D01*
X5961000Y-2173000D02*
X5961000Y-2273000D01*
X5911000Y-2223000D02*
X6011000Y-2223000D01*
X5961000Y-2427000D02*
X5961000Y-2527000D01*
X5911000Y-2477000D02*
X6011000Y-2477000D01*
X5961000Y-2681000D02*
X5961000Y-2781000D01*
X5911000Y-2731000D02*
X6011000Y-2731000D01*
X5961000Y-2935000D02*
X5961000Y-3035000D01*
X5911000Y-2985000D02*
X6011000Y-2985000D01*
X6323000Y-1917000D02*
X6323000Y-2017000D01*
X6273000Y-1967000D02*
X6373000Y-1967000D01*
X6323000Y-2171000D02*
X6323000Y-2271000D01*
X6273000Y-2221000D02*
X6373000Y-2221000D01*
X6323000Y-2425000D02*
X6323000Y-2525000D01*
X6273000Y-2475000D02*
X6373000Y-2475000D01*
X6323000Y-2679000D02*
X6323000Y-2779000D01*
X6273000Y-2729000D02*
X6373000Y-2729000D01*
X6323000Y-2933000D02*
X6323000Y-3033000D01*
X6273000Y-2983000D02*
X6373000Y-2983000D01*
X6728000Y-2170000D02*
X6728000Y-2270000D01*
X6678000Y-2220000D02*
X6778000Y-2220000D01*
X6728000Y-2424000D02*
X6728000Y-2524000D01*
X6678000Y-2474000D02*
X6778000Y-2474000D01*
X6728000Y-2678000D02*
X6728000Y-2778000D01*
X6678000Y-2728000D02*
X6778000Y-2728000D01*
X7074000Y-3884000D02*
X7074000Y-3984000D01*
X7024000Y-3934000D02*
X7124000Y-3934000D01*
X7074000Y-4138000D02*
X7074000Y-4238000D01*
X7024000Y-4188000D02*
X7124000Y-4188000D01*
X7074000Y-4392000D02*
X7074000Y-4492000D01*
X7024000Y-4442000D02*
X7124000Y-4442000D01*
X7088000Y-2170000D02*
X7088000Y-2270000D01*
X7038000Y-2220000D02*
X7138000Y-2220000D01*
X7088000Y-2424000D02*
X7088000Y-2524000D01*
X7038000Y-2474000D02*
X7138000Y-2474000D01*
X7088000Y-2678000D02*
X7088000Y-2778000D01*
X7038000Y-2728000D02*
X7138000Y-2728000D01*
X7450000Y-3882000D02*
X7450000Y-3982000D01*
X7400000Y-3932000D02*
X7500000Y-3932000D01*
X7450000Y-4136000D02*
X7450000Y-4236000D01*
X7400000Y-4186000D02*
X7500000Y-4186000D01*
X7450000Y-4390000D02*
X7450000Y-4490000D01*
X7400000Y-4440000D02*
X7500000Y-4440000D01*
X7452000Y-2170000D02*
X7452000Y-2270000D01*
X7402000Y-2220000D02*
X7502000Y-2220000D01*
X7452000Y-2424000D02*
X7452000Y-2524000D01*
X7402000Y-2474000D02*
X7502000Y-2474000D01*
X7452000Y-2678000D02*
X7452000Y-2778000D01*
X7402000Y-2728000D02*
X7502000Y-2728000D01*
X7456000Y-6816000D02*
X7456000Y-6916000D01*
X7406000Y-6866000D02*
X7506000Y-6866000D01*
X7456000Y-7070000D02*
X7456000Y-7170000D01*
X7406000Y-7120000D02*
X7506000Y-7120000D01*
X7456000Y-7324000D02*
X7456000Y-7424000D01*
X7406000Y-7374000D02*
X7506000Y-7374000D01*
X7456000Y-7578000D02*
X7456000Y-7678000D01*
X7406000Y-7628000D02*
X7506000Y-7628000D01*
X7456000Y-7832000D02*
X7456000Y-7932000D01*
X7406000Y-7882000D02*
X7506000Y-7882000D01*
X7456000Y-8086000D02*
X7456000Y-8186000D01*
X7406000Y-8136000D02*
X7506000Y-8136000D01*
X7456000Y-8340000D02*
X7456000Y-8440000D01*
X7406000Y-8390000D02*
X7506000Y-8390000D01*
X7457000Y-4934000D02*
X7457000Y-5034000D01*
X7407000Y-4984000D02*
X7507000Y-4984000D01*
X7457000Y-5188000D02*
X7457000Y-5288000D01*
X7407000Y-5238000D02*
X7507000Y-5238000D01*
X7457000Y-5442000D02*
X7457000Y-5542000D01*
X7407000Y-5492000D02*
X7507000Y-5492000D01*
X7457000Y-5696000D02*
X7457000Y-5796000D01*
X7407000Y-5746000D02*
X7507000Y-5746000D01*
X7457000Y-5950000D02*
X7457000Y-6050000D01*
X7407000Y-6000000D02*
X7507000Y-6000000D01*
X7457000Y-6204000D02*
X7457000Y-6304000D01*
X7407000Y-6254000D02*
X7507000Y-6254000D01*
X7457000Y-6458000D02*
X7457000Y-6558000D01*
X7407000Y-6508000D02*
X7507000Y-6508000D01*
D11*
X2273277Y-8908984D02*
X2273277Y-8708984D01*
X2273277Y-8708984D02*
X2320896Y-8708984D01*
X2320896Y-8708984D02*
X2349467Y-8718508D01*
X2349467Y-8718508D02*
X2368515Y-8737555D01*
X2368515Y-8737555D02*
X2378039Y-8756603D01*
X2378039Y-8756603D02*
X2387563Y-8794698D01*
X2387563Y-8794698D02*
X2387563Y-8823270D01*
X2387563Y-8823270D02*
X2378039Y-8861365D01*
X2378039Y-8861365D02*
X2368515Y-8880412D01*
X2368515Y-8880412D02*
X2349467Y-8899460D01*
X2349467Y-8899460D02*
X2320896Y-8908984D01*
X2320896Y-8908984D02*
X2273277Y-8908984D01*
X2473277Y-8908984D02*
X2473277Y-8775650D01*
X2473277Y-8813746D02*
X2482801Y-8794698D01*
X2482801Y-8794698D02*
X2492324Y-8785174D01*
X2492324Y-8785174D02*
X2511372Y-8775650D01*
X2511372Y-8775650D02*
X2530420Y-8775650D01*
X2597086Y-8908984D02*
X2597086Y-8775650D01*
X2597086Y-8708984D02*
X2587563Y-8718508D01*
X2587563Y-8718508D02*
X2597086Y-8728031D01*
X2597086Y-8728031D02*
X2606610Y-8718508D01*
X2606610Y-8718508D02*
X2597086Y-8708984D01*
X2597086Y-8708984D02*
X2597086Y-8728031D01*
X2720896Y-8908984D02*
X2701848Y-8899460D01*
X2701848Y-8899460D02*
X2692324Y-8880412D01*
X2692324Y-8880412D02*
X2692324Y-8708984D01*
X2825658Y-8908984D02*
X2806610Y-8899460D01*
X2806610Y-8899460D02*
X2797086Y-8880412D01*
X2797086Y-8880412D02*
X2797086Y-8708984D01*
X3054229Y-8908984D02*
X3054229Y-8708984D01*
X3054229Y-8708984D02*
X3120896Y-8851841D01*
X3120896Y-8851841D02*
X3187562Y-8708984D01*
X3187562Y-8708984D02*
X3187562Y-8908984D01*
X3368515Y-8908984D02*
X3368515Y-8804222D01*
X3368515Y-8804222D02*
X3358991Y-8785174D01*
X3358991Y-8785174D02*
X3339943Y-8775650D01*
X3339943Y-8775650D02*
X3301848Y-8775650D01*
X3301848Y-8775650D02*
X3282801Y-8785174D01*
X3368515Y-8899460D02*
X3349467Y-8908984D01*
X3349467Y-8908984D02*
X3301848Y-8908984D01*
X3301848Y-8908984D02*
X3282801Y-8899460D01*
X3282801Y-8899460D02*
X3273277Y-8880412D01*
X3273277Y-8880412D02*
X3273277Y-8861365D01*
X3273277Y-8861365D02*
X3282801Y-8842317D01*
X3282801Y-8842317D02*
X3301848Y-8832793D01*
X3301848Y-8832793D02*
X3349467Y-8832793D01*
X3349467Y-8832793D02*
X3368515Y-8823270D01*
X3463753Y-8775650D02*
X3463753Y-8975650D01*
X3463753Y-8785174D02*
X3482801Y-8775650D01*
X3482801Y-8775650D02*
X3520896Y-8775650D01*
X3520896Y-8775650D02*
X3539943Y-8785174D01*
X3539943Y-8785174D02*
X3549467Y-8794698D01*
X3549467Y-8794698D02*
X3558991Y-8813746D01*
X3558991Y-8813746D02*
X3558991Y-8870889D01*
X3558991Y-8870889D02*
X3549467Y-8889936D01*
X3549467Y-8889936D02*
X3539943Y-8899460D01*
X3539943Y-8899460D02*
X3520896Y-8908984D01*
X3520896Y-8908984D02*
X3482801Y-8908984D01*
X3482801Y-8908984D02*
X3463753Y-8899460D01*
X3644705Y-8889936D02*
X3654229Y-8899460D01*
X3654229Y-8899460D02*
X3644705Y-8908984D01*
X3644705Y-8908984D02*
X3635182Y-8899460D01*
X3635182Y-8899460D02*
X3644705Y-8889936D01*
X3644705Y-8889936D02*
X3644705Y-8908984D01*
X3644705Y-8785174D02*
X3654229Y-8794698D01*
X3654229Y-8794698D02*
X3644705Y-8804222D01*
X3644705Y-8804222D02*
X3635182Y-8794698D01*
X3635182Y-8794698D02*
X3644705Y-8785174D01*
X3644705Y-8785174D02*
X3644705Y-8804222D01*
D12*
X1982500Y-9222500D02*
X2012500Y-9252500D01*
X2012500Y-9222500D02*
X1982500Y-9252500D01*
D11*
X2311372Y-9128984D02*
X2330420Y-9128984D01*
X2330420Y-9128984D02*
X2349467Y-9138508D01*
X2349467Y-9138508D02*
X2358991Y-9148031D01*
X2358991Y-9148031D02*
X2368515Y-9167079D01*
X2368515Y-9167079D02*
X2378039Y-9205174D01*
X2378039Y-9205174D02*
X2378039Y-9252793D01*
X2378039Y-9252793D02*
X2368515Y-9290889D01*
X2368515Y-9290889D02*
X2358991Y-9309936D01*
X2358991Y-9309936D02*
X2349467Y-9319460D01*
X2349467Y-9319460D02*
X2330420Y-9328984D01*
X2330420Y-9328984D02*
X2311372Y-9328984D01*
X2311372Y-9328984D02*
X2292324Y-9319460D01*
X2292324Y-9319460D02*
X2282801Y-9309936D01*
X2282801Y-9309936D02*
X2273277Y-9290889D01*
X2273277Y-9290889D02*
X2263753Y-9252793D01*
X2263753Y-9252793D02*
X2263753Y-9205174D01*
X2263753Y-9205174D02*
X2273277Y-9167079D01*
X2273277Y-9167079D02*
X2282801Y-9148031D01*
X2282801Y-9148031D02*
X2292324Y-9138508D01*
X2292324Y-9138508D02*
X2311372Y-9128984D01*
X2463753Y-9309936D02*
X2473277Y-9319460D01*
X2473277Y-9319460D02*
X2463753Y-9328984D01*
X2463753Y-9328984D02*
X2454229Y-9319460D01*
X2454229Y-9319460D02*
X2463753Y-9309936D01*
X2463753Y-9309936D02*
X2463753Y-9328984D01*
X2539944Y-9128984D02*
X2663753Y-9128984D01*
X2663753Y-9128984D02*
X2597086Y-9205174D01*
X2597086Y-9205174D02*
X2625658Y-9205174D01*
X2625658Y-9205174D02*
X2644705Y-9214698D01*
X2644705Y-9214698D02*
X2654229Y-9224222D01*
X2654229Y-9224222D02*
X2663753Y-9243270D01*
X2663753Y-9243270D02*
X2663753Y-9290889D01*
X2663753Y-9290889D02*
X2654229Y-9309936D01*
X2654229Y-9309936D02*
X2644705Y-9319460D01*
X2644705Y-9319460D02*
X2625658Y-9328984D01*
X2625658Y-9328984D02*
X2568515Y-9328984D01*
X2568515Y-9328984D02*
X2549467Y-9319460D01*
X2549467Y-9319460D02*
X2539944Y-9309936D01*
X2787563Y-9128984D02*
X2806610Y-9128984D01*
X2806610Y-9128984D02*
X2825658Y-9138508D01*
X2825658Y-9138508D02*
X2835182Y-9148031D01*
X2835182Y-9148031D02*
X2844705Y-9167079D01*
X2844705Y-9167079D02*
X2854229Y-9205174D01*
X2854229Y-9205174D02*
X2854229Y-9252793D01*
X2854229Y-9252793D02*
X2844705Y-9290889D01*
X2844705Y-9290889D02*
X2835182Y-9309936D01*
X2835182Y-9309936D02*
X2825658Y-9319460D01*
X2825658Y-9319460D02*
X2806610Y-9328984D01*
X2806610Y-9328984D02*
X2787563Y-9328984D01*
X2787563Y-9328984D02*
X2768515Y-9319460D01*
X2768515Y-9319460D02*
X2758991Y-9309936D01*
X2758991Y-9309936D02*
X2749467Y-9290889D01*
X2749467Y-9290889D02*
X2739944Y-9252793D01*
X2739944Y-9252793D02*
X2739944Y-9205174D01*
X2739944Y-9205174D02*
X2749467Y-9167079D01*
X2749467Y-9167079D02*
X2758991Y-9148031D01*
X2758991Y-9148031D02*
X2768515Y-9138508D01*
X2768515Y-9138508D02*
X2787563Y-9128984D01*
X2978039Y-9128984D02*
X2997086Y-9128984D01*
X2997086Y-9128984D02*
X3016134Y-9138508D01*
X3016134Y-9138508D02*
X3025658Y-9148031D01*
X3025658Y-9148031D02*
X3035182Y-9167079D01*
X3035182Y-9167079D02*
X3044705Y-9205174D01*
X3044705Y-9205174D02*
X3044705Y-9252793D01*
X3044705Y-9252793D02*
X3035182Y-9290889D01*
X3035182Y-9290889D02*
X3025658Y-9309936D01*
X3025658Y-9309936D02*
X3016134Y-9319460D01*
X3016134Y-9319460D02*
X2997086Y-9328984D01*
X2997086Y-9328984D02*
X2978039Y-9328984D01*
X2978039Y-9328984D02*
X2958991Y-9319460D01*
X2958991Y-9319460D02*
X2949467Y-9309936D01*
X2949467Y-9309936D02*
X2939943Y-9290889D01*
X2939943Y-9290889D02*
X2930420Y-9252793D01*
X2930420Y-9252793D02*
X2930420Y-9205174D01*
X2930420Y-9205174D02*
X2939943Y-9167079D01*
X2939943Y-9167079D02*
X2949467Y-9148031D01*
X2949467Y-9148031D02*
X2958991Y-9138508D01*
X2958991Y-9138508D02*
X2978039Y-9128984D01*
X3130420Y-9328984D02*
X3130420Y-9195650D01*
X3130420Y-9214698D02*
X3139943Y-9205174D01*
X3139943Y-9205174D02*
X3158991Y-9195650D01*
X3158991Y-9195650D02*
X3187563Y-9195650D01*
X3187563Y-9195650D02*
X3206610Y-9205174D01*
X3206610Y-9205174D02*
X3216134Y-9224222D01*
X3216134Y-9224222D02*
X3216134Y-9328984D01*
X3216134Y-9224222D02*
X3225658Y-9205174D01*
X3225658Y-9205174D02*
X3244705Y-9195650D01*
X3244705Y-9195650D02*
X3273277Y-9195650D01*
X3273277Y-9195650D02*
X3292324Y-9205174D01*
X3292324Y-9205174D02*
X3301848Y-9224222D01*
X3301848Y-9224222D02*
X3301848Y-9328984D01*
X3397086Y-9328984D02*
X3397086Y-9195650D01*
X3397086Y-9214698D02*
X3406610Y-9205174D01*
X3406610Y-9205174D02*
X3425658Y-9195650D01*
X3425658Y-9195650D02*
X3454229Y-9195650D01*
X3454229Y-9195650D02*
X3473277Y-9205174D01*
X3473277Y-9205174D02*
X3482801Y-9224222D01*
X3482801Y-9224222D02*
X3482801Y-9328984D01*
X3482801Y-9224222D02*
X3492324Y-9205174D01*
X3492324Y-9205174D02*
X3511372Y-9195650D01*
X3511372Y-9195650D02*
X3539943Y-9195650D01*
X3539943Y-9195650D02*
X3558991Y-9205174D01*
X3558991Y-9205174D02*
X3568515Y-9224222D01*
X3568515Y-9224222D02*
X3568515Y-9328984D01*
X3958991Y-9119460D02*
X3787563Y-9376603D01*
X4216134Y-9128984D02*
X4235182Y-9128984D01*
X4235182Y-9128984D02*
X4254229Y-9138508D01*
X4254229Y-9138508D02*
X4263753Y-9148031D01*
X4263753Y-9148031D02*
X4273277Y-9167079D01*
X4273277Y-9167079D02*
X4282801Y-9205174D01*
X4282801Y-9205174D02*
X4282801Y-9252793D01*
X4282801Y-9252793D02*
X4273277Y-9290889D01*
X4273277Y-9290889D02*
X4263753Y-9309936D01*
X4263753Y-9309936D02*
X4254229Y-9319460D01*
X4254229Y-9319460D02*
X4235182Y-9328984D01*
X4235182Y-9328984D02*
X4216134Y-9328984D01*
X4216134Y-9328984D02*
X4197087Y-9319460D01*
X4197087Y-9319460D02*
X4187563Y-9309936D01*
X4187563Y-9309936D02*
X4178039Y-9290889D01*
X4178039Y-9290889D02*
X4168515Y-9252793D01*
X4168515Y-9252793D02*
X4168515Y-9205174D01*
X4168515Y-9205174D02*
X4178039Y-9167079D01*
X4178039Y-9167079D02*
X4187563Y-9148031D01*
X4187563Y-9148031D02*
X4197087Y-9138508D01*
X4197087Y-9138508D02*
X4216134Y-9128984D01*
X4368515Y-9309936D02*
X4378039Y-9319460D01*
X4378039Y-9319460D02*
X4368515Y-9328984D01*
X4368515Y-9328984D02*
X4358991Y-9319460D01*
X4358991Y-9319460D02*
X4368515Y-9309936D01*
X4368515Y-9309936D02*
X4368515Y-9328984D01*
X4501848Y-9128984D02*
X4520896Y-9128984D01*
X4520896Y-9128984D02*
X4539944Y-9138508D01*
X4539944Y-9138508D02*
X4549468Y-9148031D01*
X4549468Y-9148031D02*
X4558991Y-9167079D01*
X4558991Y-9167079D02*
X4568515Y-9205174D01*
X4568515Y-9205174D02*
X4568515Y-9252793D01*
X4568515Y-9252793D02*
X4558991Y-9290889D01*
X4558991Y-9290889D02*
X4549468Y-9309936D01*
X4549468Y-9309936D02*
X4539944Y-9319460D01*
X4539944Y-9319460D02*
X4520896Y-9328984D01*
X4520896Y-9328984D02*
X4501848Y-9328984D01*
X4501848Y-9328984D02*
X4482801Y-9319460D01*
X4482801Y-9319460D02*
X4473277Y-9309936D01*
X4473277Y-9309936D02*
X4463753Y-9290889D01*
X4463753Y-9290889D02*
X4454229Y-9252793D01*
X4454229Y-9252793D02*
X4454229Y-9205174D01*
X4454229Y-9205174D02*
X4463753Y-9167079D01*
X4463753Y-9167079D02*
X4473277Y-9148031D01*
X4473277Y-9148031D02*
X4482801Y-9138508D01*
X4482801Y-9138508D02*
X4501848Y-9128984D01*
X4758991Y-9328984D02*
X4644706Y-9328984D01*
X4701848Y-9328984D02*
X4701848Y-9128984D01*
X4701848Y-9128984D02*
X4682801Y-9157555D01*
X4682801Y-9157555D02*
X4663753Y-9176603D01*
X4663753Y-9176603D02*
X4644706Y-9186127D01*
X4949468Y-9328984D02*
X4835182Y-9328984D01*
X4892325Y-9328984D02*
X4892325Y-9128984D01*
X4892325Y-9128984D02*
X4873277Y-9157555D01*
X4873277Y-9157555D02*
X4854229Y-9176603D01*
X4854229Y-9176603D02*
X4835182Y-9186127D01*
X5063753Y-9214698D02*
X5044706Y-9205174D01*
X5044706Y-9205174D02*
X5035182Y-9195650D01*
X5035182Y-9195650D02*
X5025658Y-9176603D01*
X5025658Y-9176603D02*
X5025658Y-9167079D01*
X5025658Y-9167079D02*
X5035182Y-9148031D01*
X5035182Y-9148031D02*
X5044706Y-9138508D01*
X5044706Y-9138508D02*
X5063753Y-9128984D01*
X5063753Y-9128984D02*
X5101849Y-9128984D01*
X5101849Y-9128984D02*
X5120896Y-9138508D01*
X5120896Y-9138508D02*
X5130420Y-9148031D01*
X5130420Y-9148031D02*
X5139944Y-9167079D01*
X5139944Y-9167079D02*
X5139944Y-9176603D01*
X5139944Y-9176603D02*
X5130420Y-9195650D01*
X5130420Y-9195650D02*
X5120896Y-9205174D01*
X5120896Y-9205174D02*
X5101849Y-9214698D01*
X5101849Y-9214698D02*
X5063753Y-9214698D01*
X5063753Y-9214698D02*
X5044706Y-9224222D01*
X5044706Y-9224222D02*
X5035182Y-9233746D01*
X5035182Y-9233746D02*
X5025658Y-9252793D01*
X5025658Y-9252793D02*
X5025658Y-9290889D01*
X5025658Y-9290889D02*
X5035182Y-9309936D01*
X5035182Y-9309936D02*
X5044706Y-9319460D01*
X5044706Y-9319460D02*
X5063753Y-9328984D01*
X5063753Y-9328984D02*
X5101849Y-9328984D01*
X5101849Y-9328984D02*
X5120896Y-9319460D01*
X5120896Y-9319460D02*
X5130420Y-9309936D01*
X5130420Y-9309936D02*
X5139944Y-9290889D01*
X5139944Y-9290889D02*
X5139944Y-9252793D01*
X5139944Y-9252793D02*
X5130420Y-9233746D01*
X5130420Y-9233746D02*
X5120896Y-9224222D01*
X5120896Y-9224222D02*
X5101849Y-9214698D01*
X5216134Y-9128984D02*
X5216134Y-9167079D01*
X5292325Y-9128984D02*
X5292325Y-9167079D01*
X5587563Y-9405174D02*
X5578039Y-9395650D01*
X5578039Y-9395650D02*
X5558991Y-9367079D01*
X5558991Y-9367079D02*
X5549468Y-9348031D01*
X5549468Y-9348031D02*
X5539944Y-9319460D01*
X5539944Y-9319460D02*
X5530420Y-9271841D01*
X5530420Y-9271841D02*
X5530420Y-9233746D01*
X5530420Y-9233746D02*
X5539944Y-9186127D01*
X5539944Y-9186127D02*
X5549468Y-9157555D01*
X5549468Y-9157555D02*
X5558991Y-9138508D01*
X5558991Y-9138508D02*
X5578039Y-9109936D01*
X5578039Y-9109936D02*
X5587563Y-9100412D01*
X5692325Y-9214698D02*
X5673277Y-9205174D01*
X5673277Y-9205174D02*
X5663753Y-9195650D01*
X5663753Y-9195650D02*
X5654229Y-9176603D01*
X5654229Y-9176603D02*
X5654229Y-9167079D01*
X5654229Y-9167079D02*
X5663753Y-9148031D01*
X5663753Y-9148031D02*
X5673277Y-9138508D01*
X5673277Y-9138508D02*
X5692325Y-9128984D01*
X5692325Y-9128984D02*
X5730420Y-9128984D01*
X5730420Y-9128984D02*
X5749468Y-9138508D01*
X5749468Y-9138508D02*
X5758991Y-9148031D01*
X5758991Y-9148031D02*
X5768515Y-9167079D01*
X5768515Y-9167079D02*
X5768515Y-9176603D01*
X5768515Y-9176603D02*
X5758991Y-9195650D01*
X5758991Y-9195650D02*
X5749468Y-9205174D01*
X5749468Y-9205174D02*
X5730420Y-9214698D01*
X5730420Y-9214698D02*
X5692325Y-9214698D01*
X5692325Y-9214698D02*
X5673277Y-9224222D01*
X5673277Y-9224222D02*
X5663753Y-9233746D01*
X5663753Y-9233746D02*
X5654229Y-9252793D01*
X5654229Y-9252793D02*
X5654229Y-9290889D01*
X5654229Y-9290889D02*
X5663753Y-9309936D01*
X5663753Y-9309936D02*
X5673277Y-9319460D01*
X5673277Y-9319460D02*
X5692325Y-9328984D01*
X5692325Y-9328984D02*
X5730420Y-9328984D01*
X5730420Y-9328984D02*
X5749468Y-9319460D01*
X5749468Y-9319460D02*
X5758991Y-9309936D01*
X5758991Y-9309936D02*
X5768515Y-9290889D01*
X5768515Y-9290889D02*
X5768515Y-9252793D01*
X5768515Y-9252793D02*
X5758991Y-9233746D01*
X5758991Y-9233746D02*
X5749468Y-9224222D01*
X5749468Y-9224222D02*
X5730420Y-9214698D01*
X5882801Y-9214698D02*
X5863753Y-9205174D01*
X5863753Y-9205174D02*
X5854229Y-9195650D01*
X5854229Y-9195650D02*
X5844706Y-9176603D01*
X5844706Y-9176603D02*
X5844706Y-9167079D01*
X5844706Y-9167079D02*
X5854229Y-9148031D01*
X5854229Y-9148031D02*
X5863753Y-9138508D01*
X5863753Y-9138508D02*
X5882801Y-9128984D01*
X5882801Y-9128984D02*
X5920896Y-9128984D01*
X5920896Y-9128984D02*
X5939944Y-9138508D01*
X5939944Y-9138508D02*
X5949468Y-9148031D01*
X5949468Y-9148031D02*
X5958991Y-9167079D01*
X5958991Y-9167079D02*
X5958991Y-9176603D01*
X5958991Y-9176603D02*
X5949468Y-9195650D01*
X5949468Y-9195650D02*
X5939944Y-9205174D01*
X5939944Y-9205174D02*
X5920896Y-9214698D01*
X5920896Y-9214698D02*
X5882801Y-9214698D01*
X5882801Y-9214698D02*
X5863753Y-9224222D01*
X5863753Y-9224222D02*
X5854229Y-9233746D01*
X5854229Y-9233746D02*
X5844706Y-9252793D01*
X5844706Y-9252793D02*
X5844706Y-9290889D01*
X5844706Y-9290889D02*
X5854229Y-9309936D01*
X5854229Y-9309936D02*
X5863753Y-9319460D01*
X5863753Y-9319460D02*
X5882801Y-9328984D01*
X5882801Y-9328984D02*
X5920896Y-9328984D01*
X5920896Y-9328984D02*
X5939944Y-9319460D01*
X5939944Y-9319460D02*
X5949468Y-9309936D01*
X5949468Y-9309936D02*
X5958991Y-9290889D01*
X5958991Y-9290889D02*
X5958991Y-9252793D01*
X5958991Y-9252793D02*
X5949468Y-9233746D01*
X5949468Y-9233746D02*
X5939944Y-9224222D01*
X5939944Y-9224222D02*
X5920896Y-9214698D01*
X6197087Y-9328984D02*
X6197087Y-9128984D01*
X6282801Y-9328984D02*
X6282801Y-9224222D01*
X6282801Y-9224222D02*
X6273277Y-9205174D01*
X6273277Y-9205174D02*
X6254230Y-9195650D01*
X6254230Y-9195650D02*
X6225658Y-9195650D01*
X6225658Y-9195650D02*
X6206610Y-9205174D01*
X6206610Y-9205174D02*
X6197087Y-9214698D01*
X6406610Y-9328984D02*
X6387563Y-9319460D01*
X6387563Y-9319460D02*
X6378039Y-9309936D01*
X6378039Y-9309936D02*
X6368515Y-9290889D01*
X6368515Y-9290889D02*
X6368515Y-9233746D01*
X6368515Y-9233746D02*
X6378039Y-9214698D01*
X6378039Y-9214698D02*
X6387563Y-9205174D01*
X6387563Y-9205174D02*
X6406610Y-9195650D01*
X6406610Y-9195650D02*
X6435182Y-9195650D01*
X6435182Y-9195650D02*
X6454230Y-9205174D01*
X6454230Y-9205174D02*
X6463753Y-9214698D01*
X6463753Y-9214698D02*
X6473277Y-9233746D01*
X6473277Y-9233746D02*
X6473277Y-9290889D01*
X6473277Y-9290889D02*
X6463753Y-9309936D01*
X6463753Y-9309936D02*
X6454230Y-9319460D01*
X6454230Y-9319460D02*
X6435182Y-9328984D01*
X6435182Y-9328984D02*
X6406610Y-9328984D01*
X6587563Y-9328984D02*
X6568515Y-9319460D01*
X6568515Y-9319460D02*
X6558991Y-9300412D01*
X6558991Y-9300412D02*
X6558991Y-9128984D01*
X6739944Y-9319460D02*
X6720896Y-9328984D01*
X6720896Y-9328984D02*
X6682801Y-9328984D01*
X6682801Y-9328984D02*
X6663753Y-9319460D01*
X6663753Y-9319460D02*
X6654230Y-9300412D01*
X6654230Y-9300412D02*
X6654230Y-9224222D01*
X6654230Y-9224222D02*
X6663753Y-9205174D01*
X6663753Y-9205174D02*
X6682801Y-9195650D01*
X6682801Y-9195650D02*
X6720896Y-9195650D01*
X6720896Y-9195650D02*
X6739944Y-9205174D01*
X6739944Y-9205174D02*
X6749468Y-9224222D01*
X6749468Y-9224222D02*
X6749468Y-9243270D01*
X6749468Y-9243270D02*
X6654230Y-9262317D01*
X6825658Y-9319460D02*
X6844706Y-9328984D01*
X6844706Y-9328984D02*
X6882801Y-9328984D01*
X6882801Y-9328984D02*
X6901849Y-9319460D01*
X6901849Y-9319460D02*
X6911372Y-9300412D01*
X6911372Y-9300412D02*
X6911372Y-9290889D01*
X6911372Y-9290889D02*
X6901849Y-9271841D01*
X6901849Y-9271841D02*
X6882801Y-9262317D01*
X6882801Y-9262317D02*
X6854230Y-9262317D01*
X6854230Y-9262317D02*
X6835182Y-9252793D01*
X6835182Y-9252793D02*
X6825658Y-9233746D01*
X6825658Y-9233746D02*
X6825658Y-9224222D01*
X6825658Y-9224222D02*
X6835182Y-9205174D01*
X6835182Y-9205174D02*
X6854230Y-9195650D01*
X6854230Y-9195650D02*
X6882801Y-9195650D01*
X6882801Y-9195650D02*
X6901849Y-9205174D01*
X6978039Y-9405174D02*
X6987563Y-9395650D01*
X6987563Y-9395650D02*
X7006611Y-9367079D01*
X7006611Y-9367079D02*
X7016134Y-9348031D01*
X7016134Y-9348031D02*
X7025658Y-9319460D01*
X7025658Y-9319460D02*
X7035182Y-9271841D01*
X7035182Y-9271841D02*
X7035182Y-9233746D01*
X7035182Y-9233746D02*
X7025658Y-9186127D01*
X7025658Y-9186127D02*
X7016134Y-9157555D01*
X7016134Y-9157555D02*
X7006611Y-9138508D01*
X7006611Y-9138508D02*
X6987563Y-9109936D01*
X6987563Y-9109936D02*
X6978039Y-9100412D01*
D12*
X2012500Y-9501500D02*
G75*
G02*
X1932500Y-9501500I-40000J0D01*
G01*
X1932500Y-9501500D02*
G75*
G02*
X2012500Y-9501500I40000J0D01*
G01*
D11*
X2311372Y-9392984D02*
X2330420Y-9392984D01*
X2330420Y-9392984D02*
X2349467Y-9402508D01*
X2349467Y-9402508D02*
X2358991Y-9412031D01*
X2358991Y-9412031D02*
X2368515Y-9431079D01*
X2368515Y-9431079D02*
X2378039Y-9469174D01*
X2378039Y-9469174D02*
X2378039Y-9516793D01*
X2378039Y-9516793D02*
X2368515Y-9554889D01*
X2368515Y-9554889D02*
X2358991Y-9573936D01*
X2358991Y-9573936D02*
X2349467Y-9583460D01*
X2349467Y-9583460D02*
X2330420Y-9592984D01*
X2330420Y-9592984D02*
X2311372Y-9592984D01*
X2311372Y-9592984D02*
X2292324Y-9583460D01*
X2292324Y-9583460D02*
X2282801Y-9573936D01*
X2282801Y-9573936D02*
X2273277Y-9554889D01*
X2273277Y-9554889D02*
X2263753Y-9516793D01*
X2263753Y-9516793D02*
X2263753Y-9469174D01*
X2263753Y-9469174D02*
X2273277Y-9431079D01*
X2273277Y-9431079D02*
X2282801Y-9412031D01*
X2282801Y-9412031D02*
X2292324Y-9402508D01*
X2292324Y-9402508D02*
X2311372Y-9392984D01*
X2463753Y-9573936D02*
X2473277Y-9583460D01*
X2473277Y-9583460D02*
X2463753Y-9592984D01*
X2463753Y-9592984D02*
X2454229Y-9583460D01*
X2454229Y-9583460D02*
X2463753Y-9573936D01*
X2463753Y-9573936D02*
X2463753Y-9592984D01*
X2587563Y-9478698D02*
X2568515Y-9469174D01*
X2568515Y-9469174D02*
X2558991Y-9459650D01*
X2558991Y-9459650D02*
X2549467Y-9440603D01*
X2549467Y-9440603D02*
X2549467Y-9431079D01*
X2549467Y-9431079D02*
X2558991Y-9412031D01*
X2558991Y-9412031D02*
X2568515Y-9402508D01*
X2568515Y-9402508D02*
X2587563Y-9392984D01*
X2587563Y-9392984D02*
X2625658Y-9392984D01*
X2625658Y-9392984D02*
X2644705Y-9402508D01*
X2644705Y-9402508D02*
X2654229Y-9412031D01*
X2654229Y-9412031D02*
X2663753Y-9431079D01*
X2663753Y-9431079D02*
X2663753Y-9440603D01*
X2663753Y-9440603D02*
X2654229Y-9459650D01*
X2654229Y-9459650D02*
X2644705Y-9469174D01*
X2644705Y-9469174D02*
X2625658Y-9478698D01*
X2625658Y-9478698D02*
X2587563Y-9478698D01*
X2587563Y-9478698D02*
X2568515Y-9488222D01*
X2568515Y-9488222D02*
X2558991Y-9497746D01*
X2558991Y-9497746D02*
X2549467Y-9516793D01*
X2549467Y-9516793D02*
X2549467Y-9554889D01*
X2549467Y-9554889D02*
X2558991Y-9573936D01*
X2558991Y-9573936D02*
X2568515Y-9583460D01*
X2568515Y-9583460D02*
X2587563Y-9592984D01*
X2587563Y-9592984D02*
X2625658Y-9592984D01*
X2625658Y-9592984D02*
X2644705Y-9583460D01*
X2644705Y-9583460D02*
X2654229Y-9573936D01*
X2654229Y-9573936D02*
X2663753Y-9554889D01*
X2663753Y-9554889D02*
X2663753Y-9516793D01*
X2663753Y-9516793D02*
X2654229Y-9497746D01*
X2654229Y-9497746D02*
X2644705Y-9488222D01*
X2644705Y-9488222D02*
X2625658Y-9478698D01*
X2787563Y-9392984D02*
X2806610Y-9392984D01*
X2806610Y-9392984D02*
X2825658Y-9402508D01*
X2825658Y-9402508D02*
X2835182Y-9412031D01*
X2835182Y-9412031D02*
X2844705Y-9431079D01*
X2844705Y-9431079D02*
X2854229Y-9469174D01*
X2854229Y-9469174D02*
X2854229Y-9516793D01*
X2854229Y-9516793D02*
X2844705Y-9554889D01*
X2844705Y-9554889D02*
X2835182Y-9573936D01*
X2835182Y-9573936D02*
X2825658Y-9583460D01*
X2825658Y-9583460D02*
X2806610Y-9592984D01*
X2806610Y-9592984D02*
X2787563Y-9592984D01*
X2787563Y-9592984D02*
X2768515Y-9583460D01*
X2768515Y-9583460D02*
X2758991Y-9573936D01*
X2758991Y-9573936D02*
X2749467Y-9554889D01*
X2749467Y-9554889D02*
X2739944Y-9516793D01*
X2739944Y-9516793D02*
X2739944Y-9469174D01*
X2739944Y-9469174D02*
X2749467Y-9431079D01*
X2749467Y-9431079D02*
X2758991Y-9412031D01*
X2758991Y-9412031D02*
X2768515Y-9402508D01*
X2768515Y-9402508D02*
X2787563Y-9392984D01*
X2978039Y-9392984D02*
X2997086Y-9392984D01*
X2997086Y-9392984D02*
X3016134Y-9402508D01*
X3016134Y-9402508D02*
X3025658Y-9412031D01*
X3025658Y-9412031D02*
X3035182Y-9431079D01*
X3035182Y-9431079D02*
X3044705Y-9469174D01*
X3044705Y-9469174D02*
X3044705Y-9516793D01*
X3044705Y-9516793D02*
X3035182Y-9554889D01*
X3035182Y-9554889D02*
X3025658Y-9573936D01*
X3025658Y-9573936D02*
X3016134Y-9583460D01*
X3016134Y-9583460D02*
X2997086Y-9592984D01*
X2997086Y-9592984D02*
X2978039Y-9592984D01*
X2978039Y-9592984D02*
X2958991Y-9583460D01*
X2958991Y-9583460D02*
X2949467Y-9573936D01*
X2949467Y-9573936D02*
X2939943Y-9554889D01*
X2939943Y-9554889D02*
X2930420Y-9516793D01*
X2930420Y-9516793D02*
X2930420Y-9469174D01*
X2930420Y-9469174D02*
X2939943Y-9431079D01*
X2939943Y-9431079D02*
X2949467Y-9412031D01*
X2949467Y-9412031D02*
X2958991Y-9402508D01*
X2958991Y-9402508D02*
X2978039Y-9392984D01*
X3130420Y-9592984D02*
X3130420Y-9459650D01*
X3130420Y-9478698D02*
X3139943Y-9469174D01*
X3139943Y-9469174D02*
X3158991Y-9459650D01*
X3158991Y-9459650D02*
X3187563Y-9459650D01*
X3187563Y-9459650D02*
X3206610Y-9469174D01*
X3206610Y-9469174D02*
X3216134Y-9488222D01*
X3216134Y-9488222D02*
X3216134Y-9592984D01*
X3216134Y-9488222D02*
X3225658Y-9469174D01*
X3225658Y-9469174D02*
X3244705Y-9459650D01*
X3244705Y-9459650D02*
X3273277Y-9459650D01*
X3273277Y-9459650D02*
X3292324Y-9469174D01*
X3292324Y-9469174D02*
X3301848Y-9488222D01*
X3301848Y-9488222D02*
X3301848Y-9592984D01*
X3397086Y-9592984D02*
X3397086Y-9459650D01*
X3397086Y-9478698D02*
X3406610Y-9469174D01*
X3406610Y-9469174D02*
X3425658Y-9459650D01*
X3425658Y-9459650D02*
X3454229Y-9459650D01*
X3454229Y-9459650D02*
X3473277Y-9469174D01*
X3473277Y-9469174D02*
X3482801Y-9488222D01*
X3482801Y-9488222D02*
X3482801Y-9592984D01*
X3482801Y-9488222D02*
X3492324Y-9469174D01*
X3492324Y-9469174D02*
X3511372Y-9459650D01*
X3511372Y-9459650D02*
X3539943Y-9459650D01*
X3539943Y-9459650D02*
X3558991Y-9469174D01*
X3558991Y-9469174D02*
X3568515Y-9488222D01*
X3568515Y-9488222D02*
X3568515Y-9592984D01*
X3958991Y-9383460D02*
X3787563Y-9640603D01*
X4216134Y-9392984D02*
X4235182Y-9392984D01*
X4235182Y-9392984D02*
X4254229Y-9402508D01*
X4254229Y-9402508D02*
X4263753Y-9412031D01*
X4263753Y-9412031D02*
X4273277Y-9431079D01*
X4273277Y-9431079D02*
X4282801Y-9469174D01*
X4282801Y-9469174D02*
X4282801Y-9516793D01*
X4282801Y-9516793D02*
X4273277Y-9554889D01*
X4273277Y-9554889D02*
X4263753Y-9573936D01*
X4263753Y-9573936D02*
X4254229Y-9583460D01*
X4254229Y-9583460D02*
X4235182Y-9592984D01*
X4235182Y-9592984D02*
X4216134Y-9592984D01*
X4216134Y-9592984D02*
X4197087Y-9583460D01*
X4197087Y-9583460D02*
X4187563Y-9573936D01*
X4187563Y-9573936D02*
X4178039Y-9554889D01*
X4178039Y-9554889D02*
X4168515Y-9516793D01*
X4168515Y-9516793D02*
X4168515Y-9469174D01*
X4168515Y-9469174D02*
X4178039Y-9431079D01*
X4178039Y-9431079D02*
X4187563Y-9412031D01*
X4187563Y-9412031D02*
X4197087Y-9402508D01*
X4197087Y-9402508D02*
X4216134Y-9392984D01*
X4368515Y-9573936D02*
X4378039Y-9583460D01*
X4378039Y-9583460D02*
X4368515Y-9592984D01*
X4368515Y-9592984D02*
X4358991Y-9583460D01*
X4358991Y-9583460D02*
X4368515Y-9573936D01*
X4368515Y-9573936D02*
X4368515Y-9592984D01*
X4501848Y-9392984D02*
X4520896Y-9392984D01*
X4520896Y-9392984D02*
X4539944Y-9402508D01*
X4539944Y-9402508D02*
X4549468Y-9412031D01*
X4549468Y-9412031D02*
X4558991Y-9431079D01*
X4558991Y-9431079D02*
X4568515Y-9469174D01*
X4568515Y-9469174D02*
X4568515Y-9516793D01*
X4568515Y-9516793D02*
X4558991Y-9554889D01*
X4558991Y-9554889D02*
X4549468Y-9573936D01*
X4549468Y-9573936D02*
X4539944Y-9583460D01*
X4539944Y-9583460D02*
X4520896Y-9592984D01*
X4520896Y-9592984D02*
X4501848Y-9592984D01*
X4501848Y-9592984D02*
X4482801Y-9583460D01*
X4482801Y-9583460D02*
X4473277Y-9573936D01*
X4473277Y-9573936D02*
X4463753Y-9554889D01*
X4463753Y-9554889D02*
X4454229Y-9516793D01*
X4454229Y-9516793D02*
X4454229Y-9469174D01*
X4454229Y-9469174D02*
X4463753Y-9431079D01*
X4463753Y-9431079D02*
X4473277Y-9412031D01*
X4473277Y-9412031D02*
X4482801Y-9402508D01*
X4482801Y-9402508D02*
X4501848Y-9392984D01*
X4635182Y-9392984D02*
X4758991Y-9392984D01*
X4758991Y-9392984D02*
X4692325Y-9469174D01*
X4692325Y-9469174D02*
X4720896Y-9469174D01*
X4720896Y-9469174D02*
X4739944Y-9478698D01*
X4739944Y-9478698D02*
X4749468Y-9488222D01*
X4749468Y-9488222D02*
X4758991Y-9507270D01*
X4758991Y-9507270D02*
X4758991Y-9554889D01*
X4758991Y-9554889D02*
X4749468Y-9573936D01*
X4749468Y-9573936D02*
X4739944Y-9583460D01*
X4739944Y-9583460D02*
X4720896Y-9592984D01*
X4720896Y-9592984D02*
X4663753Y-9592984D01*
X4663753Y-9592984D02*
X4644706Y-9583460D01*
X4644706Y-9583460D02*
X4635182Y-9573936D01*
X4949468Y-9592984D02*
X4835182Y-9592984D01*
X4892325Y-9592984D02*
X4892325Y-9392984D01*
X4892325Y-9392984D02*
X4873277Y-9421555D01*
X4873277Y-9421555D02*
X4854229Y-9440603D01*
X4854229Y-9440603D02*
X4835182Y-9450127D01*
X5130420Y-9392984D02*
X5035182Y-9392984D01*
X5035182Y-9392984D02*
X5025658Y-9488222D01*
X5025658Y-9488222D02*
X5035182Y-9478698D01*
X5035182Y-9478698D02*
X5054229Y-9469174D01*
X5054229Y-9469174D02*
X5101849Y-9469174D01*
X5101849Y-9469174D02*
X5120896Y-9478698D01*
X5120896Y-9478698D02*
X5130420Y-9488222D01*
X5130420Y-9488222D02*
X5139944Y-9507270D01*
X5139944Y-9507270D02*
X5139944Y-9554889D01*
X5139944Y-9554889D02*
X5130420Y-9573936D01*
X5130420Y-9573936D02*
X5120896Y-9583460D01*
X5120896Y-9583460D02*
X5101849Y-9592984D01*
X5101849Y-9592984D02*
X5054229Y-9592984D01*
X5054229Y-9592984D02*
X5035182Y-9583460D01*
X5035182Y-9583460D02*
X5025658Y-9573936D01*
X5216134Y-9392984D02*
X5216134Y-9431079D01*
X5292325Y-9392984D02*
X5292325Y-9431079D01*
X5587563Y-9669174D02*
X5578039Y-9659650D01*
X5578039Y-9659650D02*
X5558991Y-9631079D01*
X5558991Y-9631079D02*
X5549468Y-9612031D01*
X5549468Y-9612031D02*
X5539944Y-9583460D01*
X5539944Y-9583460D02*
X5530420Y-9535841D01*
X5530420Y-9535841D02*
X5530420Y-9497746D01*
X5530420Y-9497746D02*
X5539944Y-9450127D01*
X5539944Y-9450127D02*
X5549468Y-9421555D01*
X5549468Y-9421555D02*
X5558991Y-9402508D01*
X5558991Y-9402508D02*
X5578039Y-9373936D01*
X5578039Y-9373936D02*
X5587563Y-9364412D01*
X5749468Y-9459650D02*
X5749468Y-9592984D01*
X5701848Y-9383460D02*
X5654229Y-9526317D01*
X5654229Y-9526317D02*
X5778039Y-9526317D01*
X5892325Y-9392984D02*
X5911372Y-9392984D01*
X5911372Y-9392984D02*
X5930420Y-9402508D01*
X5930420Y-9402508D02*
X5939944Y-9412031D01*
X5939944Y-9412031D02*
X5949468Y-9431079D01*
X5949468Y-9431079D02*
X5958991Y-9469174D01*
X5958991Y-9469174D02*
X5958991Y-9516793D01*
X5958991Y-9516793D02*
X5949468Y-9554889D01*
X5949468Y-9554889D02*
X5939944Y-9573936D01*
X5939944Y-9573936D02*
X5930420Y-9583460D01*
X5930420Y-9583460D02*
X5911372Y-9592984D01*
X5911372Y-9592984D02*
X5892325Y-9592984D01*
X5892325Y-9592984D02*
X5873277Y-9583460D01*
X5873277Y-9583460D02*
X5863753Y-9573936D01*
X5863753Y-9573936D02*
X5854229Y-9554889D01*
X5854229Y-9554889D02*
X5844706Y-9516793D01*
X5844706Y-9516793D02*
X5844706Y-9469174D01*
X5844706Y-9469174D02*
X5854229Y-9431079D01*
X5854229Y-9431079D02*
X5863753Y-9412031D01*
X5863753Y-9412031D02*
X5873277Y-9402508D01*
X5873277Y-9402508D02*
X5892325Y-9392984D01*
X6197087Y-9592984D02*
X6197087Y-9392984D01*
X6282801Y-9592984D02*
X6282801Y-9488222D01*
X6282801Y-9488222D02*
X6273277Y-9469174D01*
X6273277Y-9469174D02*
X6254230Y-9459650D01*
X6254230Y-9459650D02*
X6225658Y-9459650D01*
X6225658Y-9459650D02*
X6206610Y-9469174D01*
X6206610Y-9469174D02*
X6197087Y-9478698D01*
X6406610Y-9592984D02*
X6387563Y-9583460D01*
X6387563Y-9583460D02*
X6378039Y-9573936D01*
X6378039Y-9573936D02*
X6368515Y-9554889D01*
X6368515Y-9554889D02*
X6368515Y-9497746D01*
X6368515Y-9497746D02*
X6378039Y-9478698D01*
X6378039Y-9478698D02*
X6387563Y-9469174D01*
X6387563Y-9469174D02*
X6406610Y-9459650D01*
X6406610Y-9459650D02*
X6435182Y-9459650D01*
X6435182Y-9459650D02*
X6454230Y-9469174D01*
X6454230Y-9469174D02*
X6463753Y-9478698D01*
X6463753Y-9478698D02*
X6473277Y-9497746D01*
X6473277Y-9497746D02*
X6473277Y-9554889D01*
X6473277Y-9554889D02*
X6463753Y-9573936D01*
X6463753Y-9573936D02*
X6454230Y-9583460D01*
X6454230Y-9583460D02*
X6435182Y-9592984D01*
X6435182Y-9592984D02*
X6406610Y-9592984D01*
X6587563Y-9592984D02*
X6568515Y-9583460D01*
X6568515Y-9583460D02*
X6558991Y-9564412D01*
X6558991Y-9564412D02*
X6558991Y-9392984D01*
X6739944Y-9583460D02*
X6720896Y-9592984D01*
X6720896Y-9592984D02*
X6682801Y-9592984D01*
X6682801Y-9592984D02*
X6663753Y-9583460D01*
X6663753Y-9583460D02*
X6654230Y-9564412D01*
X6654230Y-9564412D02*
X6654230Y-9488222D01*
X6654230Y-9488222D02*
X6663753Y-9469174D01*
X6663753Y-9469174D02*
X6682801Y-9459650D01*
X6682801Y-9459650D02*
X6720896Y-9459650D01*
X6720896Y-9459650D02*
X6739944Y-9469174D01*
X6739944Y-9469174D02*
X6749468Y-9488222D01*
X6749468Y-9488222D02*
X6749468Y-9507270D01*
X6749468Y-9507270D02*
X6654230Y-9526317D01*
X6825658Y-9583460D02*
X6844706Y-9592984D01*
X6844706Y-9592984D02*
X6882801Y-9592984D01*
X6882801Y-9592984D02*
X6901849Y-9583460D01*
X6901849Y-9583460D02*
X6911372Y-9564412D01*
X6911372Y-9564412D02*
X6911372Y-9554889D01*
X6911372Y-9554889D02*
X6901849Y-9535841D01*
X6901849Y-9535841D02*
X6882801Y-9526317D01*
X6882801Y-9526317D02*
X6854230Y-9526317D01*
X6854230Y-9526317D02*
X6835182Y-9516793D01*
X6835182Y-9516793D02*
X6825658Y-9497746D01*
X6825658Y-9497746D02*
X6825658Y-9488222D01*
X6825658Y-9488222D02*
X6835182Y-9469174D01*
X6835182Y-9469174D02*
X6854230Y-9459650D01*
X6854230Y-9459650D02*
X6882801Y-9459650D01*
X6882801Y-9459650D02*
X6901849Y-9469174D01*
X6978039Y-9669174D02*
X6987563Y-9659650D01*
X6987563Y-9659650D02*
X7006611Y-9631079D01*
X7006611Y-9631079D02*
X7016134Y-9612031D01*
X7016134Y-9612031D02*
X7025658Y-9583460D01*
X7025658Y-9583460D02*
X7035182Y-9535841D01*
X7035182Y-9535841D02*
X7035182Y-9497746D01*
X7035182Y-9497746D02*
X7025658Y-9450127D01*
X7025658Y-9450127D02*
X7016134Y-9421555D01*
X7016134Y-9421555D02*
X7006611Y-9402508D01*
X7006611Y-9402508D02*
X6987563Y-9373936D01*
X6987563Y-9373936D02*
X6978039Y-9364412D01*
D12*
X1962500Y-9715500D02*
X1962500Y-9815500D01*
X1912500Y-9765500D02*
X2012500Y-9765500D01*
D11*
X2378039Y-9856984D02*
X2263753Y-9856984D01*
X2320896Y-9856984D02*
X2320896Y-9656984D01*
X2320896Y-9656984D02*
X2301848Y-9685555D01*
X2301848Y-9685555D02*
X2282801Y-9704603D01*
X2282801Y-9704603D02*
X2263753Y-9714127D01*
X2463753Y-9837936D02*
X2473277Y-9847460D01*
X2473277Y-9847460D02*
X2463753Y-9856984D01*
X2463753Y-9856984D02*
X2454229Y-9847460D01*
X2454229Y-9847460D02*
X2463753Y-9837936D01*
X2463753Y-9837936D02*
X2463753Y-9856984D01*
X2597086Y-9656984D02*
X2616134Y-9656984D01*
X2616134Y-9656984D02*
X2635182Y-9666508D01*
X2635182Y-9666508D02*
X2644705Y-9676031D01*
X2644705Y-9676031D02*
X2654229Y-9695079D01*
X2654229Y-9695079D02*
X2663753Y-9733174D01*
X2663753Y-9733174D02*
X2663753Y-9780793D01*
X2663753Y-9780793D02*
X2654229Y-9818889D01*
X2654229Y-9818889D02*
X2644705Y-9837936D01*
X2644705Y-9837936D02*
X2635182Y-9847460D01*
X2635182Y-9847460D02*
X2616134Y-9856984D01*
X2616134Y-9856984D02*
X2597086Y-9856984D01*
X2597086Y-9856984D02*
X2578039Y-9847460D01*
X2578039Y-9847460D02*
X2568515Y-9837936D01*
X2568515Y-9837936D02*
X2558991Y-9818889D01*
X2558991Y-9818889D02*
X2549467Y-9780793D01*
X2549467Y-9780793D02*
X2549467Y-9733174D01*
X2549467Y-9733174D02*
X2558991Y-9695079D01*
X2558991Y-9695079D02*
X2568515Y-9676031D01*
X2568515Y-9676031D02*
X2578039Y-9666508D01*
X2578039Y-9666508D02*
X2597086Y-9656984D01*
X2787563Y-9656984D02*
X2806610Y-9656984D01*
X2806610Y-9656984D02*
X2825658Y-9666508D01*
X2825658Y-9666508D02*
X2835182Y-9676031D01*
X2835182Y-9676031D02*
X2844705Y-9695079D01*
X2844705Y-9695079D02*
X2854229Y-9733174D01*
X2854229Y-9733174D02*
X2854229Y-9780793D01*
X2854229Y-9780793D02*
X2844705Y-9818889D01*
X2844705Y-9818889D02*
X2835182Y-9837936D01*
X2835182Y-9837936D02*
X2825658Y-9847460D01*
X2825658Y-9847460D02*
X2806610Y-9856984D01*
X2806610Y-9856984D02*
X2787563Y-9856984D01*
X2787563Y-9856984D02*
X2768515Y-9847460D01*
X2768515Y-9847460D02*
X2758991Y-9837936D01*
X2758991Y-9837936D02*
X2749467Y-9818889D01*
X2749467Y-9818889D02*
X2739944Y-9780793D01*
X2739944Y-9780793D02*
X2739944Y-9733174D01*
X2739944Y-9733174D02*
X2749467Y-9695079D01*
X2749467Y-9695079D02*
X2758991Y-9676031D01*
X2758991Y-9676031D02*
X2768515Y-9666508D01*
X2768515Y-9666508D02*
X2787563Y-9656984D01*
X2978039Y-9656984D02*
X2997086Y-9656984D01*
X2997086Y-9656984D02*
X3016134Y-9666508D01*
X3016134Y-9666508D02*
X3025658Y-9676031D01*
X3025658Y-9676031D02*
X3035182Y-9695079D01*
X3035182Y-9695079D02*
X3044705Y-9733174D01*
X3044705Y-9733174D02*
X3044705Y-9780793D01*
X3044705Y-9780793D02*
X3035182Y-9818889D01*
X3035182Y-9818889D02*
X3025658Y-9837936D01*
X3025658Y-9837936D02*
X3016134Y-9847460D01*
X3016134Y-9847460D02*
X2997086Y-9856984D01*
X2997086Y-9856984D02*
X2978039Y-9856984D01*
X2978039Y-9856984D02*
X2958991Y-9847460D01*
X2958991Y-9847460D02*
X2949467Y-9837936D01*
X2949467Y-9837936D02*
X2939943Y-9818889D01*
X2939943Y-9818889D02*
X2930420Y-9780793D01*
X2930420Y-9780793D02*
X2930420Y-9733174D01*
X2930420Y-9733174D02*
X2939943Y-9695079D01*
X2939943Y-9695079D02*
X2949467Y-9676031D01*
X2949467Y-9676031D02*
X2958991Y-9666508D01*
X2958991Y-9666508D02*
X2978039Y-9656984D01*
X3130420Y-9856984D02*
X3130420Y-9723650D01*
X3130420Y-9742698D02*
X3139943Y-9733174D01*
X3139943Y-9733174D02*
X3158991Y-9723650D01*
X3158991Y-9723650D02*
X3187563Y-9723650D01*
X3187563Y-9723650D02*
X3206610Y-9733174D01*
X3206610Y-9733174D02*
X3216134Y-9752222D01*
X3216134Y-9752222D02*
X3216134Y-9856984D01*
X3216134Y-9752222D02*
X3225658Y-9733174D01*
X3225658Y-9733174D02*
X3244705Y-9723650D01*
X3244705Y-9723650D02*
X3273277Y-9723650D01*
X3273277Y-9723650D02*
X3292324Y-9733174D01*
X3292324Y-9733174D02*
X3301848Y-9752222D01*
X3301848Y-9752222D02*
X3301848Y-9856984D01*
X3397086Y-9856984D02*
X3397086Y-9723650D01*
X3397086Y-9742698D02*
X3406610Y-9733174D01*
X3406610Y-9733174D02*
X3425658Y-9723650D01*
X3425658Y-9723650D02*
X3454229Y-9723650D01*
X3454229Y-9723650D02*
X3473277Y-9733174D01*
X3473277Y-9733174D02*
X3482801Y-9752222D01*
X3482801Y-9752222D02*
X3482801Y-9856984D01*
X3482801Y-9752222D02*
X3492324Y-9733174D01*
X3492324Y-9733174D02*
X3511372Y-9723650D01*
X3511372Y-9723650D02*
X3539943Y-9723650D01*
X3539943Y-9723650D02*
X3558991Y-9733174D01*
X3558991Y-9733174D02*
X3568515Y-9752222D01*
X3568515Y-9752222D02*
X3568515Y-9856984D01*
X3958991Y-9647460D02*
X3787563Y-9904603D01*
X4216134Y-9656984D02*
X4235182Y-9656984D01*
X4235182Y-9656984D02*
X4254229Y-9666508D01*
X4254229Y-9666508D02*
X4263753Y-9676031D01*
X4263753Y-9676031D02*
X4273277Y-9695079D01*
X4273277Y-9695079D02*
X4282801Y-9733174D01*
X4282801Y-9733174D02*
X4282801Y-9780793D01*
X4282801Y-9780793D02*
X4273277Y-9818889D01*
X4273277Y-9818889D02*
X4263753Y-9837936D01*
X4263753Y-9837936D02*
X4254229Y-9847460D01*
X4254229Y-9847460D02*
X4235182Y-9856984D01*
X4235182Y-9856984D02*
X4216134Y-9856984D01*
X4216134Y-9856984D02*
X4197087Y-9847460D01*
X4197087Y-9847460D02*
X4187563Y-9837936D01*
X4187563Y-9837936D02*
X4178039Y-9818889D01*
X4178039Y-9818889D02*
X4168515Y-9780793D01*
X4168515Y-9780793D02*
X4168515Y-9733174D01*
X4168515Y-9733174D02*
X4178039Y-9695079D01*
X4178039Y-9695079D02*
X4187563Y-9676031D01*
X4187563Y-9676031D02*
X4197087Y-9666508D01*
X4197087Y-9666508D02*
X4216134Y-9656984D01*
X4368515Y-9837936D02*
X4378039Y-9847460D01*
X4378039Y-9847460D02*
X4368515Y-9856984D01*
X4368515Y-9856984D02*
X4358991Y-9847460D01*
X4358991Y-9847460D02*
X4368515Y-9837936D01*
X4368515Y-9837936D02*
X4368515Y-9856984D01*
X4501848Y-9656984D02*
X4520896Y-9656984D01*
X4520896Y-9656984D02*
X4539944Y-9666508D01*
X4539944Y-9666508D02*
X4549468Y-9676031D01*
X4549468Y-9676031D02*
X4558991Y-9695079D01*
X4558991Y-9695079D02*
X4568515Y-9733174D01*
X4568515Y-9733174D02*
X4568515Y-9780793D01*
X4568515Y-9780793D02*
X4558991Y-9818889D01*
X4558991Y-9818889D02*
X4549468Y-9837936D01*
X4549468Y-9837936D02*
X4539944Y-9847460D01*
X4539944Y-9847460D02*
X4520896Y-9856984D01*
X4520896Y-9856984D02*
X4501848Y-9856984D01*
X4501848Y-9856984D02*
X4482801Y-9847460D01*
X4482801Y-9847460D02*
X4473277Y-9837936D01*
X4473277Y-9837936D02*
X4463753Y-9818889D01*
X4463753Y-9818889D02*
X4454229Y-9780793D01*
X4454229Y-9780793D02*
X4454229Y-9733174D01*
X4454229Y-9733174D02*
X4463753Y-9695079D01*
X4463753Y-9695079D02*
X4473277Y-9676031D01*
X4473277Y-9676031D02*
X4482801Y-9666508D01*
X4482801Y-9666508D02*
X4501848Y-9656984D01*
X4635182Y-9656984D02*
X4758991Y-9656984D01*
X4758991Y-9656984D02*
X4692325Y-9733174D01*
X4692325Y-9733174D02*
X4720896Y-9733174D01*
X4720896Y-9733174D02*
X4739944Y-9742698D01*
X4739944Y-9742698D02*
X4749468Y-9752222D01*
X4749468Y-9752222D02*
X4758991Y-9771270D01*
X4758991Y-9771270D02*
X4758991Y-9818889D01*
X4758991Y-9818889D02*
X4749468Y-9837936D01*
X4749468Y-9837936D02*
X4739944Y-9847460D01*
X4739944Y-9847460D02*
X4720896Y-9856984D01*
X4720896Y-9856984D02*
X4663753Y-9856984D01*
X4663753Y-9856984D02*
X4644706Y-9847460D01*
X4644706Y-9847460D02*
X4635182Y-9837936D01*
X4854229Y-9856984D02*
X4892325Y-9856984D01*
X4892325Y-9856984D02*
X4911372Y-9847460D01*
X4911372Y-9847460D02*
X4920896Y-9837936D01*
X4920896Y-9837936D02*
X4939944Y-9809365D01*
X4939944Y-9809365D02*
X4949468Y-9771270D01*
X4949468Y-9771270D02*
X4949468Y-9695079D01*
X4949468Y-9695079D02*
X4939944Y-9676031D01*
X4939944Y-9676031D02*
X4930420Y-9666508D01*
X4930420Y-9666508D02*
X4911372Y-9656984D01*
X4911372Y-9656984D02*
X4873277Y-9656984D01*
X4873277Y-9656984D02*
X4854229Y-9666508D01*
X4854229Y-9666508D02*
X4844706Y-9676031D01*
X4844706Y-9676031D02*
X4835182Y-9695079D01*
X4835182Y-9695079D02*
X4835182Y-9742698D01*
X4835182Y-9742698D02*
X4844706Y-9761746D01*
X4844706Y-9761746D02*
X4854229Y-9771270D01*
X4854229Y-9771270D02*
X4873277Y-9780793D01*
X4873277Y-9780793D02*
X4911372Y-9780793D01*
X4911372Y-9780793D02*
X4930420Y-9771270D01*
X4930420Y-9771270D02*
X4939944Y-9761746D01*
X4939944Y-9761746D02*
X4949468Y-9742698D01*
X5120896Y-9723650D02*
X5120896Y-9856984D01*
X5073277Y-9647460D02*
X5025658Y-9790317D01*
X5025658Y-9790317D02*
X5149468Y-9790317D01*
X5216134Y-9656984D02*
X5216134Y-9695079D01*
X5292325Y-9656984D02*
X5292325Y-9695079D01*
X5587563Y-9933174D02*
X5578039Y-9923650D01*
X5578039Y-9923650D02*
X5558991Y-9895079D01*
X5558991Y-9895079D02*
X5549468Y-9876031D01*
X5549468Y-9876031D02*
X5539944Y-9847460D01*
X5539944Y-9847460D02*
X5530420Y-9799841D01*
X5530420Y-9799841D02*
X5530420Y-9761746D01*
X5530420Y-9761746D02*
X5539944Y-9714127D01*
X5539944Y-9714127D02*
X5549468Y-9685555D01*
X5549468Y-9685555D02*
X5558991Y-9666508D01*
X5558991Y-9666508D02*
X5578039Y-9637936D01*
X5578039Y-9637936D02*
X5587563Y-9628412D01*
X5768515Y-9856984D02*
X5654229Y-9856984D01*
X5711372Y-9856984D02*
X5711372Y-9656984D01*
X5711372Y-9656984D02*
X5692325Y-9685555D01*
X5692325Y-9685555D02*
X5673277Y-9704603D01*
X5673277Y-9704603D02*
X5654229Y-9714127D01*
X5892325Y-9656984D02*
X5911372Y-9656984D01*
X5911372Y-9656984D02*
X5930420Y-9666508D01*
X5930420Y-9666508D02*
X5939944Y-9676031D01*
X5939944Y-9676031D02*
X5949468Y-9695079D01*
X5949468Y-9695079D02*
X5958991Y-9733174D01*
X5958991Y-9733174D02*
X5958991Y-9780793D01*
X5958991Y-9780793D02*
X5949468Y-9818889D01*
X5949468Y-9818889D02*
X5939944Y-9837936D01*
X5939944Y-9837936D02*
X5930420Y-9847460D01*
X5930420Y-9847460D02*
X5911372Y-9856984D01*
X5911372Y-9856984D02*
X5892325Y-9856984D01*
X5892325Y-9856984D02*
X5873277Y-9847460D01*
X5873277Y-9847460D02*
X5863753Y-9837936D01*
X5863753Y-9837936D02*
X5854229Y-9818889D01*
X5854229Y-9818889D02*
X5844706Y-9780793D01*
X5844706Y-9780793D02*
X5844706Y-9733174D01*
X5844706Y-9733174D02*
X5854229Y-9695079D01*
X5854229Y-9695079D02*
X5863753Y-9676031D01*
X5863753Y-9676031D02*
X5873277Y-9666508D01*
X5873277Y-9666508D02*
X5892325Y-9656984D01*
X6130420Y-9723650D02*
X6130420Y-9856984D01*
X6082801Y-9647460D02*
X6035182Y-9790317D01*
X6035182Y-9790317D02*
X6158991Y-9790317D01*
X6387563Y-9856984D02*
X6387563Y-9656984D01*
X6473277Y-9856984D02*
X6473277Y-9752222D01*
X6473277Y-9752222D02*
X6463753Y-9733174D01*
X6463753Y-9733174D02*
X6444706Y-9723650D01*
X6444706Y-9723650D02*
X6416134Y-9723650D01*
X6416134Y-9723650D02*
X6397087Y-9733174D01*
X6397087Y-9733174D02*
X6387563Y-9742698D01*
X6597087Y-9856984D02*
X6578039Y-9847460D01*
X6578039Y-9847460D02*
X6568515Y-9837936D01*
X6568515Y-9837936D02*
X6558991Y-9818889D01*
X6558991Y-9818889D02*
X6558991Y-9761746D01*
X6558991Y-9761746D02*
X6568515Y-9742698D01*
X6568515Y-9742698D02*
X6578039Y-9733174D01*
X6578039Y-9733174D02*
X6597087Y-9723650D01*
X6597087Y-9723650D02*
X6625658Y-9723650D01*
X6625658Y-9723650D02*
X6644706Y-9733174D01*
X6644706Y-9733174D02*
X6654230Y-9742698D01*
X6654230Y-9742698D02*
X6663753Y-9761746D01*
X6663753Y-9761746D02*
X6663753Y-9818889D01*
X6663753Y-9818889D02*
X6654230Y-9837936D01*
X6654230Y-9837936D02*
X6644706Y-9847460D01*
X6644706Y-9847460D02*
X6625658Y-9856984D01*
X6625658Y-9856984D02*
X6597087Y-9856984D01*
X6778039Y-9856984D02*
X6758991Y-9847460D01*
X6758991Y-9847460D02*
X6749468Y-9828412D01*
X6749468Y-9828412D02*
X6749468Y-9656984D01*
X6930420Y-9847460D02*
X6911372Y-9856984D01*
X6911372Y-9856984D02*
X6873277Y-9856984D01*
X6873277Y-9856984D02*
X6854230Y-9847460D01*
X6854230Y-9847460D02*
X6844706Y-9828412D01*
X6844706Y-9828412D02*
X6844706Y-9752222D01*
X6844706Y-9752222D02*
X6854230Y-9733174D01*
X6854230Y-9733174D02*
X6873277Y-9723650D01*
X6873277Y-9723650D02*
X6911372Y-9723650D01*
X6911372Y-9723650D02*
X6930420Y-9733174D01*
X6930420Y-9733174D02*
X6939944Y-9752222D01*
X6939944Y-9752222D02*
X6939944Y-9771270D01*
X6939944Y-9771270D02*
X6844706Y-9790317D01*
X7016134Y-9847460D02*
X7035182Y-9856984D01*
X7035182Y-9856984D02*
X7073277Y-9856984D01*
X7073277Y-9856984D02*
X7092325Y-9847460D01*
X7092325Y-9847460D02*
X7101849Y-9828412D01*
X7101849Y-9828412D02*
X7101849Y-9818889D01*
X7101849Y-9818889D02*
X7092325Y-9799841D01*
X7092325Y-9799841D02*
X7073277Y-9790317D01*
X7073277Y-9790317D02*
X7044706Y-9790317D01*
X7044706Y-9790317D02*
X7025658Y-9780793D01*
X7025658Y-9780793D02*
X7016134Y-9761746D01*
X7016134Y-9761746D02*
X7016134Y-9752222D01*
X7016134Y-9752222D02*
X7025658Y-9733174D01*
X7025658Y-9733174D02*
X7044706Y-9723650D01*
X7044706Y-9723650D02*
X7073277Y-9723650D01*
X7073277Y-9723650D02*
X7092325Y-9733174D01*
X7168515Y-9933174D02*
X7178039Y-9923650D01*
X7178039Y-9923650D02*
X7197087Y-9895079D01*
X7197087Y-9895079D02*
X7206611Y-9876031D01*
X7206611Y-9876031D02*
X7216134Y-9847460D01*
X7216134Y-9847460D02*
X7225658Y-9799841D01*
X7225658Y-9799841D02*
X7225658Y-9761746D01*
X7225658Y-9761746D02*
X7216134Y-9714127D01*
X7216134Y-9714127D02*
X7206611Y-9685555D01*
X7206611Y-9685555D02*
X7197087Y-9666508D01*
X7197087Y-9666508D02*
X7178039Y-9637936D01*
X7178039Y-9637936D02*
X7168515Y-9628412D01*
M02*
