G04 #@! TF.GenerationSoftware,KiCad,Pcbnew,8.0.5*
G04 #@! TF.CreationDate,2024-10-14T11:26:21+05:00*
G04 #@! TF.ProjectId,2floor_for_orange_pi,32666c6f-6f72-45f6-966f-725f6f72616e,rev?*
G04 #@! TF.SameCoordinates,Original*
G04 #@! TF.FileFunction,Legend,Top*
G04 #@! TF.FilePolarity,Positive*
%FSLAX46Y46*%
G04 Gerber Fmt 4.6, Leading zero omitted, Abs format (unit mm)*
G04 Created by KiCad (PCBNEW 8.0.5) date 2024-10-14 11:26:21*
%MOMM*%
%LPD*%
G01*
G04 APERTURE LIST*
%ADD10C,0.100000*%
%ADD11C,0.150000*%
%ADD12C,0.120000*%
%ADD13R,1.700000X1.700000*%
%ADD14O,1.700000X1.700000*%
%ADD15R,2.000000X1.200000*%
%ADD16O,2.000000X1.200000*%
G04 APERTURE END LIST*
D10*
X54277825Y-70105238D02*
X54230206Y-70057619D01*
X54230206Y-70057619D02*
X54182587Y-69962381D01*
X54182587Y-69962381D02*
X54182587Y-69724286D01*
X54182587Y-69724286D02*
X54230206Y-69629048D01*
X54230206Y-69629048D02*
X54277825Y-69581429D01*
X54277825Y-69581429D02*
X54373063Y-69533810D01*
X54373063Y-69533810D02*
X54468301Y-69533810D01*
X54468301Y-69533810D02*
X54611158Y-69581429D01*
X54611158Y-69581429D02*
X55182587Y-70152857D01*
X55182587Y-70152857D02*
X55182587Y-69533810D01*
X54182587Y-68914762D02*
X54182587Y-68819524D01*
X54182587Y-68819524D02*
X54230206Y-68724286D01*
X54230206Y-68724286D02*
X54277825Y-68676667D01*
X54277825Y-68676667D02*
X54373063Y-68629048D01*
X54373063Y-68629048D02*
X54563539Y-68581429D01*
X54563539Y-68581429D02*
X54801634Y-68581429D01*
X54801634Y-68581429D02*
X54992110Y-68629048D01*
X54992110Y-68629048D02*
X55087348Y-68676667D01*
X55087348Y-68676667D02*
X55134968Y-68724286D01*
X55134968Y-68724286D02*
X55182587Y-68819524D01*
X55182587Y-68819524D02*
X55182587Y-68914762D01*
X55182587Y-68914762D02*
X55134968Y-69010000D01*
X55134968Y-69010000D02*
X55087348Y-69057619D01*
X55087348Y-69057619D02*
X54992110Y-69105238D01*
X54992110Y-69105238D02*
X54801634Y-69152857D01*
X54801634Y-69152857D02*
X54563539Y-69152857D01*
X54563539Y-69152857D02*
X54373063Y-69105238D01*
X54373063Y-69105238D02*
X54277825Y-69057619D01*
X54277825Y-69057619D02*
X54230206Y-69010000D01*
X54230206Y-69010000D02*
X54182587Y-68914762D01*
X54277825Y-68200476D02*
X54230206Y-68152857D01*
X54230206Y-68152857D02*
X54182587Y-68057619D01*
X54182587Y-68057619D02*
X54182587Y-67819524D01*
X54182587Y-67819524D02*
X54230206Y-67724286D01*
X54230206Y-67724286D02*
X54277825Y-67676667D01*
X54277825Y-67676667D02*
X54373063Y-67629048D01*
X54373063Y-67629048D02*
X54468301Y-67629048D01*
X54468301Y-67629048D02*
X54611158Y-67676667D01*
X54611158Y-67676667D02*
X55182587Y-68248095D01*
X55182587Y-68248095D02*
X55182587Y-67629048D01*
X54182587Y-67295714D02*
X54182587Y-66676667D01*
X54182587Y-66676667D02*
X54563539Y-67010000D01*
X54563539Y-67010000D02*
X54563539Y-66867143D01*
X54563539Y-66867143D02*
X54611158Y-66771905D01*
X54611158Y-66771905D02*
X54658777Y-66724286D01*
X54658777Y-66724286D02*
X54754015Y-66676667D01*
X54754015Y-66676667D02*
X54992110Y-66676667D01*
X54992110Y-66676667D02*
X55087348Y-66724286D01*
X55087348Y-66724286D02*
X55134968Y-66771905D01*
X55134968Y-66771905D02*
X55182587Y-66867143D01*
X55182587Y-66867143D02*
X55182587Y-67152857D01*
X55182587Y-67152857D02*
X55134968Y-67248095D01*
X55134968Y-67248095D02*
X55087348Y-67295714D01*
X54801634Y-66248095D02*
X54801634Y-65486191D01*
X54277825Y-65057619D02*
X54230206Y-65010000D01*
X54230206Y-65010000D02*
X54182587Y-64914762D01*
X54182587Y-64914762D02*
X54182587Y-64676667D01*
X54182587Y-64676667D02*
X54230206Y-64581429D01*
X54230206Y-64581429D02*
X54277825Y-64533810D01*
X54277825Y-64533810D02*
X54373063Y-64486191D01*
X54373063Y-64486191D02*
X54468301Y-64486191D01*
X54468301Y-64486191D02*
X54611158Y-64533810D01*
X54611158Y-64533810D02*
X55182587Y-65105238D01*
X55182587Y-65105238D02*
X55182587Y-64486191D01*
X54182587Y-63867143D02*
X54182587Y-63771905D01*
X54182587Y-63771905D02*
X54230206Y-63676667D01*
X54230206Y-63676667D02*
X54277825Y-63629048D01*
X54277825Y-63629048D02*
X54373063Y-63581429D01*
X54373063Y-63581429D02*
X54563539Y-63533810D01*
X54563539Y-63533810D02*
X54801634Y-63533810D01*
X54801634Y-63533810D02*
X54992110Y-63581429D01*
X54992110Y-63581429D02*
X55087348Y-63629048D01*
X55087348Y-63629048D02*
X55134968Y-63676667D01*
X55134968Y-63676667D02*
X55182587Y-63771905D01*
X55182587Y-63771905D02*
X55182587Y-63867143D01*
X55182587Y-63867143D02*
X55134968Y-63962381D01*
X55134968Y-63962381D02*
X55087348Y-64010000D01*
X55087348Y-64010000D02*
X54992110Y-64057619D01*
X54992110Y-64057619D02*
X54801634Y-64105238D01*
X54801634Y-64105238D02*
X54563539Y-64105238D01*
X54563539Y-64105238D02*
X54373063Y-64057619D01*
X54373063Y-64057619D02*
X54277825Y-64010000D01*
X54277825Y-64010000D02*
X54230206Y-63962381D01*
X54230206Y-63962381D02*
X54182587Y-63867143D01*
X54277825Y-63152857D02*
X54230206Y-63105238D01*
X54230206Y-63105238D02*
X54182587Y-63010000D01*
X54182587Y-63010000D02*
X54182587Y-62771905D01*
X54182587Y-62771905D02*
X54230206Y-62676667D01*
X54230206Y-62676667D02*
X54277825Y-62629048D01*
X54277825Y-62629048D02*
X54373063Y-62581429D01*
X54373063Y-62581429D02*
X54468301Y-62581429D01*
X54468301Y-62581429D02*
X54611158Y-62629048D01*
X54611158Y-62629048D02*
X55182587Y-63200476D01*
X55182587Y-63200476D02*
X55182587Y-62581429D01*
X54515920Y-61724286D02*
X55182587Y-61724286D01*
X54134968Y-61962381D02*
X54849253Y-62200476D01*
X54849253Y-62200476D02*
X54849253Y-61581429D01*
X55563539Y-60152857D02*
X55515920Y-60200476D01*
X55515920Y-60200476D02*
X55373063Y-60295714D01*
X55373063Y-60295714D02*
X55277825Y-60343333D01*
X55277825Y-60343333D02*
X55134968Y-60390952D01*
X55134968Y-60390952D02*
X54896872Y-60438571D01*
X54896872Y-60438571D02*
X54706396Y-60438571D01*
X54706396Y-60438571D02*
X54468301Y-60390952D01*
X54468301Y-60390952D02*
X54325444Y-60343333D01*
X54325444Y-60343333D02*
X54230206Y-60295714D01*
X54230206Y-60295714D02*
X54087348Y-60200476D01*
X54087348Y-60200476D02*
X54039729Y-60152857D01*
X55134968Y-59343333D02*
X55182587Y-59438571D01*
X55182587Y-59438571D02*
X55182587Y-59629047D01*
X55182587Y-59629047D02*
X55134968Y-59724285D01*
X55134968Y-59724285D02*
X55087348Y-59771904D01*
X55087348Y-59771904D02*
X54992110Y-59819523D01*
X54992110Y-59819523D02*
X54706396Y-59819523D01*
X54706396Y-59819523D02*
X54611158Y-59771904D01*
X54611158Y-59771904D02*
X54563539Y-59724285D01*
X54563539Y-59724285D02*
X54515920Y-59629047D01*
X54515920Y-59629047D02*
X54515920Y-59438571D01*
X54515920Y-59438571D02*
X54563539Y-59343333D01*
X55563539Y-59009999D02*
X55515920Y-58962380D01*
X55515920Y-58962380D02*
X55373063Y-58867142D01*
X55373063Y-58867142D02*
X55277825Y-58819523D01*
X55277825Y-58819523D02*
X55134968Y-58771904D01*
X55134968Y-58771904D02*
X54896872Y-58724285D01*
X54896872Y-58724285D02*
X54706396Y-58724285D01*
X54706396Y-58724285D02*
X54468301Y-58771904D01*
X54468301Y-58771904D02*
X54325444Y-58819523D01*
X54325444Y-58819523D02*
X54230206Y-58867142D01*
X54230206Y-58867142D02*
X54087348Y-58962380D01*
X54087348Y-58962380D02*
X54039729Y-59009999D01*
X56506816Y-73033810D02*
X56506816Y-72557620D01*
X56792531Y-73129048D02*
X55792531Y-72795715D01*
X55792531Y-72795715D02*
X56792531Y-72462382D01*
X56792531Y-72224286D02*
X56125864Y-71700477D01*
X56125864Y-72224286D02*
X56792531Y-71700477D01*
X56744912Y-70938572D02*
X56792531Y-71033810D01*
X56792531Y-71033810D02*
X56792531Y-71224286D01*
X56792531Y-71224286D02*
X56744912Y-71319524D01*
X56744912Y-71319524D02*
X56649673Y-71367143D01*
X56649673Y-71367143D02*
X56268721Y-71367143D01*
X56268721Y-71367143D02*
X56173483Y-71319524D01*
X56173483Y-71319524D02*
X56125864Y-71224286D01*
X56125864Y-71224286D02*
X56125864Y-71033810D01*
X56125864Y-71033810D02*
X56173483Y-70938572D01*
X56173483Y-70938572D02*
X56268721Y-70890953D01*
X56268721Y-70890953D02*
X56363959Y-70890953D01*
X56363959Y-70890953D02*
X56459197Y-71367143D01*
X56792531Y-70319524D02*
X56744912Y-70414762D01*
X56744912Y-70414762D02*
X56649673Y-70462381D01*
X56649673Y-70462381D02*
X55792531Y-70462381D01*
X56792531Y-69367143D02*
X56316340Y-69700476D01*
X56792531Y-69938571D02*
X55792531Y-69938571D01*
X55792531Y-69938571D02*
X55792531Y-69557619D01*
X55792531Y-69557619D02*
X55840150Y-69462381D01*
X55840150Y-69462381D02*
X55887769Y-69414762D01*
X55887769Y-69414762D02*
X55983007Y-69367143D01*
X55983007Y-69367143D02*
X56125864Y-69367143D01*
X56125864Y-69367143D02*
X56221102Y-69414762D01*
X56221102Y-69414762D02*
X56268721Y-69462381D01*
X56268721Y-69462381D02*
X56316340Y-69557619D01*
X56316340Y-69557619D02*
X56316340Y-69938571D01*
X56792531Y-68795714D02*
X56744912Y-68890952D01*
X56744912Y-68890952D02*
X56697292Y-68938571D01*
X56697292Y-68938571D02*
X56602054Y-68986190D01*
X56602054Y-68986190D02*
X56316340Y-68986190D01*
X56316340Y-68986190D02*
X56221102Y-68938571D01*
X56221102Y-68938571D02*
X56173483Y-68890952D01*
X56173483Y-68890952D02*
X56125864Y-68795714D01*
X56125864Y-68795714D02*
X56125864Y-68652857D01*
X56125864Y-68652857D02*
X56173483Y-68557619D01*
X56173483Y-68557619D02*
X56221102Y-68510000D01*
X56221102Y-68510000D02*
X56316340Y-68462381D01*
X56316340Y-68462381D02*
X56602054Y-68462381D01*
X56602054Y-68462381D02*
X56697292Y-68510000D01*
X56697292Y-68510000D02*
X56744912Y-68557619D01*
X56744912Y-68557619D02*
X56792531Y-68652857D01*
X56792531Y-68652857D02*
X56792531Y-68795714D01*
X56125864Y-67605238D02*
X56792531Y-67605238D01*
X56125864Y-68033809D02*
X56649673Y-68033809D01*
X56649673Y-68033809D02*
X56744912Y-67986190D01*
X56744912Y-67986190D02*
X56792531Y-67890952D01*
X56792531Y-67890952D02*
X56792531Y-67748095D01*
X56792531Y-67748095D02*
X56744912Y-67652857D01*
X56744912Y-67652857D02*
X56697292Y-67605238D01*
X56744912Y-67176666D02*
X56792531Y-67081428D01*
X56792531Y-67081428D02*
X56792531Y-66890952D01*
X56792531Y-66890952D02*
X56744912Y-66795714D01*
X56744912Y-66795714D02*
X56649673Y-66748095D01*
X56649673Y-66748095D02*
X56602054Y-66748095D01*
X56602054Y-66748095D02*
X56506816Y-66795714D01*
X56506816Y-66795714D02*
X56459197Y-66890952D01*
X56459197Y-66890952D02*
X56459197Y-67033809D01*
X56459197Y-67033809D02*
X56411578Y-67129047D01*
X56411578Y-67129047D02*
X56316340Y-67176666D01*
X56316340Y-67176666D02*
X56268721Y-67176666D01*
X56268721Y-67176666D02*
X56173483Y-67129047D01*
X56173483Y-67129047D02*
X56125864Y-67033809D01*
X56125864Y-67033809D02*
X56125864Y-66890952D01*
X56125864Y-66890952D02*
X56173483Y-66795714D01*
X56744912Y-65938571D02*
X56792531Y-66033809D01*
X56792531Y-66033809D02*
X56792531Y-66224285D01*
X56792531Y-66224285D02*
X56744912Y-66319523D01*
X56744912Y-66319523D02*
X56649673Y-66367142D01*
X56649673Y-66367142D02*
X56268721Y-66367142D01*
X56268721Y-66367142D02*
X56173483Y-66319523D01*
X56173483Y-66319523D02*
X56125864Y-66224285D01*
X56125864Y-66224285D02*
X56125864Y-66033809D01*
X56125864Y-66033809D02*
X56173483Y-65938571D01*
X56173483Y-65938571D02*
X56268721Y-65890952D01*
X56268721Y-65890952D02*
X56363959Y-65890952D01*
X56363959Y-65890952D02*
X56459197Y-66367142D01*
X56792531Y-64271904D02*
X55792531Y-64271904D01*
X56744912Y-64271904D02*
X56792531Y-64367142D01*
X56792531Y-64367142D02*
X56792531Y-64557618D01*
X56792531Y-64557618D02*
X56744912Y-64652856D01*
X56744912Y-64652856D02*
X56697292Y-64700475D01*
X56697292Y-64700475D02*
X56602054Y-64748094D01*
X56602054Y-64748094D02*
X56316340Y-64748094D01*
X56316340Y-64748094D02*
X56221102Y-64700475D01*
X56221102Y-64700475D02*
X56173483Y-64652856D01*
X56173483Y-64652856D02*
X56125864Y-64557618D01*
X56125864Y-64557618D02*
X56125864Y-64367142D01*
X56125864Y-64367142D02*
X56173483Y-64271904D01*
X56744912Y-63414761D02*
X56792531Y-63509999D01*
X56792531Y-63509999D02*
X56792531Y-63700475D01*
X56792531Y-63700475D02*
X56744912Y-63795713D01*
X56744912Y-63795713D02*
X56649673Y-63843332D01*
X56649673Y-63843332D02*
X56268721Y-63843332D01*
X56268721Y-63843332D02*
X56173483Y-63795713D01*
X56173483Y-63795713D02*
X56125864Y-63700475D01*
X56125864Y-63700475D02*
X56125864Y-63509999D01*
X56125864Y-63509999D02*
X56173483Y-63414761D01*
X56173483Y-63414761D02*
X56268721Y-63367142D01*
X56268721Y-63367142D02*
X56363959Y-63367142D01*
X56363959Y-63367142D02*
X56459197Y-63843332D01*
X56125864Y-63033808D02*
X56792531Y-62795713D01*
X56792531Y-62795713D02*
X56125864Y-62557618D01*
X56316340Y-61557618D02*
X56268721Y-61605237D01*
X56268721Y-61605237D02*
X56221102Y-61700475D01*
X56221102Y-61700475D02*
X56221102Y-61795713D01*
X56221102Y-61795713D02*
X56268721Y-61890951D01*
X56268721Y-61890951D02*
X56316340Y-61938570D01*
X56316340Y-61938570D02*
X56411578Y-61986189D01*
X56411578Y-61986189D02*
X56506816Y-61986189D01*
X56506816Y-61986189D02*
X56602054Y-61938570D01*
X56602054Y-61938570D02*
X56649673Y-61890951D01*
X56649673Y-61890951D02*
X56697292Y-61795713D01*
X56697292Y-61795713D02*
X56697292Y-61700475D01*
X56697292Y-61700475D02*
X56649673Y-61605237D01*
X56649673Y-61605237D02*
X56602054Y-61557618D01*
X56221102Y-61557618D02*
X56602054Y-61557618D01*
X56602054Y-61557618D02*
X56649673Y-61509999D01*
X56649673Y-61509999D02*
X56649673Y-61462380D01*
X56649673Y-61462380D02*
X56602054Y-61367141D01*
X56602054Y-61367141D02*
X56506816Y-61319522D01*
X56506816Y-61319522D02*
X56268721Y-61319522D01*
X56268721Y-61319522D02*
X56125864Y-61414761D01*
X56125864Y-61414761D02*
X56030626Y-61557618D01*
X56030626Y-61557618D02*
X55983007Y-61748094D01*
X55983007Y-61748094D02*
X56030626Y-61938570D01*
X56030626Y-61938570D02*
X56125864Y-62081427D01*
X56125864Y-62081427D02*
X56268721Y-62176665D01*
X56268721Y-62176665D02*
X56459197Y-62224284D01*
X56459197Y-62224284D02*
X56649673Y-62176665D01*
X56649673Y-62176665D02*
X56792531Y-62081427D01*
X56792531Y-62081427D02*
X56887769Y-61938570D01*
X56887769Y-61938570D02*
X56935388Y-61748094D01*
X56935388Y-61748094D02*
X56887769Y-61557618D01*
X56887769Y-61557618D02*
X56792531Y-61414761D01*
X56792531Y-60367142D02*
X56792531Y-60938570D01*
X56792531Y-60652856D02*
X55792531Y-60652856D01*
X55792531Y-60652856D02*
X55935388Y-60748094D01*
X55935388Y-60748094D02*
X56030626Y-60843332D01*
X56030626Y-60843332D02*
X56078245Y-60938570D01*
X56744912Y-59509999D02*
X56792531Y-59605237D01*
X56792531Y-59605237D02*
X56792531Y-59795713D01*
X56792531Y-59795713D02*
X56744912Y-59890951D01*
X56744912Y-59890951D02*
X56697292Y-59938570D01*
X56697292Y-59938570D02*
X56602054Y-59986189D01*
X56602054Y-59986189D02*
X56316340Y-59986189D01*
X56316340Y-59986189D02*
X56221102Y-59938570D01*
X56221102Y-59938570D02*
X56173483Y-59890951D01*
X56173483Y-59890951D02*
X56125864Y-59795713D01*
X56125864Y-59795713D02*
X56125864Y-59605237D01*
X56125864Y-59605237D02*
X56173483Y-59509999D01*
X56792531Y-58652856D02*
X55792531Y-58652856D01*
X56744912Y-58652856D02*
X56792531Y-58748094D01*
X56792531Y-58748094D02*
X56792531Y-58938570D01*
X56792531Y-58938570D02*
X56744912Y-59033808D01*
X56744912Y-59033808D02*
X56697292Y-59081427D01*
X56697292Y-59081427D02*
X56602054Y-59129046D01*
X56602054Y-59129046D02*
X56316340Y-59129046D01*
X56316340Y-59129046D02*
X56221102Y-59081427D01*
X56221102Y-59081427D02*
X56173483Y-59033808D01*
X56173483Y-59033808D02*
X56125864Y-58938570D01*
X56125864Y-58938570D02*
X56125864Y-58748094D01*
X56125864Y-58748094D02*
X56173483Y-58652856D01*
X56744912Y-57795713D02*
X56792531Y-57890951D01*
X56792531Y-57890951D02*
X56792531Y-58081427D01*
X56792531Y-58081427D02*
X56744912Y-58176665D01*
X56744912Y-58176665D02*
X56649673Y-58224284D01*
X56649673Y-58224284D02*
X56268721Y-58224284D01*
X56268721Y-58224284D02*
X56173483Y-58176665D01*
X56173483Y-58176665D02*
X56125864Y-58081427D01*
X56125864Y-58081427D02*
X56125864Y-57890951D01*
X56125864Y-57890951D02*
X56173483Y-57795713D01*
X56173483Y-57795713D02*
X56268721Y-57748094D01*
X56268721Y-57748094D02*
X56363959Y-57748094D01*
X56363959Y-57748094D02*
X56459197Y-58224284D01*
X56125864Y-57414760D02*
X56792531Y-57176665D01*
X56792531Y-57176665D02*
X56125864Y-56938570D01*
X56697292Y-56557617D02*
X56744912Y-56509998D01*
X56744912Y-56509998D02*
X56792531Y-56557617D01*
X56792531Y-56557617D02*
X56744912Y-56605236D01*
X56744912Y-56605236D02*
X56697292Y-56557617D01*
X56697292Y-56557617D02*
X56792531Y-56557617D01*
X56792531Y-56081427D02*
X56125864Y-56081427D01*
X56316340Y-56081427D02*
X56221102Y-56033808D01*
X56221102Y-56033808D02*
X56173483Y-55986189D01*
X56173483Y-55986189D02*
X56125864Y-55890951D01*
X56125864Y-55890951D02*
X56125864Y-55795713D01*
X56125864Y-55033808D02*
X56792531Y-55033808D01*
X56125864Y-55462379D02*
X56649673Y-55462379D01*
X56649673Y-55462379D02*
X56744912Y-55414760D01*
X56744912Y-55414760D02*
X56792531Y-55319522D01*
X56792531Y-55319522D02*
X56792531Y-55176665D01*
X56792531Y-55176665D02*
X56744912Y-55081427D01*
X56744912Y-55081427D02*
X56697292Y-55033808D01*
X58402475Y-70105238D02*
X57402475Y-70105238D01*
X57783427Y-70105238D02*
X57735808Y-70010000D01*
X57735808Y-70010000D02*
X57735808Y-69819524D01*
X57735808Y-69819524D02*
X57783427Y-69724286D01*
X57783427Y-69724286D02*
X57831046Y-69676667D01*
X57831046Y-69676667D02*
X57926284Y-69629048D01*
X57926284Y-69629048D02*
X58211998Y-69629048D01*
X58211998Y-69629048D02*
X58307236Y-69676667D01*
X58307236Y-69676667D02*
X58354856Y-69724286D01*
X58354856Y-69724286D02*
X58402475Y-69819524D01*
X58402475Y-69819524D02*
X58402475Y-70010000D01*
X58402475Y-70010000D02*
X58354856Y-70105238D01*
X58402475Y-69057619D02*
X58354856Y-69152857D01*
X58354856Y-69152857D02*
X58307236Y-69200476D01*
X58307236Y-69200476D02*
X58211998Y-69248095D01*
X58211998Y-69248095D02*
X57926284Y-69248095D01*
X57926284Y-69248095D02*
X57831046Y-69200476D01*
X57831046Y-69200476D02*
X57783427Y-69152857D01*
X57783427Y-69152857D02*
X57735808Y-69057619D01*
X57735808Y-69057619D02*
X57735808Y-68914762D01*
X57735808Y-68914762D02*
X57783427Y-68819524D01*
X57783427Y-68819524D02*
X57831046Y-68771905D01*
X57831046Y-68771905D02*
X57926284Y-68724286D01*
X57926284Y-68724286D02*
X58211998Y-68724286D01*
X58211998Y-68724286D02*
X58307236Y-68771905D01*
X58307236Y-68771905D02*
X58354856Y-68819524D01*
X58354856Y-68819524D02*
X58402475Y-68914762D01*
X58402475Y-68914762D02*
X58402475Y-69057619D01*
X58402475Y-67867143D02*
X57878665Y-67867143D01*
X57878665Y-67867143D02*
X57783427Y-67914762D01*
X57783427Y-67914762D02*
X57735808Y-68010000D01*
X57735808Y-68010000D02*
X57735808Y-68200476D01*
X57735808Y-68200476D02*
X57783427Y-68295714D01*
X58354856Y-67867143D02*
X58402475Y-67962381D01*
X58402475Y-67962381D02*
X58402475Y-68200476D01*
X58402475Y-68200476D02*
X58354856Y-68295714D01*
X58354856Y-68295714D02*
X58259617Y-68343333D01*
X58259617Y-68343333D02*
X58164379Y-68343333D01*
X58164379Y-68343333D02*
X58069141Y-68295714D01*
X58069141Y-68295714D02*
X58021522Y-68200476D01*
X58021522Y-68200476D02*
X58021522Y-67962381D01*
X58021522Y-67962381D02*
X57973903Y-67867143D01*
X58402475Y-67390952D02*
X57735808Y-67390952D01*
X57926284Y-67390952D02*
X57831046Y-67343333D01*
X57831046Y-67343333D02*
X57783427Y-67295714D01*
X57783427Y-67295714D02*
X57735808Y-67200476D01*
X57735808Y-67200476D02*
X57735808Y-67105238D01*
X58402475Y-66343333D02*
X57402475Y-66343333D01*
X58354856Y-66343333D02*
X58402475Y-66438571D01*
X58402475Y-66438571D02*
X58402475Y-66629047D01*
X58402475Y-66629047D02*
X58354856Y-66724285D01*
X58354856Y-66724285D02*
X58307236Y-66771904D01*
X58307236Y-66771904D02*
X58211998Y-66819523D01*
X58211998Y-66819523D02*
X57926284Y-66819523D01*
X57926284Y-66819523D02*
X57831046Y-66771904D01*
X57831046Y-66771904D02*
X57783427Y-66724285D01*
X57783427Y-66724285D02*
X57735808Y-66629047D01*
X57735808Y-66629047D02*
X57735808Y-66438571D01*
X57735808Y-66438571D02*
X57783427Y-66343333D01*
X58354856Y-65914761D02*
X58402475Y-65819523D01*
X58402475Y-65819523D02*
X58402475Y-65629047D01*
X58402475Y-65629047D02*
X58354856Y-65533809D01*
X58354856Y-65533809D02*
X58259617Y-65486190D01*
X58259617Y-65486190D02*
X58211998Y-65486190D01*
X58211998Y-65486190D02*
X58116760Y-65533809D01*
X58116760Y-65533809D02*
X58069141Y-65629047D01*
X58069141Y-65629047D02*
X58069141Y-65771904D01*
X58069141Y-65771904D02*
X58021522Y-65867142D01*
X58021522Y-65867142D02*
X57926284Y-65914761D01*
X57926284Y-65914761D02*
X57878665Y-65914761D01*
X57878665Y-65914761D02*
X57783427Y-65867142D01*
X57783427Y-65867142D02*
X57735808Y-65771904D01*
X57735808Y-65771904D02*
X57735808Y-65629047D01*
X57735808Y-65629047D02*
X57783427Y-65533809D01*
X57926284Y-64438571D02*
X57878665Y-64486190D01*
X57878665Y-64486190D02*
X57831046Y-64581428D01*
X57831046Y-64581428D02*
X57831046Y-64676666D01*
X57831046Y-64676666D02*
X57878665Y-64771904D01*
X57878665Y-64771904D02*
X57926284Y-64819523D01*
X57926284Y-64819523D02*
X58021522Y-64867142D01*
X58021522Y-64867142D02*
X58116760Y-64867142D01*
X58116760Y-64867142D02*
X58211998Y-64819523D01*
X58211998Y-64819523D02*
X58259617Y-64771904D01*
X58259617Y-64771904D02*
X58307236Y-64676666D01*
X58307236Y-64676666D02*
X58307236Y-64581428D01*
X58307236Y-64581428D02*
X58259617Y-64486190D01*
X58259617Y-64486190D02*
X58211998Y-64438571D01*
X57831046Y-64438571D02*
X58211998Y-64438571D01*
X58211998Y-64438571D02*
X58259617Y-64390952D01*
X58259617Y-64390952D02*
X58259617Y-64343333D01*
X58259617Y-64343333D02*
X58211998Y-64248094D01*
X58211998Y-64248094D02*
X58116760Y-64200475D01*
X58116760Y-64200475D02*
X57878665Y-64200475D01*
X57878665Y-64200475D02*
X57735808Y-64295714D01*
X57735808Y-64295714D02*
X57640570Y-64438571D01*
X57640570Y-64438571D02*
X57592951Y-64629047D01*
X57592951Y-64629047D02*
X57640570Y-64819523D01*
X57640570Y-64819523D02*
X57735808Y-64962380D01*
X57735808Y-64962380D02*
X57878665Y-65057618D01*
X57878665Y-65057618D02*
X58069141Y-65105237D01*
X58069141Y-65105237D02*
X58259617Y-65057618D01*
X58259617Y-65057618D02*
X58402475Y-64962380D01*
X58402475Y-64962380D02*
X58497713Y-64819523D01*
X58497713Y-64819523D02*
X58545332Y-64629047D01*
X58545332Y-64629047D02*
X58497713Y-64438571D01*
X58497713Y-64438571D02*
X58402475Y-64295714D01*
X58402475Y-63248095D02*
X58402475Y-63819523D01*
X58402475Y-63533809D02*
X57402475Y-63533809D01*
X57402475Y-63533809D02*
X57545332Y-63629047D01*
X57545332Y-63629047D02*
X57640570Y-63724285D01*
X57640570Y-63724285D02*
X57688189Y-63819523D01*
X58354856Y-62390952D02*
X58402475Y-62486190D01*
X58402475Y-62486190D02*
X58402475Y-62676666D01*
X58402475Y-62676666D02*
X58354856Y-62771904D01*
X58354856Y-62771904D02*
X58307236Y-62819523D01*
X58307236Y-62819523D02*
X58211998Y-62867142D01*
X58211998Y-62867142D02*
X57926284Y-62867142D01*
X57926284Y-62867142D02*
X57831046Y-62819523D01*
X57831046Y-62819523D02*
X57783427Y-62771904D01*
X57783427Y-62771904D02*
X57735808Y-62676666D01*
X57735808Y-62676666D02*
X57735808Y-62486190D01*
X57735808Y-62486190D02*
X57783427Y-62390952D01*
X58402475Y-61533809D02*
X57402475Y-61533809D01*
X58354856Y-61533809D02*
X58402475Y-61629047D01*
X58402475Y-61629047D02*
X58402475Y-61819523D01*
X58402475Y-61819523D02*
X58354856Y-61914761D01*
X58354856Y-61914761D02*
X58307236Y-61962380D01*
X58307236Y-61962380D02*
X58211998Y-62009999D01*
X58211998Y-62009999D02*
X57926284Y-62009999D01*
X57926284Y-62009999D02*
X57831046Y-61962380D01*
X57831046Y-61962380D02*
X57783427Y-61914761D01*
X57783427Y-61914761D02*
X57735808Y-61819523D01*
X57735808Y-61819523D02*
X57735808Y-61629047D01*
X57735808Y-61629047D02*
X57783427Y-61533809D01*
X58354856Y-60676666D02*
X58402475Y-60771904D01*
X58402475Y-60771904D02*
X58402475Y-60962380D01*
X58402475Y-60962380D02*
X58354856Y-61057618D01*
X58354856Y-61057618D02*
X58259617Y-61105237D01*
X58259617Y-61105237D02*
X57878665Y-61105237D01*
X57878665Y-61105237D02*
X57783427Y-61057618D01*
X57783427Y-61057618D02*
X57735808Y-60962380D01*
X57735808Y-60962380D02*
X57735808Y-60771904D01*
X57735808Y-60771904D02*
X57783427Y-60676666D01*
X57783427Y-60676666D02*
X57878665Y-60629047D01*
X57878665Y-60629047D02*
X57973903Y-60629047D01*
X57973903Y-60629047D02*
X58069141Y-61105237D01*
X57735808Y-60295713D02*
X58402475Y-60057618D01*
X58402475Y-60057618D02*
X57735808Y-59819523D01*
X58307236Y-59438570D02*
X58354856Y-59390951D01*
X58354856Y-59390951D02*
X58402475Y-59438570D01*
X58402475Y-59438570D02*
X58354856Y-59486189D01*
X58354856Y-59486189D02*
X58307236Y-59438570D01*
X58307236Y-59438570D02*
X58402475Y-59438570D01*
X58402475Y-58962380D02*
X57735808Y-58962380D01*
X57926284Y-58962380D02*
X57831046Y-58914761D01*
X57831046Y-58914761D02*
X57783427Y-58867142D01*
X57783427Y-58867142D02*
X57735808Y-58771904D01*
X57735808Y-58771904D02*
X57735808Y-58676666D01*
X57735808Y-57914761D02*
X58402475Y-57914761D01*
X57735808Y-58343332D02*
X58259617Y-58343332D01*
X58259617Y-58343332D02*
X58354856Y-58295713D01*
X58354856Y-58295713D02*
X58402475Y-58200475D01*
X58402475Y-58200475D02*
X58402475Y-58057618D01*
X58402475Y-58057618D02*
X58354856Y-57962380D01*
X58354856Y-57962380D02*
X58307236Y-57914761D01*
X59012419Y-68319523D02*
X59012419Y-68129047D01*
X59012419Y-68129047D02*
X59060038Y-68033809D01*
X59060038Y-68033809D02*
X59155276Y-67938571D01*
X59155276Y-67938571D02*
X59345752Y-67890952D01*
X59345752Y-67890952D02*
X59679085Y-67890952D01*
X59679085Y-67890952D02*
X59869561Y-67938571D01*
X59869561Y-67938571D02*
X59964800Y-68033809D01*
X59964800Y-68033809D02*
X60012419Y-68129047D01*
X60012419Y-68129047D02*
X60012419Y-68319523D01*
X60012419Y-68319523D02*
X59964800Y-68414761D01*
X59964800Y-68414761D02*
X59869561Y-68509999D01*
X59869561Y-68509999D02*
X59679085Y-68557618D01*
X59679085Y-68557618D02*
X59345752Y-68557618D01*
X59345752Y-68557618D02*
X59155276Y-68509999D01*
X59155276Y-68509999D02*
X59060038Y-68414761D01*
X59060038Y-68414761D02*
X59012419Y-68319523D01*
X59917180Y-67462380D02*
X59964800Y-67414761D01*
X59964800Y-67414761D02*
X60012419Y-67462380D01*
X60012419Y-67462380D02*
X59964800Y-67509999D01*
X59964800Y-67509999D02*
X59917180Y-67462380D01*
X59917180Y-67462380D02*
X60012419Y-67462380D01*
X59631466Y-67462380D02*
X59060038Y-67509999D01*
X59060038Y-67509999D02*
X59012419Y-67462380D01*
X59012419Y-67462380D02*
X59060038Y-67414761D01*
X59060038Y-67414761D02*
X59631466Y-67462380D01*
X59631466Y-67462380D02*
X59012419Y-67462380D01*
X59488609Y-66652857D02*
X59536228Y-66510000D01*
X59536228Y-66510000D02*
X59583847Y-66462381D01*
X59583847Y-66462381D02*
X59679085Y-66414762D01*
X59679085Y-66414762D02*
X59821942Y-66414762D01*
X59821942Y-66414762D02*
X59917180Y-66462381D01*
X59917180Y-66462381D02*
X59964800Y-66510000D01*
X59964800Y-66510000D02*
X60012419Y-66605238D01*
X60012419Y-66605238D02*
X60012419Y-66986190D01*
X60012419Y-66986190D02*
X59012419Y-66986190D01*
X59012419Y-66986190D02*
X59012419Y-66652857D01*
X59012419Y-66652857D02*
X59060038Y-66557619D01*
X59060038Y-66557619D02*
X59107657Y-66510000D01*
X59107657Y-66510000D02*
X59202895Y-66462381D01*
X59202895Y-66462381D02*
X59298133Y-66462381D01*
X59298133Y-66462381D02*
X59393371Y-66510000D01*
X59393371Y-66510000D02*
X59440990Y-66557619D01*
X59440990Y-66557619D02*
X59488609Y-66652857D01*
X59488609Y-66652857D02*
X59488609Y-66986190D01*
X60012419Y-65510000D02*
X60012419Y-65986190D01*
X60012419Y-65986190D02*
X59012419Y-65986190D01*
X59012419Y-65319523D02*
X59012419Y-64748095D01*
X60012419Y-65033809D02*
X59012419Y-65033809D01*
X59964800Y-63700475D02*
X60012419Y-63557618D01*
X60012419Y-63557618D02*
X60012419Y-63319523D01*
X60012419Y-63319523D02*
X59964800Y-63224285D01*
X59964800Y-63224285D02*
X59917180Y-63176666D01*
X59917180Y-63176666D02*
X59821942Y-63129047D01*
X59821942Y-63129047D02*
X59726704Y-63129047D01*
X59726704Y-63129047D02*
X59631466Y-63176666D01*
X59631466Y-63176666D02*
X59583847Y-63224285D01*
X59583847Y-63224285D02*
X59536228Y-63319523D01*
X59536228Y-63319523D02*
X59488609Y-63509999D01*
X59488609Y-63509999D02*
X59440990Y-63605237D01*
X59440990Y-63605237D02*
X59393371Y-63652856D01*
X59393371Y-63652856D02*
X59298133Y-63700475D01*
X59298133Y-63700475D02*
X59202895Y-63700475D01*
X59202895Y-63700475D02*
X59107657Y-63652856D01*
X59107657Y-63652856D02*
X59060038Y-63605237D01*
X59060038Y-63605237D02*
X59012419Y-63509999D01*
X59012419Y-63509999D02*
X59012419Y-63271904D01*
X59012419Y-63271904D02*
X59060038Y-63129047D01*
X60012419Y-62700475D02*
X59012419Y-62700475D01*
X60012419Y-62271904D02*
X59488609Y-62271904D01*
X59488609Y-62271904D02*
X59393371Y-62319523D01*
X59393371Y-62319523D02*
X59345752Y-62414761D01*
X59345752Y-62414761D02*
X59345752Y-62557618D01*
X59345752Y-62557618D02*
X59393371Y-62652856D01*
X59393371Y-62652856D02*
X59440990Y-62700475D01*
X60012419Y-61795713D02*
X59345752Y-61795713D01*
X59012419Y-61795713D02*
X59060038Y-61843332D01*
X59060038Y-61843332D02*
X59107657Y-61795713D01*
X59107657Y-61795713D02*
X59060038Y-61748094D01*
X59060038Y-61748094D02*
X59012419Y-61795713D01*
X59012419Y-61795713D02*
X59107657Y-61795713D01*
X59964800Y-60938571D02*
X60012419Y-61033809D01*
X60012419Y-61033809D02*
X60012419Y-61224285D01*
X60012419Y-61224285D02*
X59964800Y-61319523D01*
X59964800Y-61319523D02*
X59869561Y-61367142D01*
X59869561Y-61367142D02*
X59488609Y-61367142D01*
X59488609Y-61367142D02*
X59393371Y-61319523D01*
X59393371Y-61319523D02*
X59345752Y-61224285D01*
X59345752Y-61224285D02*
X59345752Y-61033809D01*
X59345752Y-61033809D02*
X59393371Y-60938571D01*
X59393371Y-60938571D02*
X59488609Y-60890952D01*
X59488609Y-60890952D02*
X59583847Y-60890952D01*
X59583847Y-60890952D02*
X59679085Y-61367142D01*
X60012419Y-60319523D02*
X59964800Y-60414761D01*
X59964800Y-60414761D02*
X59869561Y-60462380D01*
X59869561Y-60462380D02*
X59012419Y-60462380D01*
X60012419Y-59509999D02*
X59012419Y-59509999D01*
X59964800Y-59509999D02*
X60012419Y-59605237D01*
X60012419Y-59605237D02*
X60012419Y-59795713D01*
X60012419Y-59795713D02*
X59964800Y-59890951D01*
X59964800Y-59890951D02*
X59917180Y-59938570D01*
X59917180Y-59938570D02*
X59821942Y-59986189D01*
X59821942Y-59986189D02*
X59536228Y-59986189D01*
X59536228Y-59986189D02*
X59440990Y-59938570D01*
X59440990Y-59938570D02*
X59393371Y-59890951D01*
X59393371Y-59890951D02*
X59345752Y-59795713D01*
X59345752Y-59795713D02*
X59345752Y-59605237D01*
X59345752Y-59605237D02*
X59393371Y-59509999D01*
D11*
X74106666Y-36324819D02*
X74106666Y-37039104D01*
X74106666Y-37039104D02*
X74059047Y-37181961D01*
X74059047Y-37181961D02*
X73963809Y-37277200D01*
X73963809Y-37277200D02*
X73820952Y-37324819D01*
X73820952Y-37324819D02*
X73725714Y-37324819D01*
X74725714Y-36753390D02*
X74630476Y-36705771D01*
X74630476Y-36705771D02*
X74582857Y-36658152D01*
X74582857Y-36658152D02*
X74535238Y-36562914D01*
X74535238Y-36562914D02*
X74535238Y-36515295D01*
X74535238Y-36515295D02*
X74582857Y-36420057D01*
X74582857Y-36420057D02*
X74630476Y-36372438D01*
X74630476Y-36372438D02*
X74725714Y-36324819D01*
X74725714Y-36324819D02*
X74916190Y-36324819D01*
X74916190Y-36324819D02*
X75011428Y-36372438D01*
X75011428Y-36372438D02*
X75059047Y-36420057D01*
X75059047Y-36420057D02*
X75106666Y-36515295D01*
X75106666Y-36515295D02*
X75106666Y-36562914D01*
X75106666Y-36562914D02*
X75059047Y-36658152D01*
X75059047Y-36658152D02*
X75011428Y-36705771D01*
X75011428Y-36705771D02*
X74916190Y-36753390D01*
X74916190Y-36753390D02*
X74725714Y-36753390D01*
X74725714Y-36753390D02*
X74630476Y-36801009D01*
X74630476Y-36801009D02*
X74582857Y-36848628D01*
X74582857Y-36848628D02*
X74535238Y-36943866D01*
X74535238Y-36943866D02*
X74535238Y-37134342D01*
X74535238Y-37134342D02*
X74582857Y-37229580D01*
X74582857Y-37229580D02*
X74630476Y-37277200D01*
X74630476Y-37277200D02*
X74725714Y-37324819D01*
X74725714Y-37324819D02*
X74916190Y-37324819D01*
X74916190Y-37324819D02*
X75011428Y-37277200D01*
X75011428Y-37277200D02*
X75059047Y-37229580D01*
X75059047Y-37229580D02*
X75106666Y-37134342D01*
X75106666Y-37134342D02*
X75106666Y-36943866D01*
X75106666Y-36943866D02*
X75059047Y-36848628D01*
X75059047Y-36848628D02*
X75011428Y-36801009D01*
X75011428Y-36801009D02*
X74916190Y-36753390D01*
X20936666Y-20424819D02*
X20936666Y-21139104D01*
X20936666Y-21139104D02*
X20889047Y-21281961D01*
X20889047Y-21281961D02*
X20793809Y-21377200D01*
X20793809Y-21377200D02*
X20650952Y-21424819D01*
X20650952Y-21424819D02*
X20555714Y-21424819D01*
X21936666Y-21424819D02*
X21365238Y-21424819D01*
X21650952Y-21424819D02*
X21650952Y-20424819D01*
X21650952Y-20424819D02*
X21555714Y-20567676D01*
X21555714Y-20567676D02*
X21460476Y-20662914D01*
X21460476Y-20662914D02*
X21365238Y-20710533D01*
D12*
G04 #@! TO.C,J8*
X73170000Y-40590000D02*
X73170000Y-45730000D01*
X73170000Y-40590000D02*
X75830000Y-40590000D01*
X73170000Y-45730000D02*
X75830000Y-45730000D01*
X74500000Y-37990000D02*
X75830000Y-37990000D01*
X75830000Y-37990000D02*
X75830000Y-39320000D01*
X75830000Y-40590000D02*
X75830000Y-45730000D01*
G04 #@! TO.C,J1*
X21560000Y-22600000D02*
X21560000Y-73520000D01*
X21560000Y-22600000D02*
X24160000Y-22600000D01*
X21560000Y-73520000D02*
X26760000Y-73520000D01*
X24160000Y-22600000D02*
X24160000Y-25200000D01*
X24160000Y-25200000D02*
X26760000Y-25200000D01*
X25430000Y-22600000D02*
X26760000Y-22600000D01*
X26760000Y-22600000D02*
X26760000Y-23930000D01*
X26760000Y-25200000D02*
X26760000Y-73520000D01*
G04 #@! TD*
%LPC*%
D13*
G04 #@! TO.C,J8*
X74500000Y-39320000D03*
D14*
X74500000Y-41860000D03*
X74500000Y-44400000D03*
G04 #@! TD*
D13*
G04 #@! TO.C,J1*
X25430000Y-23930000D03*
D14*
X22890000Y-23930000D03*
X25430000Y-26470000D03*
X22890000Y-26470000D03*
X25430000Y-29010000D03*
X22890000Y-29010000D03*
X25430000Y-31550000D03*
X22890000Y-31550000D03*
X25430000Y-34090000D03*
X22890000Y-34090000D03*
X25430000Y-36630000D03*
X22890000Y-36630000D03*
X25430000Y-39170000D03*
X22890000Y-39170000D03*
X25430000Y-41710000D03*
X22890000Y-41710000D03*
X25430000Y-44250000D03*
X22890000Y-44250000D03*
X25430000Y-46790000D03*
X22890000Y-46790000D03*
X25430000Y-49330000D03*
X22890000Y-49330000D03*
X25430000Y-51870000D03*
X22890000Y-51870000D03*
X25430000Y-54410000D03*
X22890000Y-54410000D03*
X25430000Y-56950000D03*
X22890000Y-56950000D03*
X25430000Y-59490000D03*
X22890000Y-59490000D03*
X25430000Y-62030000D03*
X22890000Y-62030000D03*
X25430000Y-64570000D03*
X22890000Y-64570000D03*
X25430000Y-67110000D03*
X22890000Y-67110000D03*
X25430000Y-69650000D03*
X22890000Y-69650000D03*
X25430000Y-72190000D03*
X22890000Y-72190000D03*
G04 #@! TD*
D13*
G04 #@! TO.C,J16*
X63230000Y-19670000D03*
D14*
X63230000Y-22210000D03*
X63230000Y-24750000D03*
X63230000Y-27290000D03*
X63230000Y-29830000D03*
G04 #@! TD*
D13*
G04 #@! TO.C,J7*
X48910000Y-39190000D03*
D14*
X48910000Y-41730000D03*
X48910000Y-44270000D03*
G04 #@! TD*
D13*
G04 #@! TO.C,J9*
X70740000Y-39340000D03*
D14*
X70740000Y-41880000D03*
X70740000Y-44420000D03*
G04 #@! TD*
D13*
G04 #@! TO.C,J17*
X30480000Y-19430000D03*
D14*
X27940000Y-19430000D03*
X25400000Y-19430000D03*
G04 #@! TD*
D15*
G04 #@! TO.C,U1*
X44120000Y-23910000D03*
D16*
X44120000Y-26450000D03*
X44120000Y-28990000D03*
X44120000Y-31530000D03*
X44120000Y-34070000D03*
X44120000Y-36610000D03*
X44120000Y-39150000D03*
X44120000Y-41690000D03*
X44120000Y-44230000D03*
X44120000Y-46770000D03*
X44120000Y-49310000D03*
X44120000Y-51850000D03*
X44120000Y-54390000D03*
X44120000Y-56930000D03*
X44120000Y-59470000D03*
X44120000Y-62010000D03*
X44120000Y-64550000D03*
X44120000Y-67090000D03*
X44120000Y-69630000D03*
X44120000Y-72170000D03*
X29120000Y-72170000D03*
X29120000Y-69630000D03*
X29120000Y-67090000D03*
X29120000Y-64550000D03*
X29120000Y-62010000D03*
X29120000Y-59470000D03*
X29120000Y-56930000D03*
X29120000Y-54390000D03*
X29120000Y-51850000D03*
X29120000Y-49310000D03*
X29120000Y-46770000D03*
X29120000Y-44230000D03*
X29120000Y-41690000D03*
X29120000Y-39150000D03*
X29120000Y-36610000D03*
X29120000Y-34070000D03*
X29120000Y-31530000D03*
X29120000Y-28990000D03*
X29120000Y-26450000D03*
X29120000Y-23910000D03*
G04 #@! TD*
D13*
G04 #@! TO.C,J3*
X74560000Y-68660000D03*
D14*
X74560000Y-71200000D03*
X74560000Y-73740000D03*
X74560000Y-76280000D03*
X74560000Y-78820000D03*
X74560000Y-81360000D03*
X74560000Y-83900000D03*
G04 #@! TD*
D13*
G04 #@! TO.C,J14*
X55980000Y-19680000D03*
D14*
X55980000Y-22220000D03*
X55980000Y-24760000D03*
X55980000Y-27300000D03*
X55980000Y-29840000D03*
G04 #@! TD*
D13*
G04 #@! TO.C,J2*
X74570000Y-49840000D03*
D14*
X74570000Y-52380000D03*
X74570000Y-54920000D03*
X74570000Y-57460000D03*
X74570000Y-60000000D03*
X74570000Y-62540000D03*
X74570000Y-65080000D03*
G04 #@! TD*
D13*
G04 #@! TO.C,J6*
X67280000Y-22200000D03*
D14*
X67280000Y-24740000D03*
X67280000Y-27280000D03*
G04 #@! TD*
D13*
G04 #@! TO.C,J13*
X52340000Y-19680000D03*
D14*
X52340000Y-22220000D03*
X52340000Y-24760000D03*
X52340000Y-27300000D03*
X52340000Y-29840000D03*
G04 #@! TD*
D13*
G04 #@! TO.C,J5*
X70880000Y-22200000D03*
D14*
X70880000Y-24740000D03*
X70880000Y-27280000D03*
G04 #@! TD*
D13*
G04 #@! TO.C,J4*
X74520000Y-22200000D03*
D14*
X74520000Y-24740000D03*
X74520000Y-27280000D03*
G04 #@! TD*
D13*
G04 #@! TO.C,J11*
X49690000Y-63120000D03*
D14*
X49690000Y-65660000D03*
X49690000Y-68200000D03*
X49690000Y-70740000D03*
G04 #@! TD*
D13*
G04 #@! TO.C,J15*
X59610000Y-19690000D03*
D14*
X59610000Y-22230000D03*
X59610000Y-24770000D03*
X59610000Y-27310000D03*
X59610000Y-29850000D03*
G04 #@! TD*
D13*
G04 #@! TO.C,J12*
X48660000Y-22250000D03*
D14*
X48660000Y-24790000D03*
X48660000Y-27330000D03*
X48660000Y-29870000D03*
X48660000Y-32410000D03*
G04 #@! TD*
%LPD*%
M02*
