G04 #@! TF.GenerationSoftware,KiCad,Pcbnew,8.0.5*
G04 #@! TF.CreationDate,2024-10-14T11:26:21+05:00*
G04 #@! TF.ProjectId,2floor_for_orange_pi,32666c6f-6f72-45f6-966f-725f6f72616e,rev?*
G04 #@! TF.SameCoordinates,Original*
G04 #@! TF.FileFunction,Legend,Bot*
G04 #@! TF.FilePolarity,Positive*
%FSLAX46Y46*%
G04 Gerber Fmt 4.6, Leading zero omitted, Abs format (unit mm)*
G04 Created by KiCad (PCBNEW 8.0.5) date 2024-10-14 11:26:21*
%MOMM*%
%LPD*%
G01*
G04 APERTURE LIST*
%ADD10C,0.100000*%
%ADD11C,0.150000*%
%ADD12C,0.120000*%
%ADD13R,1.700000X1.700000*%
%ADD14O,1.700000X1.700000*%
%ADD15R,2.000000X1.200000*%
%ADD16O,2.000000X1.200000*%
G04 APERTURE END LIST*
D10*
X56536115Y-79512419D02*
X56536115Y-78512419D01*
X56107544Y-79512419D02*
X56107544Y-78988609D01*
X56107544Y-78988609D02*
X56155163Y-78893371D01*
X56155163Y-78893371D02*
X56250401Y-78845752D01*
X56250401Y-78845752D02*
X56393258Y-78845752D01*
X56393258Y-78845752D02*
X56488496Y-78893371D01*
X56488496Y-78893371D02*
X56536115Y-78940990D01*
X55774210Y-78845752D02*
X55393258Y-78845752D01*
X55631353Y-78512419D02*
X55631353Y-79369561D01*
X55631353Y-79369561D02*
X55583734Y-79464800D01*
X55583734Y-79464800D02*
X55488496Y-79512419D01*
X55488496Y-79512419D02*
X55393258Y-79512419D01*
X55202781Y-78845752D02*
X54821829Y-78845752D01*
X55059924Y-78512419D02*
X55059924Y-79369561D01*
X55059924Y-79369561D02*
X55012305Y-79464800D01*
X55012305Y-79464800D02*
X54917067Y-79512419D01*
X54917067Y-79512419D02*
X54821829Y-79512419D01*
X54488495Y-78845752D02*
X54488495Y-79845752D01*
X54488495Y-78893371D02*
X54393257Y-78845752D01*
X54393257Y-78845752D02*
X54202781Y-78845752D01*
X54202781Y-78845752D02*
X54107543Y-78893371D01*
X54107543Y-78893371D02*
X54059924Y-78940990D01*
X54059924Y-78940990D02*
X54012305Y-79036228D01*
X54012305Y-79036228D02*
X54012305Y-79321942D01*
X54012305Y-79321942D02*
X54059924Y-79417180D01*
X54059924Y-79417180D02*
X54107543Y-79464800D01*
X54107543Y-79464800D02*
X54202781Y-79512419D01*
X54202781Y-79512419D02*
X54393257Y-79512419D01*
X54393257Y-79512419D02*
X54488495Y-79464800D01*
X53631352Y-79464800D02*
X53536114Y-79512419D01*
X53536114Y-79512419D02*
X53345638Y-79512419D01*
X53345638Y-79512419D02*
X53250400Y-79464800D01*
X53250400Y-79464800D02*
X53202781Y-79369561D01*
X53202781Y-79369561D02*
X53202781Y-79321942D01*
X53202781Y-79321942D02*
X53250400Y-79226704D01*
X53250400Y-79226704D02*
X53345638Y-79179085D01*
X53345638Y-79179085D02*
X53488495Y-79179085D01*
X53488495Y-79179085D02*
X53583733Y-79131466D01*
X53583733Y-79131466D02*
X53631352Y-79036228D01*
X53631352Y-79036228D02*
X53631352Y-78988609D01*
X53631352Y-78988609D02*
X53583733Y-78893371D01*
X53583733Y-78893371D02*
X53488495Y-78845752D01*
X53488495Y-78845752D02*
X53345638Y-78845752D01*
X53345638Y-78845752D02*
X53250400Y-78893371D01*
X52774209Y-79417180D02*
X52726590Y-79464800D01*
X52726590Y-79464800D02*
X52774209Y-79512419D01*
X52774209Y-79512419D02*
X52821828Y-79464800D01*
X52821828Y-79464800D02*
X52774209Y-79417180D01*
X52774209Y-79417180D02*
X52774209Y-79512419D01*
X52774209Y-78893371D02*
X52726590Y-78940990D01*
X52726590Y-78940990D02*
X52774209Y-78988609D01*
X52774209Y-78988609D02*
X52821828Y-78940990D01*
X52821828Y-78940990D02*
X52774209Y-78893371D01*
X52774209Y-78893371D02*
X52774209Y-78988609D01*
X51583734Y-78464800D02*
X52440876Y-79750514D01*
X50536115Y-78464800D02*
X51393257Y-79750514D01*
X49774210Y-78845752D02*
X49774210Y-79655276D01*
X49774210Y-79655276D02*
X49821829Y-79750514D01*
X49821829Y-79750514D02*
X49869448Y-79798133D01*
X49869448Y-79798133D02*
X49964686Y-79845752D01*
X49964686Y-79845752D02*
X50107543Y-79845752D01*
X50107543Y-79845752D02*
X50202781Y-79798133D01*
X49774210Y-79464800D02*
X49869448Y-79512419D01*
X49869448Y-79512419D02*
X50059924Y-79512419D01*
X50059924Y-79512419D02*
X50155162Y-79464800D01*
X50155162Y-79464800D02*
X50202781Y-79417180D01*
X50202781Y-79417180D02*
X50250400Y-79321942D01*
X50250400Y-79321942D02*
X50250400Y-79036228D01*
X50250400Y-79036228D02*
X50202781Y-78940990D01*
X50202781Y-78940990D02*
X50155162Y-78893371D01*
X50155162Y-78893371D02*
X50059924Y-78845752D01*
X50059924Y-78845752D02*
X49869448Y-78845752D01*
X49869448Y-78845752D02*
X49774210Y-78893371D01*
X49298019Y-79512419D02*
X49298019Y-78845752D01*
X49298019Y-78512419D02*
X49345638Y-78560038D01*
X49345638Y-78560038D02*
X49298019Y-78607657D01*
X49298019Y-78607657D02*
X49250400Y-78560038D01*
X49250400Y-78560038D02*
X49298019Y-78512419D01*
X49298019Y-78512419D02*
X49298019Y-78607657D01*
X48964686Y-78845752D02*
X48583734Y-78845752D01*
X48821829Y-78512419D02*
X48821829Y-79369561D01*
X48821829Y-79369561D02*
X48774210Y-79464800D01*
X48774210Y-79464800D02*
X48678972Y-79512419D01*
X48678972Y-79512419D02*
X48583734Y-79512419D01*
X48250400Y-79512419D02*
X48250400Y-78512419D01*
X47821829Y-79512419D02*
X47821829Y-78988609D01*
X47821829Y-78988609D02*
X47869448Y-78893371D01*
X47869448Y-78893371D02*
X47964686Y-78845752D01*
X47964686Y-78845752D02*
X48107543Y-78845752D01*
X48107543Y-78845752D02*
X48202781Y-78893371D01*
X48202781Y-78893371D02*
X48250400Y-78940990D01*
X46917067Y-78845752D02*
X46917067Y-79512419D01*
X47345638Y-78845752D02*
X47345638Y-79369561D01*
X47345638Y-79369561D02*
X47298019Y-79464800D01*
X47298019Y-79464800D02*
X47202781Y-79512419D01*
X47202781Y-79512419D02*
X47059924Y-79512419D01*
X47059924Y-79512419D02*
X46964686Y-79464800D01*
X46964686Y-79464800D02*
X46917067Y-79417180D01*
X46440876Y-79512419D02*
X46440876Y-78512419D01*
X46440876Y-78893371D02*
X46345638Y-78845752D01*
X46345638Y-78845752D02*
X46155162Y-78845752D01*
X46155162Y-78845752D02*
X46059924Y-78893371D01*
X46059924Y-78893371D02*
X46012305Y-78940990D01*
X46012305Y-78940990D02*
X45964686Y-79036228D01*
X45964686Y-79036228D02*
X45964686Y-79321942D01*
X45964686Y-79321942D02*
X46012305Y-79417180D01*
X46012305Y-79417180D02*
X46059924Y-79464800D01*
X46059924Y-79464800D02*
X46155162Y-79512419D01*
X46155162Y-79512419D02*
X46345638Y-79512419D01*
X46345638Y-79512419D02*
X46440876Y-79464800D01*
X45536114Y-79417180D02*
X45488495Y-79464800D01*
X45488495Y-79464800D02*
X45536114Y-79512419D01*
X45536114Y-79512419D02*
X45583733Y-79464800D01*
X45583733Y-79464800D02*
X45536114Y-79417180D01*
X45536114Y-79417180D02*
X45536114Y-79512419D01*
X44631353Y-79464800D02*
X44726591Y-79512419D01*
X44726591Y-79512419D02*
X44917067Y-79512419D01*
X44917067Y-79512419D02*
X45012305Y-79464800D01*
X45012305Y-79464800D02*
X45059924Y-79417180D01*
X45059924Y-79417180D02*
X45107543Y-79321942D01*
X45107543Y-79321942D02*
X45107543Y-79036228D01*
X45107543Y-79036228D02*
X45059924Y-78940990D01*
X45059924Y-78940990D02*
X45012305Y-78893371D01*
X45012305Y-78893371D02*
X44917067Y-78845752D01*
X44917067Y-78845752D02*
X44726591Y-78845752D01*
X44726591Y-78845752D02*
X44631353Y-78893371D01*
X44059924Y-79512419D02*
X44155162Y-79464800D01*
X44155162Y-79464800D02*
X44202781Y-79417180D01*
X44202781Y-79417180D02*
X44250400Y-79321942D01*
X44250400Y-79321942D02*
X44250400Y-79036228D01*
X44250400Y-79036228D02*
X44202781Y-78940990D01*
X44202781Y-78940990D02*
X44155162Y-78893371D01*
X44155162Y-78893371D02*
X44059924Y-78845752D01*
X44059924Y-78845752D02*
X43917067Y-78845752D01*
X43917067Y-78845752D02*
X43821829Y-78893371D01*
X43821829Y-78893371D02*
X43774210Y-78940990D01*
X43774210Y-78940990D02*
X43726591Y-79036228D01*
X43726591Y-79036228D02*
X43726591Y-79321942D01*
X43726591Y-79321942D02*
X43774210Y-79417180D01*
X43774210Y-79417180D02*
X43821829Y-79464800D01*
X43821829Y-79464800D02*
X43917067Y-79512419D01*
X43917067Y-79512419D02*
X44059924Y-79512419D01*
X43298019Y-79512419D02*
X43298019Y-78845752D01*
X43298019Y-78940990D02*
X43250400Y-78893371D01*
X43250400Y-78893371D02*
X43155162Y-78845752D01*
X43155162Y-78845752D02*
X43012305Y-78845752D01*
X43012305Y-78845752D02*
X42917067Y-78893371D01*
X42917067Y-78893371D02*
X42869448Y-78988609D01*
X42869448Y-78988609D02*
X42869448Y-79512419D01*
X42869448Y-78988609D02*
X42821829Y-78893371D01*
X42821829Y-78893371D02*
X42726591Y-78845752D01*
X42726591Y-78845752D02*
X42583734Y-78845752D01*
X42583734Y-78845752D02*
X42488495Y-78893371D01*
X42488495Y-78893371D02*
X42440876Y-78988609D01*
X42440876Y-78988609D02*
X42440876Y-79512419D01*
X41250401Y-78464800D02*
X42107543Y-79750514D01*
X40488496Y-79512419D02*
X40488496Y-78988609D01*
X40488496Y-78988609D02*
X40536115Y-78893371D01*
X40536115Y-78893371D02*
X40631353Y-78845752D01*
X40631353Y-78845752D02*
X40821829Y-78845752D01*
X40821829Y-78845752D02*
X40917067Y-78893371D01*
X40488496Y-79464800D02*
X40583734Y-79512419D01*
X40583734Y-79512419D02*
X40821829Y-79512419D01*
X40821829Y-79512419D02*
X40917067Y-79464800D01*
X40917067Y-79464800D02*
X40964686Y-79369561D01*
X40964686Y-79369561D02*
X40964686Y-79274323D01*
X40964686Y-79274323D02*
X40917067Y-79179085D01*
X40917067Y-79179085D02*
X40821829Y-79131466D01*
X40821829Y-79131466D02*
X40583734Y-79131466D01*
X40583734Y-79131466D02*
X40488496Y-79083847D01*
X39869448Y-79512419D02*
X39964686Y-79464800D01*
X39964686Y-79464800D02*
X40012305Y-79369561D01*
X40012305Y-79369561D02*
X40012305Y-78512419D01*
X39107543Y-79464800D02*
X39202781Y-79512419D01*
X39202781Y-79512419D02*
X39393257Y-79512419D01*
X39393257Y-79512419D02*
X39488495Y-79464800D01*
X39488495Y-79464800D02*
X39536114Y-79369561D01*
X39536114Y-79369561D02*
X39536114Y-78988609D01*
X39536114Y-78988609D02*
X39488495Y-78893371D01*
X39488495Y-78893371D02*
X39393257Y-78845752D01*
X39393257Y-78845752D02*
X39202781Y-78845752D01*
X39202781Y-78845752D02*
X39107543Y-78893371D01*
X39107543Y-78893371D02*
X39059924Y-78988609D01*
X39059924Y-78988609D02*
X39059924Y-79083847D01*
X39059924Y-79083847D02*
X39536114Y-79179085D01*
X38726590Y-79512419D02*
X38202781Y-78845752D01*
X38726590Y-78845752D02*
X38202781Y-79512419D01*
X37440876Y-79464800D02*
X37536114Y-79512419D01*
X37536114Y-79512419D02*
X37726590Y-79512419D01*
X37726590Y-79512419D02*
X37821828Y-79464800D01*
X37821828Y-79464800D02*
X37869447Y-79369561D01*
X37869447Y-79369561D02*
X37869447Y-78988609D01*
X37869447Y-78988609D02*
X37821828Y-78893371D01*
X37821828Y-78893371D02*
X37726590Y-78845752D01*
X37726590Y-78845752D02*
X37536114Y-78845752D01*
X37536114Y-78845752D02*
X37440876Y-78893371D01*
X37440876Y-78893371D02*
X37393257Y-78988609D01*
X37393257Y-78988609D02*
X37393257Y-79083847D01*
X37393257Y-79083847D02*
X37869447Y-79179085D01*
X37059923Y-78845752D02*
X36821828Y-79512419D01*
X36583733Y-78845752D02*
X36821828Y-79512419D01*
X36821828Y-79512419D02*
X36917066Y-79750514D01*
X36917066Y-79750514D02*
X36964685Y-79798133D01*
X36964685Y-79798133D02*
X37059923Y-79845752D01*
X35774209Y-79512419D02*
X35774209Y-78988609D01*
X35774209Y-78988609D02*
X35821828Y-78893371D01*
X35821828Y-78893371D02*
X35917066Y-78845752D01*
X35917066Y-78845752D02*
X36107542Y-78845752D01*
X36107542Y-78845752D02*
X36202780Y-78893371D01*
X35774209Y-79464800D02*
X35869447Y-79512419D01*
X35869447Y-79512419D02*
X36107542Y-79512419D01*
X36107542Y-79512419D02*
X36202780Y-79464800D01*
X36202780Y-79464800D02*
X36250399Y-79369561D01*
X36250399Y-79369561D02*
X36250399Y-79274323D01*
X36250399Y-79274323D02*
X36202780Y-79179085D01*
X36202780Y-79179085D02*
X36107542Y-79131466D01*
X36107542Y-79131466D02*
X35869447Y-79131466D01*
X35869447Y-79131466D02*
X35774209Y-79083847D01*
X35393256Y-78845752D02*
X35155161Y-79512419D01*
X35155161Y-79512419D02*
X34917066Y-78845752D01*
X34536113Y-79512419D02*
X34536113Y-78512419D01*
X34536113Y-78893371D02*
X34440875Y-78845752D01*
X34440875Y-78845752D02*
X34250399Y-78845752D01*
X34250399Y-78845752D02*
X34155161Y-78893371D01*
X34155161Y-78893371D02*
X34107542Y-78940990D01*
X34107542Y-78940990D02*
X34059923Y-79036228D01*
X34059923Y-79036228D02*
X34059923Y-79321942D01*
X34059923Y-79321942D02*
X34107542Y-79417180D01*
X34107542Y-79417180D02*
X34155161Y-79464800D01*
X34155161Y-79464800D02*
X34250399Y-79512419D01*
X34250399Y-79512419D02*
X34440875Y-79512419D01*
X34440875Y-79512419D02*
X34536113Y-79464800D01*
X32917066Y-78464800D02*
X33774208Y-79750514D01*
X32393256Y-78512419D02*
X32202780Y-78512419D01*
X32202780Y-78512419D02*
X32107542Y-78560038D01*
X32107542Y-78560038D02*
X32012304Y-78655276D01*
X32012304Y-78655276D02*
X31964685Y-78845752D01*
X31964685Y-78845752D02*
X31964685Y-79179085D01*
X31964685Y-79179085D02*
X32012304Y-79369561D01*
X32012304Y-79369561D02*
X32107542Y-79464800D01*
X32107542Y-79464800D02*
X32202780Y-79512419D01*
X32202780Y-79512419D02*
X32393256Y-79512419D01*
X32393256Y-79512419D02*
X32488494Y-79464800D01*
X32488494Y-79464800D02*
X32583732Y-79369561D01*
X32583732Y-79369561D02*
X32631351Y-79179085D01*
X32631351Y-79179085D02*
X32631351Y-78845752D01*
X32631351Y-78845752D02*
X32583732Y-78655276D01*
X32583732Y-78655276D02*
X32488494Y-78560038D01*
X32488494Y-78560038D02*
X32393256Y-78512419D01*
X31536113Y-79512419D02*
X31536113Y-78845752D01*
X31536113Y-79036228D02*
X31488494Y-78940990D01*
X31488494Y-78940990D02*
X31440875Y-78893371D01*
X31440875Y-78893371D02*
X31345637Y-78845752D01*
X31345637Y-78845752D02*
X31250399Y-78845752D01*
X30488494Y-79512419D02*
X30488494Y-78988609D01*
X30488494Y-78988609D02*
X30536113Y-78893371D01*
X30536113Y-78893371D02*
X30631351Y-78845752D01*
X30631351Y-78845752D02*
X30821827Y-78845752D01*
X30821827Y-78845752D02*
X30917065Y-78893371D01*
X30488494Y-79464800D02*
X30583732Y-79512419D01*
X30583732Y-79512419D02*
X30821827Y-79512419D01*
X30821827Y-79512419D02*
X30917065Y-79464800D01*
X30917065Y-79464800D02*
X30964684Y-79369561D01*
X30964684Y-79369561D02*
X30964684Y-79274323D01*
X30964684Y-79274323D02*
X30917065Y-79179085D01*
X30917065Y-79179085D02*
X30821827Y-79131466D01*
X30821827Y-79131466D02*
X30583732Y-79131466D01*
X30583732Y-79131466D02*
X30488494Y-79083847D01*
X30012303Y-78845752D02*
X30012303Y-79512419D01*
X30012303Y-78940990D02*
X29964684Y-78893371D01*
X29964684Y-78893371D02*
X29869446Y-78845752D01*
X29869446Y-78845752D02*
X29726589Y-78845752D01*
X29726589Y-78845752D02*
X29631351Y-78893371D01*
X29631351Y-78893371D02*
X29583732Y-78988609D01*
X29583732Y-78988609D02*
X29583732Y-79512419D01*
X28678970Y-78845752D02*
X28678970Y-79655276D01*
X28678970Y-79655276D02*
X28726589Y-79750514D01*
X28726589Y-79750514D02*
X28774208Y-79798133D01*
X28774208Y-79798133D02*
X28869446Y-79845752D01*
X28869446Y-79845752D02*
X29012303Y-79845752D01*
X29012303Y-79845752D02*
X29107541Y-79798133D01*
X28678970Y-79464800D02*
X28774208Y-79512419D01*
X28774208Y-79512419D02*
X28964684Y-79512419D01*
X28964684Y-79512419D02*
X29059922Y-79464800D01*
X29059922Y-79464800D02*
X29107541Y-79417180D01*
X29107541Y-79417180D02*
X29155160Y-79321942D01*
X29155160Y-79321942D02*
X29155160Y-79036228D01*
X29155160Y-79036228D02*
X29107541Y-78940990D01*
X29107541Y-78940990D02*
X29059922Y-78893371D01*
X29059922Y-78893371D02*
X28964684Y-78845752D01*
X28964684Y-78845752D02*
X28774208Y-78845752D01*
X28774208Y-78845752D02*
X28678970Y-78893371D01*
X27821827Y-79464800D02*
X27917065Y-79512419D01*
X27917065Y-79512419D02*
X28107541Y-79512419D01*
X28107541Y-79512419D02*
X28202779Y-79464800D01*
X28202779Y-79464800D02*
X28250398Y-79369561D01*
X28250398Y-79369561D02*
X28250398Y-78988609D01*
X28250398Y-78988609D02*
X28202779Y-78893371D01*
X28202779Y-78893371D02*
X28107541Y-78845752D01*
X28107541Y-78845752D02*
X27917065Y-78845752D01*
X27917065Y-78845752D02*
X27821827Y-78893371D01*
X27821827Y-78893371D02*
X27774208Y-78988609D01*
X27774208Y-78988609D02*
X27774208Y-79083847D01*
X27774208Y-79083847D02*
X28250398Y-79179085D01*
X27345636Y-79512419D02*
X27345636Y-78512419D01*
X27345636Y-78893371D02*
X27250398Y-78845752D01*
X27250398Y-78845752D02*
X27059922Y-78845752D01*
X27059922Y-78845752D02*
X26964684Y-78893371D01*
X26964684Y-78893371D02*
X26917065Y-78940990D01*
X26917065Y-78940990D02*
X26869446Y-79036228D01*
X26869446Y-79036228D02*
X26869446Y-79321942D01*
X26869446Y-79321942D02*
X26917065Y-79417180D01*
X26917065Y-79417180D02*
X26964684Y-79464800D01*
X26964684Y-79464800D02*
X27059922Y-79512419D01*
X27059922Y-79512419D02*
X27250398Y-79512419D01*
X27250398Y-79512419D02*
X27345636Y-79464800D01*
X26298017Y-79512419D02*
X26393255Y-79464800D01*
X26393255Y-79464800D02*
X26440874Y-79369561D01*
X26440874Y-79369561D02*
X26440874Y-78512419D01*
X25774207Y-79512419D02*
X25869445Y-79464800D01*
X25869445Y-79464800D02*
X25917064Y-79417180D01*
X25917064Y-79417180D02*
X25964683Y-79321942D01*
X25964683Y-79321942D02*
X25964683Y-79036228D01*
X25964683Y-79036228D02*
X25917064Y-78940990D01*
X25917064Y-78940990D02*
X25869445Y-78893371D01*
X25869445Y-78893371D02*
X25774207Y-78845752D01*
X25774207Y-78845752D02*
X25631350Y-78845752D01*
X25631350Y-78845752D02*
X25536112Y-78893371D01*
X25536112Y-78893371D02*
X25488493Y-78940990D01*
X25488493Y-78940990D02*
X25440874Y-79036228D01*
X25440874Y-79036228D02*
X25440874Y-79321942D01*
X25440874Y-79321942D02*
X25488493Y-79417180D01*
X25488493Y-79417180D02*
X25536112Y-79464800D01*
X25536112Y-79464800D02*
X25631350Y-79512419D01*
X25631350Y-79512419D02*
X25774207Y-79512419D01*
X24583731Y-79464800D02*
X24678969Y-79512419D01*
X24678969Y-79512419D02*
X24869445Y-79512419D01*
X24869445Y-79512419D02*
X24964683Y-79464800D01*
X24964683Y-79464800D02*
X25012302Y-79417180D01*
X25012302Y-79417180D02*
X25059921Y-79321942D01*
X25059921Y-79321942D02*
X25059921Y-79036228D01*
X25059921Y-79036228D02*
X25012302Y-78940990D01*
X25012302Y-78940990D02*
X24964683Y-78893371D01*
X24964683Y-78893371D02*
X24869445Y-78845752D01*
X24869445Y-78845752D02*
X24678969Y-78845752D01*
X24678969Y-78845752D02*
X24583731Y-78893371D01*
X24155159Y-79512419D02*
X24155159Y-78512419D01*
X24059921Y-79131466D02*
X23774207Y-79512419D01*
X23774207Y-78845752D02*
X24155159Y-79226704D01*
X23345635Y-79417180D02*
X23298016Y-79464800D01*
X23298016Y-79464800D02*
X23345635Y-79512419D01*
X23345635Y-79512419D02*
X23393254Y-79464800D01*
X23393254Y-79464800D02*
X23345635Y-79417180D01*
X23345635Y-79417180D02*
X23345635Y-79512419D01*
X22440874Y-78845752D02*
X22440874Y-79655276D01*
X22440874Y-79655276D02*
X22488493Y-79750514D01*
X22488493Y-79750514D02*
X22536112Y-79798133D01*
X22536112Y-79798133D02*
X22631350Y-79845752D01*
X22631350Y-79845752D02*
X22774207Y-79845752D01*
X22774207Y-79845752D02*
X22869445Y-79798133D01*
X22440874Y-79464800D02*
X22536112Y-79512419D01*
X22536112Y-79512419D02*
X22726588Y-79512419D01*
X22726588Y-79512419D02*
X22821826Y-79464800D01*
X22821826Y-79464800D02*
X22869445Y-79417180D01*
X22869445Y-79417180D02*
X22917064Y-79321942D01*
X22917064Y-79321942D02*
X22917064Y-79036228D01*
X22917064Y-79036228D02*
X22869445Y-78940990D01*
X22869445Y-78940990D02*
X22821826Y-78893371D01*
X22821826Y-78893371D02*
X22726588Y-78845752D01*
X22726588Y-78845752D02*
X22536112Y-78845752D01*
X22536112Y-78845752D02*
X22440874Y-78893371D01*
X21964683Y-79512419D02*
X21964683Y-78845752D01*
X21964683Y-78512419D02*
X22012302Y-78560038D01*
X22012302Y-78560038D02*
X21964683Y-78607657D01*
X21964683Y-78607657D02*
X21917064Y-78560038D01*
X21917064Y-78560038D02*
X21964683Y-78512419D01*
X21964683Y-78512419D02*
X21964683Y-78607657D01*
X21631350Y-78845752D02*
X21250398Y-78845752D01*
X21488493Y-78512419D02*
X21488493Y-79369561D01*
X21488493Y-79369561D02*
X21440874Y-79464800D01*
X21440874Y-79464800D02*
X21345636Y-79512419D01*
X21345636Y-79512419D02*
X21250398Y-79512419D01*
D11*
X64039523Y-16794819D02*
X64039523Y-17509104D01*
X64039523Y-17509104D02*
X64087142Y-17651961D01*
X64087142Y-17651961D02*
X64182380Y-17747200D01*
X64182380Y-17747200D02*
X64325237Y-17794819D01*
X64325237Y-17794819D02*
X64420475Y-17794819D01*
X63039523Y-17794819D02*
X63610951Y-17794819D01*
X63325237Y-17794819D02*
X63325237Y-16794819D01*
X63325237Y-16794819D02*
X63420475Y-16937676D01*
X63420475Y-16937676D02*
X63515713Y-17032914D01*
X63515713Y-17032914D02*
X63610951Y-17080533D01*
X62182380Y-16794819D02*
X62372856Y-16794819D01*
X62372856Y-16794819D02*
X62468094Y-16842438D01*
X62468094Y-16842438D02*
X62515713Y-16890057D01*
X62515713Y-16890057D02*
X62610951Y-17032914D01*
X62610951Y-17032914D02*
X62658570Y-17223390D01*
X62658570Y-17223390D02*
X62658570Y-17604342D01*
X62658570Y-17604342D02*
X62610951Y-17699580D01*
X62610951Y-17699580D02*
X62563332Y-17747200D01*
X62563332Y-17747200D02*
X62468094Y-17794819D01*
X62468094Y-17794819D02*
X62277618Y-17794819D01*
X62277618Y-17794819D02*
X62182380Y-17747200D01*
X62182380Y-17747200D02*
X62134761Y-17699580D01*
X62134761Y-17699580D02*
X62087142Y-17604342D01*
X62087142Y-17604342D02*
X62087142Y-17366247D01*
X62087142Y-17366247D02*
X62134761Y-17271009D01*
X62134761Y-17271009D02*
X62182380Y-17223390D01*
X62182380Y-17223390D02*
X62277618Y-17175771D01*
X62277618Y-17175771D02*
X62468094Y-17175771D01*
X62468094Y-17175771D02*
X62563332Y-17223390D01*
X62563332Y-17223390D02*
X62610951Y-17271009D01*
X62610951Y-17271009D02*
X62658570Y-17366247D01*
X49243333Y-36314819D02*
X49243333Y-37029104D01*
X49243333Y-37029104D02*
X49290952Y-37171961D01*
X49290952Y-37171961D02*
X49386190Y-37267200D01*
X49386190Y-37267200D02*
X49529047Y-37314819D01*
X49529047Y-37314819D02*
X49624285Y-37314819D01*
X48862380Y-36314819D02*
X48195714Y-36314819D01*
X48195714Y-36314819D02*
X48624285Y-37314819D01*
X70023333Y-36324819D02*
X70023333Y-37039104D01*
X70023333Y-37039104D02*
X70070952Y-37181961D01*
X70070952Y-37181961D02*
X70166190Y-37277200D01*
X70166190Y-37277200D02*
X70309047Y-37324819D01*
X70309047Y-37324819D02*
X70404285Y-37324819D01*
X69499523Y-37324819D02*
X69309047Y-37324819D01*
X69309047Y-37324819D02*
X69213809Y-37277200D01*
X69213809Y-37277200D02*
X69166190Y-37229580D01*
X69166190Y-37229580D02*
X69070952Y-37086723D01*
X69070952Y-37086723D02*
X69023333Y-36896247D01*
X69023333Y-36896247D02*
X69023333Y-36515295D01*
X69023333Y-36515295D02*
X69070952Y-36420057D01*
X69070952Y-36420057D02*
X69118571Y-36372438D01*
X69118571Y-36372438D02*
X69213809Y-36324819D01*
X69213809Y-36324819D02*
X69404285Y-36324819D01*
X69404285Y-36324819D02*
X69499523Y-36372438D01*
X69499523Y-36372438D02*
X69547142Y-36420057D01*
X69547142Y-36420057D02*
X69594761Y-36515295D01*
X69594761Y-36515295D02*
X69594761Y-36753390D01*
X69594761Y-36753390D02*
X69547142Y-36848628D01*
X69547142Y-36848628D02*
X69499523Y-36896247D01*
X69499523Y-36896247D02*
X69404285Y-36943866D01*
X69404285Y-36943866D02*
X69213809Y-36943866D01*
X69213809Y-36943866D02*
X69118571Y-36896247D01*
X69118571Y-36896247D02*
X69070952Y-36848628D01*
X69070952Y-36848628D02*
X69023333Y-36753390D01*
X32264819Y-18620476D02*
X32979104Y-18620476D01*
X32979104Y-18620476D02*
X33121961Y-18572857D01*
X33121961Y-18572857D02*
X33217200Y-18477619D01*
X33217200Y-18477619D02*
X33264819Y-18334762D01*
X33264819Y-18334762D02*
X33264819Y-18239524D01*
X33264819Y-19620476D02*
X33264819Y-19049048D01*
X33264819Y-19334762D02*
X32264819Y-19334762D01*
X32264819Y-19334762D02*
X32407676Y-19239524D01*
X32407676Y-19239524D02*
X32502914Y-19144286D01*
X32502914Y-19144286D02*
X32550533Y-19049048D01*
X32264819Y-19953810D02*
X32264819Y-20620476D01*
X32264819Y-20620476D02*
X33264819Y-20191905D01*
X33551904Y-30394819D02*
X33551904Y-31204342D01*
X33551904Y-31204342D02*
X33504285Y-31299580D01*
X33504285Y-31299580D02*
X33456666Y-31347200D01*
X33456666Y-31347200D02*
X33361428Y-31394819D01*
X33361428Y-31394819D02*
X33170952Y-31394819D01*
X33170952Y-31394819D02*
X33075714Y-31347200D01*
X33075714Y-31347200D02*
X33028095Y-31299580D01*
X33028095Y-31299580D02*
X32980476Y-31204342D01*
X32980476Y-31204342D02*
X32980476Y-30394819D01*
X31980476Y-31394819D02*
X32551904Y-31394819D01*
X32266190Y-31394819D02*
X32266190Y-30394819D01*
X32266190Y-30394819D02*
X32361428Y-30537676D01*
X32361428Y-30537676D02*
X32456666Y-30632914D01*
X32456666Y-30632914D02*
X32551904Y-30680533D01*
D10*
X37863734Y-26364800D02*
X37720877Y-26412419D01*
X37720877Y-26412419D02*
X37482782Y-26412419D01*
X37482782Y-26412419D02*
X37387544Y-26364800D01*
X37387544Y-26364800D02*
X37339925Y-26317180D01*
X37339925Y-26317180D02*
X37292306Y-26221942D01*
X37292306Y-26221942D02*
X37292306Y-26126704D01*
X37292306Y-26126704D02*
X37339925Y-26031466D01*
X37339925Y-26031466D02*
X37387544Y-25983847D01*
X37387544Y-25983847D02*
X37482782Y-25936228D01*
X37482782Y-25936228D02*
X37673258Y-25888609D01*
X37673258Y-25888609D02*
X37768496Y-25840990D01*
X37768496Y-25840990D02*
X37816115Y-25793371D01*
X37816115Y-25793371D02*
X37863734Y-25698133D01*
X37863734Y-25698133D02*
X37863734Y-25602895D01*
X37863734Y-25602895D02*
X37816115Y-25507657D01*
X37816115Y-25507657D02*
X37768496Y-25460038D01*
X37768496Y-25460038D02*
X37673258Y-25412419D01*
X37673258Y-25412419D02*
X37435163Y-25412419D01*
X37435163Y-25412419D02*
X37292306Y-25460038D01*
X36958972Y-25412419D02*
X36720877Y-26412419D01*
X36720877Y-26412419D02*
X36530401Y-25698133D01*
X36530401Y-25698133D02*
X36339925Y-26412419D01*
X36339925Y-26412419D02*
X36101830Y-25412419D01*
X35720877Y-26412419D02*
X35720877Y-25412419D01*
X35720877Y-25412419D02*
X35482782Y-25412419D01*
X35482782Y-25412419D02*
X35339925Y-25460038D01*
X35339925Y-25460038D02*
X35244687Y-25555276D01*
X35244687Y-25555276D02*
X35197068Y-25650514D01*
X35197068Y-25650514D02*
X35149449Y-25840990D01*
X35149449Y-25840990D02*
X35149449Y-25983847D01*
X35149449Y-25983847D02*
X35197068Y-26174323D01*
X35197068Y-26174323D02*
X35244687Y-26269561D01*
X35244687Y-26269561D02*
X35339925Y-26364800D01*
X35339925Y-26364800D02*
X35482782Y-26412419D01*
X35482782Y-26412419D02*
X35720877Y-26412419D01*
X37816115Y-70412419D02*
X37816115Y-71221942D01*
X37816115Y-71221942D02*
X37768496Y-71317180D01*
X37768496Y-71317180D02*
X37720877Y-71364800D01*
X37720877Y-71364800D02*
X37625639Y-71412419D01*
X37625639Y-71412419D02*
X37435163Y-71412419D01*
X37435163Y-71412419D02*
X37339925Y-71364800D01*
X37339925Y-71364800D02*
X37292306Y-71317180D01*
X37292306Y-71317180D02*
X37244687Y-71221942D01*
X37244687Y-71221942D02*
X37244687Y-70412419D01*
X36816115Y-71364800D02*
X36673258Y-71412419D01*
X36673258Y-71412419D02*
X36435163Y-71412419D01*
X36435163Y-71412419D02*
X36339925Y-71364800D01*
X36339925Y-71364800D02*
X36292306Y-71317180D01*
X36292306Y-71317180D02*
X36244687Y-71221942D01*
X36244687Y-71221942D02*
X36244687Y-71126704D01*
X36244687Y-71126704D02*
X36292306Y-71031466D01*
X36292306Y-71031466D02*
X36339925Y-70983847D01*
X36339925Y-70983847D02*
X36435163Y-70936228D01*
X36435163Y-70936228D02*
X36625639Y-70888609D01*
X36625639Y-70888609D02*
X36720877Y-70840990D01*
X36720877Y-70840990D02*
X36768496Y-70793371D01*
X36768496Y-70793371D02*
X36816115Y-70698133D01*
X36816115Y-70698133D02*
X36816115Y-70602895D01*
X36816115Y-70602895D02*
X36768496Y-70507657D01*
X36768496Y-70507657D02*
X36720877Y-70460038D01*
X36720877Y-70460038D02*
X36625639Y-70412419D01*
X36625639Y-70412419D02*
X36387544Y-70412419D01*
X36387544Y-70412419D02*
X36244687Y-70460038D01*
X35482782Y-70888609D02*
X35339925Y-70936228D01*
X35339925Y-70936228D02*
X35292306Y-70983847D01*
X35292306Y-70983847D02*
X35244687Y-71079085D01*
X35244687Y-71079085D02*
X35244687Y-71221942D01*
X35244687Y-71221942D02*
X35292306Y-71317180D01*
X35292306Y-71317180D02*
X35339925Y-71364800D01*
X35339925Y-71364800D02*
X35435163Y-71412419D01*
X35435163Y-71412419D02*
X35816115Y-71412419D01*
X35816115Y-71412419D02*
X35816115Y-70412419D01*
X35816115Y-70412419D02*
X35482782Y-70412419D01*
X35482782Y-70412419D02*
X35387544Y-70460038D01*
X35387544Y-70460038D02*
X35339925Y-70507657D01*
X35339925Y-70507657D02*
X35292306Y-70602895D01*
X35292306Y-70602895D02*
X35292306Y-70698133D01*
X35292306Y-70698133D02*
X35339925Y-70793371D01*
X35339925Y-70793371D02*
X35387544Y-70840990D01*
X35387544Y-70840990D02*
X35482782Y-70888609D01*
X35482782Y-70888609D02*
X35816115Y-70888609D01*
D11*
X70733333Y-66234819D02*
X70733333Y-66949104D01*
X70733333Y-66949104D02*
X70780952Y-67091961D01*
X70780952Y-67091961D02*
X70876190Y-67187200D01*
X70876190Y-67187200D02*
X71019047Y-67234819D01*
X71019047Y-67234819D02*
X71114285Y-67234819D01*
X70352380Y-66234819D02*
X69733333Y-66234819D01*
X69733333Y-66234819D02*
X70066666Y-66615771D01*
X70066666Y-66615771D02*
X69923809Y-66615771D01*
X69923809Y-66615771D02*
X69828571Y-66663390D01*
X69828571Y-66663390D02*
X69780952Y-66711009D01*
X69780952Y-66711009D02*
X69733333Y-66806247D01*
X69733333Y-66806247D02*
X69733333Y-67044342D01*
X69733333Y-67044342D02*
X69780952Y-67139580D01*
X69780952Y-67139580D02*
X69828571Y-67187200D01*
X69828571Y-67187200D02*
X69923809Y-67234819D01*
X69923809Y-67234819D02*
X70209523Y-67234819D01*
X70209523Y-67234819D02*
X70304761Y-67187200D01*
X70304761Y-67187200D02*
X70352380Y-67139580D01*
X56789523Y-16804819D02*
X56789523Y-17519104D01*
X56789523Y-17519104D02*
X56837142Y-17661961D01*
X56837142Y-17661961D02*
X56932380Y-17757200D01*
X56932380Y-17757200D02*
X57075237Y-17804819D01*
X57075237Y-17804819D02*
X57170475Y-17804819D01*
X55789523Y-17804819D02*
X56360951Y-17804819D01*
X56075237Y-17804819D02*
X56075237Y-16804819D01*
X56075237Y-16804819D02*
X56170475Y-16947676D01*
X56170475Y-16947676D02*
X56265713Y-17042914D01*
X56265713Y-17042914D02*
X56360951Y-17090533D01*
X54932380Y-17138152D02*
X54932380Y-17804819D01*
X55170475Y-16757200D02*
X55408570Y-17471485D01*
X55408570Y-17471485D02*
X54789523Y-17471485D01*
X74903333Y-46524819D02*
X74903333Y-47239104D01*
X74903333Y-47239104D02*
X74950952Y-47381961D01*
X74950952Y-47381961D02*
X75046190Y-47477200D01*
X75046190Y-47477200D02*
X75189047Y-47524819D01*
X75189047Y-47524819D02*
X75284285Y-47524819D01*
X74474761Y-46620057D02*
X74427142Y-46572438D01*
X74427142Y-46572438D02*
X74331904Y-46524819D01*
X74331904Y-46524819D02*
X74093809Y-46524819D01*
X74093809Y-46524819D02*
X73998571Y-46572438D01*
X73998571Y-46572438D02*
X73950952Y-46620057D01*
X73950952Y-46620057D02*
X73903333Y-46715295D01*
X73903333Y-46715295D02*
X73903333Y-46810533D01*
X73903333Y-46810533D02*
X73950952Y-46953390D01*
X73950952Y-46953390D02*
X74522380Y-47524819D01*
X74522380Y-47524819D02*
X73903333Y-47524819D01*
X67753333Y-29174819D02*
X67753333Y-29889104D01*
X67753333Y-29889104D02*
X67800952Y-30031961D01*
X67800952Y-30031961D02*
X67896190Y-30127200D01*
X67896190Y-30127200D02*
X68039047Y-30174819D01*
X68039047Y-30174819D02*
X68134285Y-30174819D01*
X66848571Y-29174819D02*
X67039047Y-29174819D01*
X67039047Y-29174819D02*
X67134285Y-29222438D01*
X67134285Y-29222438D02*
X67181904Y-29270057D01*
X67181904Y-29270057D02*
X67277142Y-29412914D01*
X67277142Y-29412914D02*
X67324761Y-29603390D01*
X67324761Y-29603390D02*
X67324761Y-29984342D01*
X67324761Y-29984342D02*
X67277142Y-30079580D01*
X67277142Y-30079580D02*
X67229523Y-30127200D01*
X67229523Y-30127200D02*
X67134285Y-30174819D01*
X67134285Y-30174819D02*
X66943809Y-30174819D01*
X66943809Y-30174819D02*
X66848571Y-30127200D01*
X66848571Y-30127200D02*
X66800952Y-30079580D01*
X66800952Y-30079580D02*
X66753333Y-29984342D01*
X66753333Y-29984342D02*
X66753333Y-29746247D01*
X66753333Y-29746247D02*
X66800952Y-29651009D01*
X66800952Y-29651009D02*
X66848571Y-29603390D01*
X66848571Y-29603390D02*
X66943809Y-29555771D01*
X66943809Y-29555771D02*
X67134285Y-29555771D01*
X67134285Y-29555771D02*
X67229523Y-29603390D01*
X67229523Y-29603390D02*
X67277142Y-29651009D01*
X67277142Y-29651009D02*
X67324761Y-29746247D01*
X53149523Y-16804819D02*
X53149523Y-17519104D01*
X53149523Y-17519104D02*
X53197142Y-17661961D01*
X53197142Y-17661961D02*
X53292380Y-17757200D01*
X53292380Y-17757200D02*
X53435237Y-17804819D01*
X53435237Y-17804819D02*
X53530475Y-17804819D01*
X52149523Y-17804819D02*
X52720951Y-17804819D01*
X52435237Y-17804819D02*
X52435237Y-16804819D01*
X52435237Y-16804819D02*
X52530475Y-16947676D01*
X52530475Y-16947676D02*
X52625713Y-17042914D01*
X52625713Y-17042914D02*
X52720951Y-17090533D01*
X51816189Y-16804819D02*
X51197142Y-16804819D01*
X51197142Y-16804819D02*
X51530475Y-17185771D01*
X51530475Y-17185771D02*
X51387618Y-17185771D01*
X51387618Y-17185771D02*
X51292380Y-17233390D01*
X51292380Y-17233390D02*
X51244761Y-17281009D01*
X51244761Y-17281009D02*
X51197142Y-17376247D01*
X51197142Y-17376247D02*
X51197142Y-17614342D01*
X51197142Y-17614342D02*
X51244761Y-17709580D01*
X51244761Y-17709580D02*
X51292380Y-17757200D01*
X51292380Y-17757200D02*
X51387618Y-17804819D01*
X51387618Y-17804819D02*
X51673332Y-17804819D01*
X51673332Y-17804819D02*
X51768570Y-17757200D01*
X51768570Y-17757200D02*
X51816189Y-17709580D01*
X71453333Y-29174819D02*
X71453333Y-29889104D01*
X71453333Y-29889104D02*
X71500952Y-30031961D01*
X71500952Y-30031961D02*
X71596190Y-30127200D01*
X71596190Y-30127200D02*
X71739047Y-30174819D01*
X71739047Y-30174819D02*
X71834285Y-30174819D01*
X70500952Y-29174819D02*
X70977142Y-29174819D01*
X70977142Y-29174819D02*
X71024761Y-29651009D01*
X71024761Y-29651009D02*
X70977142Y-29603390D01*
X70977142Y-29603390D02*
X70881904Y-29555771D01*
X70881904Y-29555771D02*
X70643809Y-29555771D01*
X70643809Y-29555771D02*
X70548571Y-29603390D01*
X70548571Y-29603390D02*
X70500952Y-29651009D01*
X70500952Y-29651009D02*
X70453333Y-29746247D01*
X70453333Y-29746247D02*
X70453333Y-29984342D01*
X70453333Y-29984342D02*
X70500952Y-30079580D01*
X70500952Y-30079580D02*
X70548571Y-30127200D01*
X70548571Y-30127200D02*
X70643809Y-30174819D01*
X70643809Y-30174819D02*
X70881904Y-30174819D01*
X70881904Y-30174819D02*
X70977142Y-30127200D01*
X70977142Y-30127200D02*
X71024761Y-30079580D01*
X74803333Y-29204819D02*
X74803333Y-29919104D01*
X74803333Y-29919104D02*
X74850952Y-30061961D01*
X74850952Y-30061961D02*
X74946190Y-30157200D01*
X74946190Y-30157200D02*
X75089047Y-30204819D01*
X75089047Y-30204819D02*
X75184285Y-30204819D01*
X73898571Y-29538152D02*
X73898571Y-30204819D01*
X74136666Y-29157200D02*
X74374761Y-29871485D01*
X74374761Y-29871485D02*
X73755714Y-29871485D01*
X50499523Y-60244819D02*
X50499523Y-60959104D01*
X50499523Y-60959104D02*
X50547142Y-61101961D01*
X50547142Y-61101961D02*
X50642380Y-61197200D01*
X50642380Y-61197200D02*
X50785237Y-61244819D01*
X50785237Y-61244819D02*
X50880475Y-61244819D01*
X49499523Y-61244819D02*
X50070951Y-61244819D01*
X49785237Y-61244819D02*
X49785237Y-60244819D01*
X49785237Y-60244819D02*
X49880475Y-60387676D01*
X49880475Y-60387676D02*
X49975713Y-60482914D01*
X49975713Y-60482914D02*
X50070951Y-60530533D01*
X48547142Y-61244819D02*
X49118570Y-61244819D01*
X48832856Y-61244819D02*
X48832856Y-60244819D01*
X48832856Y-60244819D02*
X48928094Y-60387676D01*
X48928094Y-60387676D02*
X49023332Y-60482914D01*
X49023332Y-60482914D02*
X49118570Y-60530533D01*
X60419523Y-16814819D02*
X60419523Y-17529104D01*
X60419523Y-17529104D02*
X60467142Y-17671961D01*
X60467142Y-17671961D02*
X60562380Y-17767200D01*
X60562380Y-17767200D02*
X60705237Y-17814819D01*
X60705237Y-17814819D02*
X60800475Y-17814819D01*
X59419523Y-17814819D02*
X59990951Y-17814819D01*
X59705237Y-17814819D02*
X59705237Y-16814819D01*
X59705237Y-16814819D02*
X59800475Y-16957676D01*
X59800475Y-16957676D02*
X59895713Y-17052914D01*
X59895713Y-17052914D02*
X59990951Y-17100533D01*
X58514761Y-16814819D02*
X58990951Y-16814819D01*
X58990951Y-16814819D02*
X59038570Y-17291009D01*
X59038570Y-17291009D02*
X58990951Y-17243390D01*
X58990951Y-17243390D02*
X58895713Y-17195771D01*
X58895713Y-17195771D02*
X58657618Y-17195771D01*
X58657618Y-17195771D02*
X58562380Y-17243390D01*
X58562380Y-17243390D02*
X58514761Y-17291009D01*
X58514761Y-17291009D02*
X58467142Y-17386247D01*
X58467142Y-17386247D02*
X58467142Y-17624342D01*
X58467142Y-17624342D02*
X58514761Y-17719580D01*
X58514761Y-17719580D02*
X58562380Y-17767200D01*
X58562380Y-17767200D02*
X58657618Y-17814819D01*
X58657618Y-17814819D02*
X58895713Y-17814819D01*
X58895713Y-17814819D02*
X58990951Y-17767200D01*
X58990951Y-17767200D02*
X59038570Y-17719580D01*
X49469523Y-19374819D02*
X49469523Y-20089104D01*
X49469523Y-20089104D02*
X49517142Y-20231961D01*
X49517142Y-20231961D02*
X49612380Y-20327200D01*
X49612380Y-20327200D02*
X49755237Y-20374819D01*
X49755237Y-20374819D02*
X49850475Y-20374819D01*
X48469523Y-20374819D02*
X49040951Y-20374819D01*
X48755237Y-20374819D02*
X48755237Y-19374819D01*
X48755237Y-19374819D02*
X48850475Y-19517676D01*
X48850475Y-19517676D02*
X48945713Y-19612914D01*
X48945713Y-19612914D02*
X49040951Y-19660533D01*
X48088570Y-19470057D02*
X48040951Y-19422438D01*
X48040951Y-19422438D02*
X47945713Y-19374819D01*
X47945713Y-19374819D02*
X47707618Y-19374819D01*
X47707618Y-19374819D02*
X47612380Y-19422438D01*
X47612380Y-19422438D02*
X47564761Y-19470057D01*
X47564761Y-19470057D02*
X47517142Y-19565295D01*
X47517142Y-19565295D02*
X47517142Y-19660533D01*
X47517142Y-19660533D02*
X47564761Y-19803390D01*
X47564761Y-19803390D02*
X48136189Y-20374819D01*
X48136189Y-20374819D02*
X47517142Y-20374819D01*
D12*
G04 #@! TO.C,J16*
X61900000Y-20940000D02*
X64560000Y-20940000D01*
X61900000Y-31160000D02*
X61900000Y-20940000D01*
X61900000Y-31160000D02*
X64560000Y-31160000D01*
X63230000Y-18340000D02*
X64560000Y-18340000D01*
X64560000Y-18340000D02*
X64560000Y-19670000D01*
X64560000Y-31160000D02*
X64560000Y-20940000D01*
G04 #@! TO.C,J7*
X47580000Y-40460000D02*
X50240000Y-40460000D01*
X47580000Y-45600000D02*
X47580000Y-40460000D01*
X47580000Y-45600000D02*
X50240000Y-45600000D01*
X48910000Y-37860000D02*
X50240000Y-37860000D01*
X50240000Y-37860000D02*
X50240000Y-39190000D01*
X50240000Y-45600000D02*
X50240000Y-40460000D01*
G04 #@! TO.C,J9*
X69410000Y-40610000D02*
X72070000Y-40610000D01*
X69410000Y-45750000D02*
X69410000Y-40610000D01*
X69410000Y-45750000D02*
X72070000Y-45750000D01*
X70740000Y-38010000D02*
X72070000Y-38010000D01*
X72070000Y-38010000D02*
X72070000Y-39340000D01*
X72070000Y-45750000D02*
X72070000Y-40610000D01*
G04 #@! TO.C,J17*
X24070000Y-18100000D02*
X24070000Y-20760000D01*
X24070000Y-18100000D02*
X29210000Y-18100000D01*
X24070000Y-20760000D02*
X29210000Y-20760000D01*
X29210000Y-18100000D02*
X29210000Y-20760000D01*
X31810000Y-19430000D02*
X31810000Y-20760000D01*
X31810000Y-20760000D02*
X30480000Y-20760000D01*
G04 #@! TO.C,U1*
X26120000Y-21310000D02*
X26120001Y-74770000D01*
X26120001Y-74770000D02*
X47120000Y-74770000D01*
X33120000Y-21310000D02*
X26120000Y-21310000D01*
X33120000Y-21670000D02*
X33120000Y-21310000D01*
X40119999Y-21310000D02*
X40119999Y-21670000D01*
X40119999Y-21670000D02*
X33120000Y-21670000D01*
X47119999Y-21310000D02*
X40119999Y-21310000D01*
X47120000Y-74770000D02*
X47119999Y-21310000D01*
D10*
X42120000Y-68290000D02*
X30870000Y-68290000D01*
X30870000Y-73540000D01*
X42120000Y-73540000D01*
X42120000Y-68290000D01*
X42370000Y-24790000D02*
X30620000Y-24790000D01*
X30620000Y-27540000D01*
X42370000Y-27540000D01*
X42370000Y-24790000D01*
D12*
G04 #@! TO.C,J3*
X73230000Y-67330000D02*
X74560000Y-67330000D01*
X73230000Y-68660000D02*
X73230000Y-67330000D01*
X73230000Y-69930000D02*
X75890000Y-69930000D01*
X73230000Y-85230000D02*
X73230000Y-69930000D01*
X73230000Y-85230000D02*
X75890000Y-85230000D01*
X75890000Y-85230000D02*
X75890000Y-69930000D01*
G04 #@! TO.C,J14*
X54650000Y-20950000D02*
X57310000Y-20950000D01*
X54650000Y-31170000D02*
X54650000Y-20950000D01*
X54650000Y-31170000D02*
X57310000Y-31170000D01*
X55980000Y-18350000D02*
X57310000Y-18350000D01*
X57310000Y-18350000D02*
X57310000Y-19680000D01*
X57310000Y-31170000D02*
X57310000Y-20950000D01*
G04 #@! TO.C,J2*
X73240000Y-48510000D02*
X74570000Y-48510000D01*
X73240000Y-49840000D02*
X73240000Y-48510000D01*
X73240000Y-51110000D02*
X75900000Y-51110000D01*
X73240000Y-66410000D02*
X73240000Y-51110000D01*
X73240000Y-66410000D02*
X75900000Y-66410000D01*
X75900000Y-66410000D02*
X75900000Y-51110000D01*
G04 #@! TO.C,J6*
X65950000Y-23470000D02*
X68610000Y-23470000D01*
X65950000Y-28610000D02*
X65950000Y-23470000D01*
X65950000Y-28610000D02*
X68610000Y-28610000D01*
X67280000Y-20870000D02*
X68610000Y-20870000D01*
X68610000Y-20870000D02*
X68610000Y-22200000D01*
X68610000Y-28610000D02*
X68610000Y-23470000D01*
G04 #@! TO.C,J13*
X51010000Y-20950000D02*
X53670000Y-20950000D01*
X51010000Y-31170000D02*
X51010000Y-20950000D01*
X51010000Y-31170000D02*
X53670000Y-31170000D01*
X52340000Y-18350000D02*
X53670000Y-18350000D01*
X53670000Y-18350000D02*
X53670000Y-19680000D01*
X53670000Y-31170000D02*
X53670000Y-20950000D01*
G04 #@! TO.C,J5*
X69550000Y-23470000D02*
X72210000Y-23470000D01*
X69550000Y-28610000D02*
X69550000Y-23470000D01*
X69550000Y-28610000D02*
X72210000Y-28610000D01*
X70880000Y-20870000D02*
X72210000Y-20870000D01*
X72210000Y-20870000D02*
X72210000Y-22200000D01*
X72210000Y-28610000D02*
X72210000Y-23470000D01*
G04 #@! TO.C,J4*
X73190000Y-23470000D02*
X75850000Y-23470000D01*
X73190000Y-28610000D02*
X73190000Y-23470000D01*
X73190000Y-28610000D02*
X75850000Y-28610000D01*
X74520000Y-20870000D02*
X75850000Y-20870000D01*
X75850000Y-20870000D02*
X75850000Y-22200000D01*
X75850000Y-28610000D02*
X75850000Y-23470000D01*
G04 #@! TO.C,J11*
X48360000Y-64390000D02*
X51020000Y-64390000D01*
X48360000Y-72070000D02*
X48360000Y-64390000D01*
X48360000Y-72070000D02*
X51020000Y-72070000D01*
X49690000Y-61790000D02*
X51020000Y-61790000D01*
X51020000Y-61790000D02*
X51020000Y-63120000D01*
X51020000Y-72070000D02*
X51020000Y-64390000D01*
G04 #@! TO.C,J15*
X58280000Y-20960000D02*
X60940000Y-20960000D01*
X58280000Y-31180000D02*
X58280000Y-20960000D01*
X58280000Y-31180000D02*
X60940000Y-31180000D01*
X59610000Y-18360000D02*
X60940000Y-18360000D01*
X60940000Y-18360000D02*
X60940000Y-19690000D01*
X60940000Y-31180000D02*
X60940000Y-20960000D01*
G04 #@! TO.C,J12*
X47330000Y-23520000D02*
X49990000Y-23520000D01*
X47330000Y-33740000D02*
X47330000Y-23520000D01*
X47330000Y-33740000D02*
X49990000Y-33740000D01*
X48660000Y-20920000D02*
X49990000Y-20920000D01*
X49990000Y-20920000D02*
X49990000Y-22250000D01*
X49990000Y-33740000D02*
X49990000Y-23520000D01*
G04 #@! TD*
%LPC*%
D13*
G04 #@! TO.C,J8*
X74500000Y-39320000D03*
D14*
X74500000Y-41860000D03*
X74500000Y-44400000D03*
G04 #@! TD*
D13*
G04 #@! TO.C,J1*
X25430000Y-23930000D03*
D14*
X22890000Y-23930000D03*
X25430000Y-26470000D03*
X22890000Y-26470000D03*
X25430000Y-29010000D03*
X22890000Y-29010000D03*
X25430000Y-31550000D03*
X22890000Y-31550000D03*
X25430000Y-34090000D03*
X22890000Y-34090000D03*
X25430000Y-36630000D03*
X22890000Y-36630000D03*
X25430000Y-39170000D03*
X22890000Y-39170000D03*
X25430000Y-41710000D03*
X22890000Y-41710000D03*
X25430000Y-44250000D03*
X22890000Y-44250000D03*
X25430000Y-46790000D03*
X22890000Y-46790000D03*
X25430000Y-49330000D03*
X22890000Y-49330000D03*
X25430000Y-51870000D03*
X22890000Y-51870000D03*
X25430000Y-54410000D03*
X22890000Y-54410000D03*
X25430000Y-56950000D03*
X22890000Y-56950000D03*
X25430000Y-59490000D03*
X22890000Y-59490000D03*
X25430000Y-62030000D03*
X22890000Y-62030000D03*
X25430000Y-64570000D03*
X22890000Y-64570000D03*
X25430000Y-67110000D03*
X22890000Y-67110000D03*
X25430000Y-69650000D03*
X22890000Y-69650000D03*
X25430000Y-72190000D03*
X22890000Y-72190000D03*
G04 #@! TD*
D13*
G04 #@! TO.C,J16*
X63230000Y-19670000D03*
D14*
X63230000Y-22210000D03*
X63230000Y-24750000D03*
X63230000Y-27290000D03*
X63230000Y-29830000D03*
G04 #@! TD*
D13*
G04 #@! TO.C,J7*
X48910000Y-39190000D03*
D14*
X48910000Y-41730000D03*
X48910000Y-44270000D03*
G04 #@! TD*
D13*
G04 #@! TO.C,J9*
X70740000Y-39340000D03*
D14*
X70740000Y-41880000D03*
X70740000Y-44420000D03*
G04 #@! TD*
D13*
G04 #@! TO.C,J17*
X30480000Y-19430000D03*
D14*
X27940000Y-19430000D03*
X25400000Y-19430000D03*
G04 #@! TD*
D15*
G04 #@! TO.C,U1*
X44120000Y-23910000D03*
D16*
X44120000Y-26450000D03*
X44120000Y-28990000D03*
X44120000Y-31530000D03*
X44120000Y-34070000D03*
X44120000Y-36610000D03*
X44120000Y-39150000D03*
X44120000Y-41690000D03*
X44120000Y-44230000D03*
X44120000Y-46770000D03*
X44120000Y-49310000D03*
X44120000Y-51850000D03*
X44120000Y-54390000D03*
X44120000Y-56930000D03*
X44120000Y-59470000D03*
X44120000Y-62010000D03*
X44120000Y-64550000D03*
X44120000Y-67090000D03*
X44120000Y-69630000D03*
X44120000Y-72170000D03*
X29120000Y-72170000D03*
X29120000Y-69630000D03*
X29120000Y-67090000D03*
X29120000Y-64550000D03*
X29120000Y-62010000D03*
X29120000Y-59470000D03*
X29120000Y-56930000D03*
X29120000Y-54390000D03*
X29120000Y-51850000D03*
X29120000Y-49310000D03*
X29120000Y-46770000D03*
X29120000Y-44230000D03*
X29120000Y-41690000D03*
X29120000Y-39150000D03*
X29120000Y-36610000D03*
X29120000Y-34070000D03*
X29120000Y-31530000D03*
X29120000Y-28990000D03*
X29120000Y-26450000D03*
X29120000Y-23910000D03*
G04 #@! TD*
D13*
G04 #@! TO.C,J3*
X74560000Y-68660000D03*
D14*
X74560000Y-71200000D03*
X74560000Y-73740000D03*
X74560000Y-76280000D03*
X74560000Y-78820000D03*
X74560000Y-81360000D03*
X74560000Y-83900000D03*
G04 #@! TD*
D13*
G04 #@! TO.C,J14*
X55980000Y-19680000D03*
D14*
X55980000Y-22220000D03*
X55980000Y-24760000D03*
X55980000Y-27300000D03*
X55980000Y-29840000D03*
G04 #@! TD*
D13*
G04 #@! TO.C,J2*
X74570000Y-49840000D03*
D14*
X74570000Y-52380000D03*
X74570000Y-54920000D03*
X74570000Y-57460000D03*
X74570000Y-60000000D03*
X74570000Y-62540000D03*
X74570000Y-65080000D03*
G04 #@! TD*
D13*
G04 #@! TO.C,J6*
X67280000Y-22200000D03*
D14*
X67280000Y-24740000D03*
X67280000Y-27280000D03*
G04 #@! TD*
D13*
G04 #@! TO.C,J13*
X52340000Y-19680000D03*
D14*
X52340000Y-22220000D03*
X52340000Y-24760000D03*
X52340000Y-27300000D03*
X52340000Y-29840000D03*
G04 #@! TD*
D13*
G04 #@! TO.C,J5*
X70880000Y-22200000D03*
D14*
X70880000Y-24740000D03*
X70880000Y-27280000D03*
G04 #@! TD*
D13*
G04 #@! TO.C,J4*
X74520000Y-22200000D03*
D14*
X74520000Y-24740000D03*
X74520000Y-27280000D03*
G04 #@! TD*
D13*
G04 #@! TO.C,J11*
X49690000Y-63120000D03*
D14*
X49690000Y-65660000D03*
X49690000Y-68200000D03*
X49690000Y-70740000D03*
G04 #@! TD*
D13*
G04 #@! TO.C,J15*
X59610000Y-19690000D03*
D14*
X59610000Y-22230000D03*
X59610000Y-24770000D03*
X59610000Y-27310000D03*
X59610000Y-29850000D03*
G04 #@! TD*
D13*
G04 #@! TO.C,J12*
X48660000Y-22250000D03*
D14*
X48660000Y-24790000D03*
X48660000Y-27330000D03*
X48660000Y-29870000D03*
X48660000Y-32410000D03*
G04 #@! TD*
%LPD*%
M02*
