G04 #@! TF.GenerationSoftware,KiCad,Pcbnew,8.0.5*
G04 #@! TF.CreationDate,2024-10-14T11:26:22+05:00*
G04 #@! TF.ProjectId,2floor_for_orange_pi,32666c6f-6f72-45f6-966f-725f6f72616e,rev?*
G04 #@! TF.SameCoordinates,Original*
G04 #@! TF.FileFunction,AssemblyDrawing,Top*
%FSLAX46Y46*%
G04 Gerber Fmt 4.6, Leading zero omitted, Abs format (unit mm)*
G04 Created by KiCad (PCBNEW 8.0.5) date 2024-10-14 11:26:22*
%MOMM*%
%LPD*%
G01*
G04 APERTURE LIST*
%ADD10C,0.150000*%
%ADD11C,0.100000*%
G04 APERTURE END LIST*
D10*
X67404819Y-50765238D02*
X67404819Y-50574762D01*
X67404819Y-50574762D02*
X67452438Y-50479524D01*
X67452438Y-50479524D02*
X67547676Y-50384286D01*
X67547676Y-50384286D02*
X67738152Y-50336667D01*
X67738152Y-50336667D02*
X68071485Y-50336667D01*
X68071485Y-50336667D02*
X68261961Y-50384286D01*
X68261961Y-50384286D02*
X68357200Y-50479524D01*
X68357200Y-50479524D02*
X68404819Y-50574762D01*
X68404819Y-50574762D02*
X68404819Y-50765238D01*
X68404819Y-50765238D02*
X68357200Y-50860476D01*
X68357200Y-50860476D02*
X68261961Y-50955714D01*
X68261961Y-50955714D02*
X68071485Y-51003333D01*
X68071485Y-51003333D02*
X67738152Y-51003333D01*
X67738152Y-51003333D02*
X67547676Y-50955714D01*
X67547676Y-50955714D02*
X67452438Y-50860476D01*
X67452438Y-50860476D02*
X67404819Y-50765238D01*
X68404819Y-49908095D02*
X67404819Y-49908095D01*
X67404819Y-49908095D02*
X67404819Y-49527143D01*
X67404819Y-49527143D02*
X67452438Y-49431905D01*
X67452438Y-49431905D02*
X67500057Y-49384286D01*
X67500057Y-49384286D02*
X67595295Y-49336667D01*
X67595295Y-49336667D02*
X67738152Y-49336667D01*
X67738152Y-49336667D02*
X67833390Y-49384286D01*
X67833390Y-49384286D02*
X67881009Y-49431905D01*
X67881009Y-49431905D02*
X67928628Y-49527143D01*
X67928628Y-49527143D02*
X67928628Y-49908095D01*
X68404819Y-48908095D02*
X67404819Y-48908095D01*
X68309580Y-47098572D02*
X68357200Y-47146191D01*
X68357200Y-47146191D02*
X68404819Y-47289048D01*
X68404819Y-47289048D02*
X68404819Y-47384286D01*
X68404819Y-47384286D02*
X68357200Y-47527143D01*
X68357200Y-47527143D02*
X68261961Y-47622381D01*
X68261961Y-47622381D02*
X68166723Y-47670000D01*
X68166723Y-47670000D02*
X67976247Y-47717619D01*
X67976247Y-47717619D02*
X67833390Y-47717619D01*
X67833390Y-47717619D02*
X67642914Y-47670000D01*
X67642914Y-47670000D02*
X67547676Y-47622381D01*
X67547676Y-47622381D02*
X67452438Y-47527143D01*
X67452438Y-47527143D02*
X67404819Y-47384286D01*
X67404819Y-47384286D02*
X67404819Y-47289048D01*
X67404819Y-47289048D02*
X67452438Y-47146191D01*
X67452438Y-47146191D02*
X67500057Y-47098572D01*
X68404819Y-46527143D02*
X68357200Y-46622381D01*
X68357200Y-46622381D02*
X68309580Y-46670000D01*
X68309580Y-46670000D02*
X68214342Y-46717619D01*
X68214342Y-46717619D02*
X67928628Y-46717619D01*
X67928628Y-46717619D02*
X67833390Y-46670000D01*
X67833390Y-46670000D02*
X67785771Y-46622381D01*
X67785771Y-46622381D02*
X67738152Y-46527143D01*
X67738152Y-46527143D02*
X67738152Y-46384286D01*
X67738152Y-46384286D02*
X67785771Y-46289048D01*
X67785771Y-46289048D02*
X67833390Y-46241429D01*
X67833390Y-46241429D02*
X67928628Y-46193810D01*
X67928628Y-46193810D02*
X68214342Y-46193810D01*
X68214342Y-46193810D02*
X68309580Y-46241429D01*
X68309580Y-46241429D02*
X68357200Y-46289048D01*
X68357200Y-46289048D02*
X68404819Y-46384286D01*
X68404819Y-46384286D02*
X68404819Y-46527143D01*
X67738152Y-45765238D02*
X68404819Y-45765238D01*
X67833390Y-45765238D02*
X67785771Y-45717619D01*
X67785771Y-45717619D02*
X67738152Y-45622381D01*
X67738152Y-45622381D02*
X67738152Y-45479524D01*
X67738152Y-45479524D02*
X67785771Y-45384286D01*
X67785771Y-45384286D02*
X67881009Y-45336667D01*
X67881009Y-45336667D02*
X68404819Y-45336667D01*
X67738152Y-44860476D02*
X68404819Y-44860476D01*
X67833390Y-44860476D02*
X67785771Y-44812857D01*
X67785771Y-44812857D02*
X67738152Y-44717619D01*
X67738152Y-44717619D02*
X67738152Y-44574762D01*
X67738152Y-44574762D02*
X67785771Y-44479524D01*
X67785771Y-44479524D02*
X67881009Y-44431905D01*
X67881009Y-44431905D02*
X68404819Y-44431905D01*
X68404819Y-43193809D02*
X67404819Y-43193809D01*
X67404819Y-43193809D02*
X67404819Y-42955714D01*
X67404819Y-42955714D02*
X67452438Y-42812857D01*
X67452438Y-42812857D02*
X67547676Y-42717619D01*
X67547676Y-42717619D02*
X67642914Y-42670000D01*
X67642914Y-42670000D02*
X67833390Y-42622381D01*
X67833390Y-42622381D02*
X67976247Y-42622381D01*
X67976247Y-42622381D02*
X68166723Y-42670000D01*
X68166723Y-42670000D02*
X68261961Y-42717619D01*
X68261961Y-42717619D02*
X68357200Y-42812857D01*
X68357200Y-42812857D02*
X68404819Y-42955714D01*
X68404819Y-42955714D02*
X68404819Y-43193809D01*
X68357200Y-41812857D02*
X68404819Y-41908095D01*
X68404819Y-41908095D02*
X68404819Y-42098571D01*
X68404819Y-42098571D02*
X68357200Y-42193809D01*
X68357200Y-42193809D02*
X68261961Y-42241428D01*
X68261961Y-42241428D02*
X67881009Y-42241428D01*
X67881009Y-42241428D02*
X67785771Y-42193809D01*
X67785771Y-42193809D02*
X67738152Y-42098571D01*
X67738152Y-42098571D02*
X67738152Y-41908095D01*
X67738152Y-41908095D02*
X67785771Y-41812857D01*
X67785771Y-41812857D02*
X67881009Y-41765238D01*
X67881009Y-41765238D02*
X67976247Y-41765238D01*
X67976247Y-41765238D02*
X68071485Y-42241428D01*
X68404819Y-41336666D02*
X67404819Y-41336666D01*
X67785771Y-41336666D02*
X67738152Y-41241428D01*
X67738152Y-41241428D02*
X67738152Y-41050952D01*
X67738152Y-41050952D02*
X67785771Y-40955714D01*
X67785771Y-40955714D02*
X67833390Y-40908095D01*
X67833390Y-40908095D02*
X67928628Y-40860476D01*
X67928628Y-40860476D02*
X68214342Y-40860476D01*
X68214342Y-40860476D02*
X68309580Y-40908095D01*
X68309580Y-40908095D02*
X68357200Y-40955714D01*
X68357200Y-40955714D02*
X68404819Y-41050952D01*
X68404819Y-41050952D02*
X68404819Y-41241428D01*
X68404819Y-41241428D02*
X68357200Y-41336666D01*
X67738152Y-40003333D02*
X68404819Y-40003333D01*
X67738152Y-40431904D02*
X68261961Y-40431904D01*
X68261961Y-40431904D02*
X68357200Y-40384285D01*
X68357200Y-40384285D02*
X68404819Y-40289047D01*
X68404819Y-40289047D02*
X68404819Y-40146190D01*
X68404819Y-40146190D02*
X68357200Y-40050952D01*
X68357200Y-40050952D02*
X68309580Y-40003333D01*
X67738152Y-39098571D02*
X68547676Y-39098571D01*
X68547676Y-39098571D02*
X68642914Y-39146190D01*
X68642914Y-39146190D02*
X68690533Y-39193809D01*
X68690533Y-39193809D02*
X68738152Y-39289047D01*
X68738152Y-39289047D02*
X68738152Y-39431904D01*
X68738152Y-39431904D02*
X68690533Y-39527142D01*
X68357200Y-39098571D02*
X68404819Y-39193809D01*
X68404819Y-39193809D02*
X68404819Y-39384285D01*
X68404819Y-39384285D02*
X68357200Y-39479523D01*
X68357200Y-39479523D02*
X68309580Y-39527142D01*
X68309580Y-39527142D02*
X68214342Y-39574761D01*
X68214342Y-39574761D02*
X67928628Y-39574761D01*
X67928628Y-39574761D02*
X67833390Y-39527142D01*
X67833390Y-39527142D02*
X67785771Y-39479523D01*
X67785771Y-39479523D02*
X67738152Y-39384285D01*
X67738152Y-39384285D02*
X67738152Y-39193809D01*
X67738152Y-39193809D02*
X67785771Y-39098571D01*
X68357200Y-37908094D02*
X68404819Y-37765237D01*
X68404819Y-37765237D02*
X68404819Y-37527142D01*
X68404819Y-37527142D02*
X68357200Y-37431904D01*
X68357200Y-37431904D02*
X68309580Y-37384285D01*
X68309580Y-37384285D02*
X68214342Y-37336666D01*
X68214342Y-37336666D02*
X68119104Y-37336666D01*
X68119104Y-37336666D02*
X68023866Y-37384285D01*
X68023866Y-37384285D02*
X67976247Y-37431904D01*
X67976247Y-37431904D02*
X67928628Y-37527142D01*
X67928628Y-37527142D02*
X67881009Y-37717618D01*
X67881009Y-37717618D02*
X67833390Y-37812856D01*
X67833390Y-37812856D02*
X67785771Y-37860475D01*
X67785771Y-37860475D02*
X67690533Y-37908094D01*
X67690533Y-37908094D02*
X67595295Y-37908094D01*
X67595295Y-37908094D02*
X67500057Y-37860475D01*
X67500057Y-37860475D02*
X67452438Y-37812856D01*
X67452438Y-37812856D02*
X67404819Y-37717618D01*
X67404819Y-37717618D02*
X67404819Y-37479523D01*
X67404819Y-37479523D02*
X67452438Y-37336666D01*
X68404819Y-36765237D02*
X68357200Y-36860475D01*
X68357200Y-36860475D02*
X68309580Y-36908094D01*
X68309580Y-36908094D02*
X68214342Y-36955713D01*
X68214342Y-36955713D02*
X67928628Y-36955713D01*
X67928628Y-36955713D02*
X67833390Y-36908094D01*
X67833390Y-36908094D02*
X67785771Y-36860475D01*
X67785771Y-36860475D02*
X67738152Y-36765237D01*
X67738152Y-36765237D02*
X67738152Y-36622380D01*
X67738152Y-36622380D02*
X67785771Y-36527142D01*
X67785771Y-36527142D02*
X67833390Y-36479523D01*
X67833390Y-36479523D02*
X67928628Y-36431904D01*
X67928628Y-36431904D02*
X68214342Y-36431904D01*
X68214342Y-36431904D02*
X68309580Y-36479523D01*
X68309580Y-36479523D02*
X68357200Y-36527142D01*
X68357200Y-36527142D02*
X68404819Y-36622380D01*
X68404819Y-36622380D02*
X68404819Y-36765237D01*
X68357200Y-35574761D02*
X68404819Y-35669999D01*
X68404819Y-35669999D02*
X68404819Y-35860475D01*
X68404819Y-35860475D02*
X68357200Y-35955713D01*
X68357200Y-35955713D02*
X68309580Y-36003332D01*
X68309580Y-36003332D02*
X68214342Y-36050951D01*
X68214342Y-36050951D02*
X67928628Y-36050951D01*
X67928628Y-36050951D02*
X67833390Y-36003332D01*
X67833390Y-36003332D02*
X67785771Y-35955713D01*
X67785771Y-35955713D02*
X67738152Y-35860475D01*
X67738152Y-35860475D02*
X67738152Y-35669999D01*
X67738152Y-35669999D02*
X67785771Y-35574761D01*
X68404819Y-35146189D02*
X67404819Y-35146189D01*
X68023866Y-35050951D02*
X68404819Y-34765237D01*
X67738152Y-34765237D02*
X68119104Y-35146189D01*
X68357200Y-33955713D02*
X68404819Y-34050951D01*
X68404819Y-34050951D02*
X68404819Y-34241427D01*
X68404819Y-34241427D02*
X68357200Y-34336665D01*
X68357200Y-34336665D02*
X68261961Y-34384284D01*
X68261961Y-34384284D02*
X67881009Y-34384284D01*
X67881009Y-34384284D02*
X67785771Y-34336665D01*
X67785771Y-34336665D02*
X67738152Y-34241427D01*
X67738152Y-34241427D02*
X67738152Y-34050951D01*
X67738152Y-34050951D02*
X67785771Y-33955713D01*
X67785771Y-33955713D02*
X67881009Y-33908094D01*
X67881009Y-33908094D02*
X67976247Y-33908094D01*
X67976247Y-33908094D02*
X68071485Y-34384284D01*
X67738152Y-33622379D02*
X67738152Y-33241427D01*
X67404819Y-33479522D02*
X68261961Y-33479522D01*
X68261961Y-33479522D02*
X68357200Y-33431903D01*
X68357200Y-33431903D02*
X68404819Y-33336665D01*
X68404819Y-33336665D02*
X68404819Y-33241427D01*
X73954819Y-42193333D02*
X74669104Y-42193333D01*
X74669104Y-42193333D02*
X74811961Y-42240952D01*
X74811961Y-42240952D02*
X74907200Y-42336190D01*
X74907200Y-42336190D02*
X74954819Y-42479047D01*
X74954819Y-42479047D02*
X74954819Y-42574285D01*
X74383390Y-41574285D02*
X74335771Y-41669523D01*
X74335771Y-41669523D02*
X74288152Y-41717142D01*
X74288152Y-41717142D02*
X74192914Y-41764761D01*
X74192914Y-41764761D02*
X74145295Y-41764761D01*
X74145295Y-41764761D02*
X74050057Y-41717142D01*
X74050057Y-41717142D02*
X74002438Y-41669523D01*
X74002438Y-41669523D02*
X73954819Y-41574285D01*
X73954819Y-41574285D02*
X73954819Y-41383809D01*
X73954819Y-41383809D02*
X74002438Y-41288571D01*
X74002438Y-41288571D02*
X74050057Y-41240952D01*
X74050057Y-41240952D02*
X74145295Y-41193333D01*
X74145295Y-41193333D02*
X74192914Y-41193333D01*
X74192914Y-41193333D02*
X74288152Y-41240952D01*
X74288152Y-41240952D02*
X74335771Y-41288571D01*
X74335771Y-41288571D02*
X74383390Y-41383809D01*
X74383390Y-41383809D02*
X74383390Y-41574285D01*
X74383390Y-41574285D02*
X74431009Y-41669523D01*
X74431009Y-41669523D02*
X74478628Y-41717142D01*
X74478628Y-41717142D02*
X74573866Y-41764761D01*
X74573866Y-41764761D02*
X74764342Y-41764761D01*
X74764342Y-41764761D02*
X74859580Y-41717142D01*
X74859580Y-41717142D02*
X74907200Y-41669523D01*
X74907200Y-41669523D02*
X74954819Y-41574285D01*
X74954819Y-41574285D02*
X74954819Y-41383809D01*
X74954819Y-41383809D02*
X74907200Y-41288571D01*
X74907200Y-41288571D02*
X74859580Y-41240952D01*
X74859580Y-41240952D02*
X74764342Y-41193333D01*
X74764342Y-41193333D02*
X74573866Y-41193333D01*
X74573866Y-41193333D02*
X74478628Y-41240952D01*
X74478628Y-41240952D02*
X74431009Y-41288571D01*
X74431009Y-41288571D02*
X74383390Y-41383809D01*
X20204819Y-57361429D02*
X20204819Y-57170953D01*
X20204819Y-57170953D02*
X20252438Y-57075715D01*
X20252438Y-57075715D02*
X20347676Y-56980477D01*
X20347676Y-56980477D02*
X20538152Y-56932858D01*
X20538152Y-56932858D02*
X20871485Y-56932858D01*
X20871485Y-56932858D02*
X21061961Y-56980477D01*
X21061961Y-56980477D02*
X21157200Y-57075715D01*
X21157200Y-57075715D02*
X21204819Y-57170953D01*
X21204819Y-57170953D02*
X21204819Y-57361429D01*
X21204819Y-57361429D02*
X21157200Y-57456667D01*
X21157200Y-57456667D02*
X21061961Y-57551905D01*
X21061961Y-57551905D02*
X20871485Y-57599524D01*
X20871485Y-57599524D02*
X20538152Y-57599524D01*
X20538152Y-57599524D02*
X20347676Y-57551905D01*
X20347676Y-57551905D02*
X20252438Y-57456667D01*
X20252438Y-57456667D02*
X20204819Y-57361429D01*
X21204819Y-56504286D02*
X20538152Y-56504286D01*
X20728628Y-56504286D02*
X20633390Y-56456667D01*
X20633390Y-56456667D02*
X20585771Y-56409048D01*
X20585771Y-56409048D02*
X20538152Y-56313810D01*
X20538152Y-56313810D02*
X20538152Y-56218572D01*
X21204819Y-55456667D02*
X20681009Y-55456667D01*
X20681009Y-55456667D02*
X20585771Y-55504286D01*
X20585771Y-55504286D02*
X20538152Y-55599524D01*
X20538152Y-55599524D02*
X20538152Y-55790000D01*
X20538152Y-55790000D02*
X20585771Y-55885238D01*
X21157200Y-55456667D02*
X21204819Y-55551905D01*
X21204819Y-55551905D02*
X21204819Y-55790000D01*
X21204819Y-55790000D02*
X21157200Y-55885238D01*
X21157200Y-55885238D02*
X21061961Y-55932857D01*
X21061961Y-55932857D02*
X20966723Y-55932857D01*
X20966723Y-55932857D02*
X20871485Y-55885238D01*
X20871485Y-55885238D02*
X20823866Y-55790000D01*
X20823866Y-55790000D02*
X20823866Y-55551905D01*
X20823866Y-55551905D02*
X20776247Y-55456667D01*
X20538152Y-54980476D02*
X21204819Y-54980476D01*
X20633390Y-54980476D02*
X20585771Y-54932857D01*
X20585771Y-54932857D02*
X20538152Y-54837619D01*
X20538152Y-54837619D02*
X20538152Y-54694762D01*
X20538152Y-54694762D02*
X20585771Y-54599524D01*
X20585771Y-54599524D02*
X20681009Y-54551905D01*
X20681009Y-54551905D02*
X21204819Y-54551905D01*
X20538152Y-53647143D02*
X21347676Y-53647143D01*
X21347676Y-53647143D02*
X21442914Y-53694762D01*
X21442914Y-53694762D02*
X21490533Y-53742381D01*
X21490533Y-53742381D02*
X21538152Y-53837619D01*
X21538152Y-53837619D02*
X21538152Y-53980476D01*
X21538152Y-53980476D02*
X21490533Y-54075714D01*
X21157200Y-53647143D02*
X21204819Y-53742381D01*
X21204819Y-53742381D02*
X21204819Y-53932857D01*
X21204819Y-53932857D02*
X21157200Y-54028095D01*
X21157200Y-54028095D02*
X21109580Y-54075714D01*
X21109580Y-54075714D02*
X21014342Y-54123333D01*
X21014342Y-54123333D02*
X20728628Y-54123333D01*
X20728628Y-54123333D02*
X20633390Y-54075714D01*
X20633390Y-54075714D02*
X20585771Y-54028095D01*
X20585771Y-54028095D02*
X20538152Y-53932857D01*
X20538152Y-53932857D02*
X20538152Y-53742381D01*
X20538152Y-53742381D02*
X20585771Y-53647143D01*
X21157200Y-52790000D02*
X21204819Y-52885238D01*
X21204819Y-52885238D02*
X21204819Y-53075714D01*
X21204819Y-53075714D02*
X21157200Y-53170952D01*
X21157200Y-53170952D02*
X21061961Y-53218571D01*
X21061961Y-53218571D02*
X20681009Y-53218571D01*
X20681009Y-53218571D02*
X20585771Y-53170952D01*
X20585771Y-53170952D02*
X20538152Y-53075714D01*
X20538152Y-53075714D02*
X20538152Y-52885238D01*
X20538152Y-52885238D02*
X20585771Y-52790000D01*
X20585771Y-52790000D02*
X20681009Y-52742381D01*
X20681009Y-52742381D02*
X20776247Y-52742381D01*
X20776247Y-52742381D02*
X20871485Y-53218571D01*
X21300057Y-52551905D02*
X21300057Y-51790000D01*
X21204819Y-51551904D02*
X20204819Y-51551904D01*
X20204819Y-51551904D02*
X20204819Y-51170952D01*
X20204819Y-51170952D02*
X20252438Y-51075714D01*
X20252438Y-51075714D02*
X20300057Y-51028095D01*
X20300057Y-51028095D02*
X20395295Y-50980476D01*
X20395295Y-50980476D02*
X20538152Y-50980476D01*
X20538152Y-50980476D02*
X20633390Y-51028095D01*
X20633390Y-51028095D02*
X20681009Y-51075714D01*
X20681009Y-51075714D02*
X20728628Y-51170952D01*
X20728628Y-51170952D02*
X20728628Y-51551904D01*
X21204819Y-50551904D02*
X20204819Y-50551904D01*
X21300057Y-50313810D02*
X21300057Y-49551905D01*
X21204819Y-49313809D02*
X20204819Y-49313809D01*
X20204819Y-49313809D02*
X20204819Y-48932857D01*
X20204819Y-48932857D02*
X20252438Y-48837619D01*
X20252438Y-48837619D02*
X20300057Y-48790000D01*
X20300057Y-48790000D02*
X20395295Y-48742381D01*
X20395295Y-48742381D02*
X20538152Y-48742381D01*
X20538152Y-48742381D02*
X20633390Y-48790000D01*
X20633390Y-48790000D02*
X20681009Y-48837619D01*
X20681009Y-48837619D02*
X20728628Y-48932857D01*
X20728628Y-48932857D02*
X20728628Y-49313809D01*
X21109580Y-47742381D02*
X21157200Y-47790000D01*
X21157200Y-47790000D02*
X21204819Y-47932857D01*
X21204819Y-47932857D02*
X21204819Y-48028095D01*
X21204819Y-48028095D02*
X21157200Y-48170952D01*
X21157200Y-48170952D02*
X21061961Y-48266190D01*
X21061961Y-48266190D02*
X20966723Y-48313809D01*
X20966723Y-48313809D02*
X20776247Y-48361428D01*
X20776247Y-48361428D02*
X20633390Y-48361428D01*
X20633390Y-48361428D02*
X20442914Y-48313809D01*
X20442914Y-48313809D02*
X20347676Y-48266190D01*
X20347676Y-48266190D02*
X20252438Y-48170952D01*
X20252438Y-48170952D02*
X20204819Y-48028095D01*
X20204819Y-48028095D02*
X20204819Y-47932857D01*
X20204819Y-47932857D02*
X20252438Y-47790000D01*
X20252438Y-47790000D02*
X20300057Y-47742381D01*
X21300057Y-47551905D02*
X21300057Y-46790000D01*
X20204819Y-46361428D02*
X20204819Y-46170952D01*
X20204819Y-46170952D02*
X20252438Y-46075714D01*
X20252438Y-46075714D02*
X20347676Y-45980476D01*
X20347676Y-45980476D02*
X20538152Y-45932857D01*
X20538152Y-45932857D02*
X20871485Y-45932857D01*
X20871485Y-45932857D02*
X21061961Y-45980476D01*
X21061961Y-45980476D02*
X21157200Y-46075714D01*
X21157200Y-46075714D02*
X21204819Y-46170952D01*
X21204819Y-46170952D02*
X21204819Y-46361428D01*
X21204819Y-46361428D02*
X21157200Y-46456666D01*
X21157200Y-46456666D02*
X21061961Y-46551904D01*
X21061961Y-46551904D02*
X20871485Y-46599523D01*
X20871485Y-46599523D02*
X20538152Y-46599523D01*
X20538152Y-46599523D02*
X20347676Y-46551904D01*
X20347676Y-46551904D02*
X20252438Y-46456666D01*
X20252438Y-46456666D02*
X20204819Y-46361428D01*
X21204819Y-45504285D02*
X20204819Y-45504285D01*
X20204819Y-45504285D02*
X21204819Y-44932857D01*
X21204819Y-44932857D02*
X20204819Y-44932857D01*
X20681009Y-44456666D02*
X20681009Y-44123333D01*
X21204819Y-43980476D02*
X21204819Y-44456666D01*
X21204819Y-44456666D02*
X20204819Y-44456666D01*
X20204819Y-44456666D02*
X20204819Y-43980476D01*
X21300057Y-43790000D02*
X21300057Y-43028095D01*
X20538152Y-42361428D02*
X21204819Y-42361428D01*
X20157200Y-42599523D02*
X20871485Y-42837618D01*
X20871485Y-42837618D02*
X20871485Y-42218571D01*
X20204819Y-41647142D02*
X20204819Y-41551904D01*
X20204819Y-41551904D02*
X20252438Y-41456666D01*
X20252438Y-41456666D02*
X20300057Y-41409047D01*
X20300057Y-41409047D02*
X20395295Y-41361428D01*
X20395295Y-41361428D02*
X20585771Y-41313809D01*
X20585771Y-41313809D02*
X20823866Y-41313809D01*
X20823866Y-41313809D02*
X21014342Y-41361428D01*
X21014342Y-41361428D02*
X21109580Y-41409047D01*
X21109580Y-41409047D02*
X21157200Y-41456666D01*
X21157200Y-41456666D02*
X21204819Y-41551904D01*
X21204819Y-41551904D02*
X21204819Y-41647142D01*
X21204819Y-41647142D02*
X21157200Y-41742380D01*
X21157200Y-41742380D02*
X21109580Y-41789999D01*
X21109580Y-41789999D02*
X21014342Y-41837618D01*
X21014342Y-41837618D02*
X20823866Y-41885237D01*
X20823866Y-41885237D02*
X20585771Y-41885237D01*
X20585771Y-41885237D02*
X20395295Y-41837618D01*
X20395295Y-41837618D02*
X20300057Y-41789999D01*
X20300057Y-41789999D02*
X20252438Y-41742380D01*
X20252438Y-41742380D02*
X20204819Y-41647142D01*
X21204819Y-40885237D02*
X20204819Y-40885237D01*
X20204819Y-40885237D02*
X20204819Y-40504285D01*
X20204819Y-40504285D02*
X20252438Y-40409047D01*
X20252438Y-40409047D02*
X20300057Y-40361428D01*
X20300057Y-40361428D02*
X20395295Y-40313809D01*
X20395295Y-40313809D02*
X20538152Y-40313809D01*
X20538152Y-40313809D02*
X20633390Y-40361428D01*
X20633390Y-40361428D02*
X20681009Y-40409047D01*
X20681009Y-40409047D02*
X20728628Y-40504285D01*
X20728628Y-40504285D02*
X20728628Y-40885237D01*
X21204819Y-39885237D02*
X20538152Y-39885237D01*
X20204819Y-39885237D02*
X20252438Y-39932856D01*
X20252438Y-39932856D02*
X20300057Y-39885237D01*
X20300057Y-39885237D02*
X20252438Y-39837618D01*
X20252438Y-39837618D02*
X20204819Y-39885237D01*
X20204819Y-39885237D02*
X20300057Y-39885237D01*
X20538152Y-39409047D02*
X21204819Y-39409047D01*
X20633390Y-39409047D02*
X20585771Y-39361428D01*
X20585771Y-39361428D02*
X20538152Y-39266190D01*
X20538152Y-39266190D02*
X20538152Y-39123333D01*
X20538152Y-39123333D02*
X20585771Y-39028095D01*
X20585771Y-39028095D02*
X20681009Y-38980476D01*
X20681009Y-38980476D02*
X21204819Y-38980476D01*
X21300057Y-38742381D02*
X21300057Y-37980476D01*
X21204819Y-37742380D02*
X20204819Y-37742380D01*
X20681009Y-37742380D02*
X20681009Y-37170952D01*
X21204819Y-37170952D02*
X20204819Y-37170952D01*
X21157200Y-36313809D02*
X21204819Y-36409047D01*
X21204819Y-36409047D02*
X21204819Y-36599523D01*
X21204819Y-36599523D02*
X21157200Y-36694761D01*
X21157200Y-36694761D02*
X21061961Y-36742380D01*
X21061961Y-36742380D02*
X20681009Y-36742380D01*
X20681009Y-36742380D02*
X20585771Y-36694761D01*
X20585771Y-36694761D02*
X20538152Y-36599523D01*
X20538152Y-36599523D02*
X20538152Y-36409047D01*
X20538152Y-36409047D02*
X20585771Y-36313809D01*
X20585771Y-36313809D02*
X20681009Y-36266190D01*
X20681009Y-36266190D02*
X20776247Y-36266190D01*
X20776247Y-36266190D02*
X20871485Y-36742380D01*
X21204819Y-35409047D02*
X20681009Y-35409047D01*
X20681009Y-35409047D02*
X20585771Y-35456666D01*
X20585771Y-35456666D02*
X20538152Y-35551904D01*
X20538152Y-35551904D02*
X20538152Y-35742380D01*
X20538152Y-35742380D02*
X20585771Y-35837618D01*
X21157200Y-35409047D02*
X21204819Y-35504285D01*
X21204819Y-35504285D02*
X21204819Y-35742380D01*
X21204819Y-35742380D02*
X21157200Y-35837618D01*
X21157200Y-35837618D02*
X21061961Y-35885237D01*
X21061961Y-35885237D02*
X20966723Y-35885237D01*
X20966723Y-35885237D02*
X20871485Y-35837618D01*
X20871485Y-35837618D02*
X20823866Y-35742380D01*
X20823866Y-35742380D02*
X20823866Y-35504285D01*
X20823866Y-35504285D02*
X20776247Y-35409047D01*
X21204819Y-34504285D02*
X20204819Y-34504285D01*
X21157200Y-34504285D02*
X21204819Y-34599523D01*
X21204819Y-34599523D02*
X21204819Y-34789999D01*
X21204819Y-34789999D02*
X21157200Y-34885237D01*
X21157200Y-34885237D02*
X21109580Y-34932856D01*
X21109580Y-34932856D02*
X21014342Y-34980475D01*
X21014342Y-34980475D02*
X20728628Y-34980475D01*
X20728628Y-34980475D02*
X20633390Y-34932856D01*
X20633390Y-34932856D02*
X20585771Y-34885237D01*
X20585771Y-34885237D02*
X20538152Y-34789999D01*
X20538152Y-34789999D02*
X20538152Y-34599523D01*
X20538152Y-34599523D02*
X20585771Y-34504285D01*
X21157200Y-33647142D02*
X21204819Y-33742380D01*
X21204819Y-33742380D02*
X21204819Y-33932856D01*
X21204819Y-33932856D02*
X21157200Y-34028094D01*
X21157200Y-34028094D02*
X21061961Y-34075713D01*
X21061961Y-34075713D02*
X20681009Y-34075713D01*
X20681009Y-34075713D02*
X20585771Y-34028094D01*
X20585771Y-34028094D02*
X20538152Y-33932856D01*
X20538152Y-33932856D02*
X20538152Y-33742380D01*
X20538152Y-33742380D02*
X20585771Y-33647142D01*
X20585771Y-33647142D02*
X20681009Y-33599523D01*
X20681009Y-33599523D02*
X20776247Y-33599523D01*
X20776247Y-33599523D02*
X20871485Y-34075713D01*
X21204819Y-33170951D02*
X20538152Y-33170951D01*
X20728628Y-33170951D02*
X20633390Y-33123332D01*
X20633390Y-33123332D02*
X20585771Y-33075713D01*
X20585771Y-33075713D02*
X20538152Y-32980475D01*
X20538152Y-32980475D02*
X20538152Y-32885237D01*
X23614819Y-48393333D02*
X24329104Y-48393333D01*
X24329104Y-48393333D02*
X24471961Y-48440952D01*
X24471961Y-48440952D02*
X24567200Y-48536190D01*
X24567200Y-48536190D02*
X24614819Y-48679047D01*
X24614819Y-48679047D02*
X24614819Y-48774285D01*
X24614819Y-47393333D02*
X24614819Y-47964761D01*
X24614819Y-47679047D02*
X23614819Y-47679047D01*
X23614819Y-47679047D02*
X23757676Y-47774285D01*
X23757676Y-47774285D02*
X23852914Y-47869523D01*
X23852914Y-47869523D02*
X23900533Y-47964761D01*
D11*
G04 #@! TO.C,J8*
X73230000Y-38050000D02*
X75135000Y-38050000D01*
X73230000Y-45670000D02*
X73230000Y-38050000D01*
X75135000Y-38050000D02*
X75770000Y-38685000D01*
X75770000Y-38685000D02*
X75770000Y-45670000D01*
X75770000Y-45670000D02*
X73230000Y-45670000D01*
G04 #@! TO.C,J1*
X21620000Y-22660000D02*
X25700000Y-22660000D01*
X21620000Y-73460000D02*
X21620000Y-22660000D01*
X25700000Y-22660000D02*
X26700000Y-23660000D01*
X26700000Y-23660000D02*
X26700000Y-73460000D01*
X26700000Y-73460000D02*
X21620000Y-73460000D01*
G04 #@! TD*
M02*
