M48
; DRILL file {KiCad 8.0.5} date 2024-10-14T11:26:22+0500
; FORMAT={-:-/ absolute / metric / decimal}
; #@! TF.CreationDate,2024-10-14T11:26:22+05:00
; #@! TF.GenerationSoftware,Kicad,Pcbnew,8.0.5
; #@! TF.FileFunction,Plated,1,2,PTH
FMAT,2
METRIC
; #@! TA.AperFunction,Plated,PTH,ViaDrill
T1C0.300
; #@! TA.AperFunction,Plated,PTH,ComponentDrill
T2C0.800
; #@! TA.AperFunction,Plated,PTH,ComponentDrill
T3C1.000
%
G90
G05
T1
X21.35Y-46.77
X21.5Y-59.49
X21.56Y-64.57
X21.62Y-29.01
X21.65Y-39.17
X25.36Y-75.4
X26.77Y-58.56
X26.78Y-49.32
X26.78Y-53.44
X30.4Y-43.05
X31.23Y-48.61
X31.37Y-25.95
X31.56Y-35.71
X32.2Y-56.93
X32.62Y-48.09
X32.74Y-43.11
X32.88Y-57.94
X32.96Y-59.47
X33.1Y-53.85
X33.31Y-49.59
X33.66Y-54.48
X34.17Y-50.87
X34.5Y-55.11
X34.96Y-51.84
X35.11Y-35.72
X35.37Y-41.99
X36.15Y-40.92
X36.28Y-43.7
X36.5Y-55.02
X36.51Y-77.98
X36.66Y-40.11
X36.92Y-33.32
X36.99Y-62.77
X37.13Y-76.61
X37.215Y-30.035
X38.92Y-41.39
X38.95Y-58.18
X39.01Y-60.88
X39.52Y-60.15
X39.69Y-31.8
X40.43Y-60.1
X40.49Y-41.33
X40.51Y-38.13
X41.1Y-27.76
X41.13Y-62.75
X41.76Y-63.89
X42.91Y-19.94
X48.74Y-35.35
X49.85Y-55.89
X52.32Y-55.93
X52.37Y-45.32
X53.0Y-31.9
X53.57Y-56.6
X53.58Y-58.25
X54.2Y-35.55
X54.92Y-50.5
X55.63Y-34.08
X57.08Y-45.32
X57.78Y-26.1
X57.81Y-44.62
X58.3Y-49.29
X59.49Y-31.97
X59.5Y-44.7
X62.15Y-79.06
X62.995Y-37.335
X63.22Y-31.61
X63.48Y-34.08
X63.83Y-72.17
X64.3Y-68.44
X64.97Y-41.37
X66.71Y-52.17
X66.77Y-78.01
X67.27Y-75.82
X67.28Y-73.28
X68.03Y-46.23
X68.11Y-69.52
X68.155Y-64.545
X68.335Y-38.925
X68.55Y-44.7
X68.6Y-49.84
X68.66Y-50.96
X69.51Y-35.85
X69.63Y-53.72
X70.28Y-60.34
X70.62Y-78.3
X71.3Y-61.4
X72.29Y-48.25
X72.775Y-36.625
T2
X29.12Y-23.91
X29.12Y-26.45
X29.12Y-28.99
X29.12Y-31.53
X29.12Y-34.07
X29.12Y-36.61
X29.12Y-39.15
X29.12Y-41.69
X29.12Y-44.23
X29.12Y-46.77
X29.12Y-49.31
X29.12Y-51.85
X29.12Y-54.39
X29.12Y-56.93
X29.12Y-59.47
X29.12Y-62.01
X29.12Y-64.55
X29.12Y-67.09
X29.12Y-69.63
X29.12Y-72.17
X44.12Y-23.91
X44.12Y-26.45
X44.12Y-28.99
X44.12Y-31.53
X44.12Y-34.07
X44.12Y-36.61
X44.12Y-39.15
X44.12Y-41.69
X44.12Y-44.23
X44.12Y-46.77
X44.12Y-49.31
X44.12Y-51.85
X44.12Y-54.39
X44.12Y-56.93
X44.12Y-59.47
X44.12Y-62.01
X44.12Y-64.55
X44.12Y-67.09
X44.12Y-69.63
X44.12Y-72.17
T3
X22.89Y-23.93
X22.89Y-26.47
X22.89Y-29.01
X22.89Y-31.55
X22.89Y-34.09
X22.89Y-36.63
X22.89Y-39.17
X22.89Y-41.71
X22.89Y-44.25
X22.89Y-46.79
X22.89Y-49.33
X22.89Y-51.87
X22.89Y-54.41
X22.89Y-56.95
X22.89Y-59.49
X22.89Y-62.03
X22.89Y-64.57
X22.89Y-67.11
X22.89Y-69.65
X22.89Y-72.19
X25.4Y-19.43
X25.43Y-23.93
X25.43Y-26.47
X25.43Y-29.01
X25.43Y-31.55
X25.43Y-34.09
X25.43Y-36.63
X25.43Y-39.17
X25.43Y-41.71
X25.43Y-44.25
X25.43Y-46.79
X25.43Y-49.33
X25.43Y-51.87
X25.43Y-54.41
X25.43Y-56.95
X25.43Y-59.49
X25.43Y-62.03
X25.43Y-64.57
X25.43Y-67.11
X25.43Y-69.65
X25.43Y-72.19
X27.94Y-19.43
X30.48Y-19.43
X48.66Y-22.25
X48.66Y-24.79
X48.66Y-27.33
X48.66Y-29.87
X48.66Y-32.41
X48.91Y-39.19
X48.91Y-41.73
X48.91Y-44.27
X49.69Y-63.12
X49.69Y-65.66
X49.69Y-68.2
X49.69Y-70.74
X52.34Y-19.68
X52.34Y-22.22
X52.34Y-24.76
X52.34Y-27.3
X52.34Y-29.84
X55.98Y-19.68
X55.98Y-22.22
X55.98Y-24.76
X55.98Y-27.3
X55.98Y-29.84
X59.61Y-19.69
X59.61Y-22.23
X59.61Y-24.77
X59.61Y-27.31
X59.61Y-29.85
X63.23Y-19.67
X63.23Y-22.21
X63.23Y-24.75
X63.23Y-27.29
X63.23Y-29.83
X67.28Y-22.2
X67.28Y-24.74
X67.28Y-27.28
X70.74Y-39.34
X70.74Y-41.88
X70.74Y-44.42
X70.88Y-22.2
X70.88Y-24.74
X70.88Y-27.28
X74.5Y-39.32
X74.5Y-41.86
X74.5Y-44.4
X74.52Y-22.2
X74.52Y-24.74
X74.52Y-27.28
X74.56Y-68.66
X74.56Y-71.2
X74.56Y-73.74
X74.56Y-76.28
X74.56Y-78.82
X74.56Y-81.36
X74.56Y-83.9
X74.57Y-49.84
X74.57Y-52.38
X74.57Y-54.92
X74.57Y-57.46
X74.57Y-60.0
X74.57Y-62.54
X74.57Y-65.08
M30
